0
SECTION
2
HEADER
0
ENDSEC
0
SECTION
2
TABLES
0
TABLE
2
LAYER
70
1
0
LAYER
2
1-0_REZ
70
0
62
7
6
CONTINUOUS
0
ENDTAB
0
ENDSEC
0
SECTION
2
ENTITIES
0
LINE
8
1-0_REZ
10
-12.720000
20
-11.800000
30
0.0
11
-11.800000
21
-11.800000
31
0.0
0
LINE
8
1-0_REZ
10
-11.660000
20
-11.800000
30
0.0
11
-10.960000
21
-11.800000
31
0.0
0
LINE
8
1-0_REZ
10
-10.660000
20
-11.800000
30
0.0
11
-9.160000
21
-11.800000
31
0.0
0
LINE
8
1-0_REZ
10
-12.760000
20
-11.780000
30
0.0
11
-11.780000
21
-11.780000
31
0.0
0
LINE
8
1-0_REZ
10
-11.700000
20
-11.780000
30
0.0
11
-9.780000
21
-11.780000
31
0.0
0
LINE
8
1-0_REZ
10
1.500000
20
-11.780000
30
0.0
11
2.040000
21
-11.780000
31
0.0
0
LINE
8
1-0_REZ
10
2.920000
20
-11.780000
30
0.0
11
3.600000
21
-11.780000
31
0.0
0
LINE
8
1-0_REZ
10
15.160000
20
13.580000
30
0.0
11
18.320000
21
13.580000
31
0.0
0
LINE
8
1-0_REZ
10
18.400000
20
13.580000
30
0.0
11
19.780000
21
13.580000
31
0.0
0
LINE
8
1-0_REZ
10
-13.920000
20
-10.460000
30
0.0
11
-13.340000
21
-10.460000
31
0.0
0
LINE
8
1-0_REZ
10
-5.120000
20
-2.960000
30
0.0
11
-4.620000
21
-2.960000
31
0.0
0
LINE
8
1-0_REZ
10
0.720000
20
-2.960000
30
0.0
11
1.180000
21
-2.960000
31
0.0
0
LINE
8
1-0_REZ
10
8.540000
20
-2.960000
30
0.0
11
9.700000
21
-2.960000
31
0.0
0
LINE
8
1-0_REZ
10
-12.000000
20
-8.100000
30
0.0
11
-11.520000
21
-8.100000
31
0.0
0
LINE
8
1-0_REZ
10
-5.940000
20
-8.100000
30
0.0
11
-5.220000
21
-8.100000
31
0.0
0
LINE
8
1-0_REZ
10
6.080000
20
-8.100000
30
0.0
11
6.500000
21
-8.100000
31
0.0
0
LINE
8
1-0_REZ
10
-17.300000
20
-8.520000
30
0.0
11
-16.500000
21
-8.520000
31
0.0
0
LINE
8
1-0_REZ
10
6.060000
20
-8.520000
30
0.0
11
6.500000
21
-8.520000
31
0.0
0
LINE
8
1-0_REZ
10
-7.100000
20
-1.640000
30
0.0
11
-6.560000
21
-1.640000
31
0.0
0
LINE
8
1-0_REZ
10
6.800000
20
-1.640000
30
0.0
11
7.240000
21
-1.640000
31
0.0
0
LINE
8
1-0_REZ
10
-7.060000
20
-1.620000
30
0.0
11
-6.560000
21
-1.620000
31
0.0
0
LINE
8
1-0_REZ
10
0.240000
20
-1.620000
30
0.0
11
0.680000
21
-1.620000
31
0.0
0
LINE
8
1-0_REZ
10
6.300000
20
-1.620000
30
0.0
11
6.820000
21
-1.620000
31
0.0
0
LINE
8
1-0_REZ
10
-15.320000
20
-10.560000
30
0.0
11
-14.820000
21
-10.560000
31
0.0
0
LINE
8
1-0_REZ
10
-13.900000
20
-10.560000
30
0.0
11
-13.240000
21
-10.560000
31
0.0
0
LINE
8
1-0_REZ
10
-14.840000
20
-10.540000
30
0.0
11
-14.440000
21
-10.540000
31
0.0
0
LINE
8
1-0_REZ
10
-13.900000
20
-10.540000
30
0.0
11
-13.260000
21
-10.540000
31
0.0
0
LINE
8
1-0_REZ
10
-2.480000
20
-6.140000
30
0.0
11
-1.940000
21
-6.140000
31
0.0
0
LINE
8
1-0_REZ
10
8.260000
20
-6.140000
30
0.0
11
8.760000
21
-6.140000
31
0.0
0
LINE
8
1-0_REZ
10
-12.660000
20
-7.180000
30
0.0
11
-12.260000
21
-7.180000
31
0.0
0
LINE
8
1-0_REZ
10
-13.300000
20
-11.700000
30
0.0
11
-12.460000
21
-11.700000
31
0.0
0
LINE
8
1-0_REZ
10
-12.260000
20
-11.700000
30
0.0
11
-11.860000
21
-11.700000
31
0.0
0
LINE
8
1-0_REZ
10
-11.160000
20
-11.700000
30
0.0
11
-10.500000
21
-11.700000
31
0.0
0
LINE
8
1-0_REZ
10
-13.380000
20
-11.680000
30
0.0
11
-12.480000
21
-11.680000
31
0.0
0
LINE
8
1-0_REZ
10
-11.240000
20
-11.680000
30
0.0
11
-10.520000
21
-11.680000
31
0.0
0
LINE
8
1-0_REZ
10
11.720000
20
13.380000
30
0.0
11
13.720000
21
13.380000
31
0.0
0
LINE
8
1-0_REZ
10
-1.400000
20
-4.200000
30
0.0
11
-1.020000
21
-4.200000
31
0.0
0
LINE
8
1-0_REZ
10
-4.740000
20
-6.240000
30
0.0
11
-4.080000
21
-6.240000
31
0.0
0
LINE
8
1-0_REZ
10
-4.840000
20
-8.300000
30
0.0
11
-4.420000
21
-8.300000
31
0.0
0
LINE
8
1-0_REZ
10
-1.040000
20
-8.300000
30
0.0
11
-0.160000
21
-8.300000
31
0.0
0
LINE
8
1-0_REZ
10
6.060000
20
-8.300000
30
0.0
11
6.500000
21
-8.300000
31
0.0
0
LINE
8
1-0_REZ
10
-12.200000
20
-8.280000
30
0.0
11
-11.500000
21
-8.280000
31
0.0
0
LINE
8
1-0_REZ
10
-5.420000
20
-8.280000
30
0.0
11
-4.760000
21
-8.280000
31
0.0
0
LINE
8
1-0_REZ
10
-1.320000
20
-8.280000
30
0.0
11
-0.780000
21
-8.280000
31
0.0
0
LINE
8
1-0_REZ
10
-6.060000
20
-5.920000
30
0.0
11
-5.500000
21
-5.920000
31
0.0
0
LINE
8
1-0_REZ
10
-4.420000
20
-5.920000
30
0.0
11
-3.840000
21
-5.920000
31
0.0
0
LINE
8
1-0_REZ
10
1.600000
20
-5.920000
30
0.0
11
1.980000
21
-5.920000
31
0.0
0
LINE
8
1-0_REZ
10
-2.220000
20
-4.920000
30
0.0
11
-1.760000
21
-4.920000
31
0.0
0
LINE
8
1-0_REZ
10
8.540000
20
-2.840000
30
0.0
11
9.560000
21
-2.840000
31
0.0
0
LINE
8
1-0_REZ
10
9.660000
20
-8.800000
30
0.0
11
10.720000
21
-8.800000
31
0.0
0
LINE
8
1-0_REZ
10
13.040000
20
11.440000
30
0.0
11
14.060000
21
11.440000
31
0.0
0
LINE
8
1-0_REZ
10
-16.340000
20
-8.180000
30
0.0
11
-14.800000
21
-8.180000
31
0.0
0
LINE
8
1-0_REZ
10
-11.960000
20
-8.180000
30
0.0
11
-11.500000
21
-8.180000
31
0.0
0
LINE
8
1-0_REZ
10
6.040000
20
-8.600000
30
0.0
11
6.500000
21
-8.600000
31
0.0
0
LINE
8
1-0_REZ
10
2.960000
20
3.100000
30
0.0
11
4.220000
21
3.100000
31
0.0
0
LINE
8
1-0_REZ
10
4.520000
20
3.100000
30
0.0
11
5.220000
21
3.100000
31
0.0
0
LINE
8
1-0_REZ
10
23.460000
20
3.100000
30
0.0
11
23.980000
21
3.100000
31
0.0
0
LINE
8
1-0_REZ
10
2.920000
20
3.120000
30
0.0
11
4.240000
21
3.120000
31
0.0
0
LINE
8
1-0_REZ
10
4.800000
20
3.120000
30
0.0
11
5.280000
21
3.120000
31
0.0
0
LINE
8
1-0_REZ
10
5.440000
20
3.120000
30
0.0
11
5.840000
21
3.120000
31
0.0
0
LINE
8
1-0_REZ
10
14.820000
20
16.160000
30
0.0
11
15.740000
21
16.160000
31
0.0
0
LINE
8
1-0_REZ
10
-7.380000
20
-2.420000
30
0.0
11
-6.600000
21
-2.420000
31
0.0
0
LINE
8
1-0_REZ
10
-2.220000
20
-4.900000
30
0.0
11
-1.760000
21
-4.900000
31
0.0
0
LINE
8
1-0_REZ
10
3.800000
20
4.340000
30
0.0
11
4.280000
21
4.340000
31
0.0
0
LINE
8
1-0_REZ
10
5.820000
20
4.340000
30
0.0
11
6.220000
21
4.340000
31
0.0
0
LINE
8
1-0_REZ
10
-14.980000
20
-12.820000
30
0.0
11
-14.200000
21
-12.820000
31
0.0
0
LINE
8
1-0_REZ
10
9.840000
20
-12.820000
30
0.0
11
10.660000
21
-12.820000
31
0.0
0
LINE
8
1-0_REZ
10
1.320000
20
-8.380000
30
0.0
11
2.320000
21
-8.380000
31
0.0
0
LINE
8
1-0_REZ
10
6.040000
20
-8.380000
30
0.0
11
6.500000
21
-8.380000
31
0.0
0
LINE
8
1-0_REZ
10
17.600000
20
13.600000
30
0.0
11
22.620000
21
13.600000
31
0.0
0
LINE
8
1-0_REZ
10
9.640000
20
-9.820000
30
0.0
11
10.760000
21
-9.820000
31
0.0
0
LINE
8
1-0_REZ
10
-16.560000
20
-12.280000
30
0.0
11
-16.080000
21
-12.280000
31
0.0
0
LINE
8
1-0_REZ
10
-12.420000
20
-12.280000
30
0.0
11
-11.940000
21
-12.280000
31
0.0
0
LINE
8
1-0_REZ
10
-10.020000
20
-11.960000
30
0.0
11
-9.560000
21
-11.960000
31
0.0
0
LINE
8
1-0_REZ
10
18.000000
20
-11.960000
30
0.0
11
18.500000
21
-11.960000
31
0.0
0
LINE
8
1-0_REZ
10
19.040000
20
-11.960000
30
0.0
11
22.560000
21
-11.960000
31
0.0
0
LINE
8
1-0_REZ
10
-13.920000
20
-7.860000
30
0.0
11
-13.320000
21
-7.860000
31
0.0
0
LINE
8
1-0_REZ
10
-6.960000
20
-7.860000
30
0.0
11
-6.400000
21
-7.860000
31
0.0
0
LINE
8
1-0_REZ
10
-6.220000
20
-7.860000
30
0.0
11
-5.660000
21
-7.860000
31
0.0
0
LINE
8
1-0_REZ
10
-8.640000
20
-13.080000
30
0.0
11
-8.240000
21
-13.080000
31
0.0
0
LINE
8
1-0_REZ
10
-0.420000
20
0.680000
30
0.0
11
0.080000
21
0.680000
31
0.0
0
LINE
8
1-0_REZ
10
-14.960000
20
-12.700000
30
0.0
11
-14.200000
21
-12.700000
31
0.0
0
LINE
8
1-0_REZ
10
-11.000000
20
-12.700000
30
0.0
11
-10.000000
21
-12.700000
31
0.0
0
LINE
8
1-0_REZ
10
5.920000
20
-12.700000
30
0.0
11
6.760000
21
-12.700000
31
0.0
0
LINE
8
1-0_REZ
10
-12.180000
20
-7.980000
30
0.0
11
-11.520000
21
-7.980000
31
0.0
0
LINE
8
1-0_REZ
10
-6.280000
20
-7.980000
30
0.0
11
-5.900000
21
-7.980000
31
0.0
0
LINE
8
1-0_REZ
10
10.760000
20
-3.540000
30
0.0
11
11.300000
21
-3.540000
31
0.0
0
LINE
8
1-0_REZ
10
-15.380000
20
-8.480000
30
0.0
11
-14.440000
21
-8.480000
31
0.0
0
LINE
8
1-0_REZ
10
3.520000
20
-8.480000
30
0.0
11
4.340000
21
-8.480000
31
0.0
0
LINE
8
1-0_REZ
10
6.080000
20
-8.480000
30
0.0
11
6.500000
21
-8.480000
31
0.0
0
LINE
8
1-0_REZ
10
-3.820000
20
-12.600000
30
0.0
11
-3.440000
21
-12.600000
31
0.0
0
LINE
8
1-0_REZ
10
5.880000
20
-12.600000
30
0.0
11
6.560000
21
-12.600000
31
0.0
0
LINE
8
1-0_REZ
10
18.000000
20
16.280000
30
0.0
11
18.560000
21
16.280000
31
0.0
0
LINE
8
1-0_REZ
10
19.480000
20
16.280000
30
0.0
11
21.000000
21
16.280000
31
0.0
0
LINE
8
1-0_REZ
10
-13.060000
20
-7.760000
30
0.0
11
-12.660000
21
-7.760000
31
0.0
0
LINE
8
1-0_REZ
10
-7.000000
20
-7.760000
30
0.0
11
-6.320000
21
-7.760000
31
0.0
0
LINE
8
1-0_REZ
10
-6.240000
20
-7.760000
30
0.0
11
-5.680000
21
-7.760000
31
0.0
0
LINE
8
1-0_REZ
10
-17.060000
20
-10.220000
30
0.0
11
-16.680000
21
-10.220000
31
0.0
0
LINE
8
1-0_REZ
10
-15.080000
20
-10.220000
30
0.0
11
-14.420000
21
-10.220000
31
0.0
0
LINE
8
1-0_REZ
10
10.700000
20
4.460000
30
0.0
11
11.200000
21
4.460000
31
0.0
0
LINE
8
1-0_REZ
10
7.620000
20
4.780000
30
0.0
11
8.520000
21
4.780000
31
0.0
0
LINE
8
1-0_REZ
10
1.580000
20
-11.360000
30
0.0
11
2.040000
21
-11.360000
31
0.0
0
LINE
8
1-0_REZ
10
-16.860000
20
-11.040000
30
0.0
11
-16.340000
21
-11.040000
31
0.0
0
LINE
8
1-0_REZ
10
-14.800000
20
-11.040000
30
0.0
11
-14.380000
21
-11.040000
31
0.0
0
LINE
8
1-0_REZ
10
-4.160000
20
-11.040000
30
0.0
11
-3.100000
21
-11.040000
31
0.0
0
LINE
8
1-0_REZ
10
6.900000
20
0.260000
30
0.0
11
7.940000
21
0.260000
31
0.0
0
LINE
8
1-0_REZ
10
1.620000
20
-10.140000
30
0.0
11
2.000000
21
-10.140000
31
0.0
0
LINE
8
1-0_REZ
10
10.640000
20
4.580000
30
0.0
11
11.220000
21
4.580000
31
0.0
0
LINE
8
1-0_REZ
10
3.720000
20
2.520000
30
0.0
11
5.800000
21
2.520000
31
0.0
0
LINE
8
1-0_REZ
10
20.900000
20
13.820000
30
0.0
11
21.280000
21
13.820000
31
0.0
0
LINE
8
1-0_REZ
10
6.060000
20
-8.560000
30
0.0
11
6.500000
21
-8.560000
31
0.0
0
LINE
8
1-0_REZ
10
4.200000
20
-11.240000
30
0.0
11
4.580000
21
-11.240000
31
0.0
0
LINE
8
1-0_REZ
10
-5.200000
20
-3.020000
30
0.0
11
-4.240000
21
-3.020000
31
0.0
0
LINE
8
1-0_REZ
10
0.600000
20
-3.020000
30
0.0
11
1.080000
21
-3.020000
31
0.0
0
LINE
8
1-0_REZ
10
8.560000
20
-3.020000
30
0.0
11
9.640000
21
-3.020000
31
0.0
0
LINE
8
1-0_REZ
10
-13.920000
20
-7.840000
30
0.0
11
-13.280000
21
-7.840000
31
0.0
0
LINE
8
1-0_REZ
10
-6.960000
20
-7.840000
30
0.0
11
-6.400000
21
-7.840000
31
0.0
0
LINE
8
1-0_REZ
10
-6.260000
20
-7.840000
30
0.0
11
-5.660000
21
-7.840000
31
0.0
0
LINE
8
1-0_REZ
10
8.180000
20
-7.840000
30
0.0
11
8.600000
21
-7.840000
31
0.0
0
LINE
8
1-0_REZ
10
1.600000
20
-11.340000
30
0.0
11
2.000000
21
-11.340000
31
0.0
0
LINE
8
1-0_REZ
10
-17.160000
20
-10.000000
30
0.0
11
-16.440000
21
-10.000000
31
0.0
0
LINE
8
1-0_REZ
10
1.580000
20
-10.000000
30
0.0
11
1.980000
21
-10.000000
31
0.0
0
LINE
8
1-0_REZ
10
-13.920000
20
-10.420000
30
0.0
11
-13.500000
21
-10.420000
31
0.0
0
LINE
8
1-0_REZ
10
12.980000
20
-0.140000
30
0.0
11
13.960000
21
-0.140000
31
0.0
0
LINE
8
1-0_REZ
10
-1.420000
20
-9.060000
30
0.0
11
-0.780000
21
-9.060000
31
0.0
0
LINE
8
1-0_REZ
10
12.940000
20
-9.060000
30
0.0
11
13.960000
21
-9.060000
31
0.0
0
LINE
8
1-0_REZ
10
4.400000
20
5.000000
30
0.0
11
4.820000
21
5.000000
31
0.0
0
LINE
8
1-0_REZ
10
10.600000
20
5.000000
30
0.0
11
11.320000
21
5.000000
31
0.0
0
LINE
8
1-0_REZ
10
-9.740000
20
-8.760000
30
0.0
11
-9.260000
21
-8.760000
31
0.0
0
LINE
8
1-0_REZ
10
-6.440000
20
-4.660000
30
0.0
11
-5.940000
21
-4.660000
31
0.0
0
LINE
8
1-0_REZ
10
5.900000
20
7.360000
30
0.0
11
7.180000
21
7.360000
31
0.0
0
LINE
8
1-0_REZ
10
-2.140000
20
-6.720000
30
0.0
11
-1.100000
21
-6.720000
31
0.0
0
LINE
8
1-0_REZ
10
1.300000
20
-9.780000
30
0.0
11
2.200000
21
-9.780000
31
0.0
0
LINE
8
1-0_REZ
10
14.800000
20
16.180000
30
0.0
11
15.760000
21
16.180000
31
0.0
0
LINE
8
1-0_REZ
10
7.520000
20
7.260000
30
0.0
11
8.640000
21
7.260000
31
0.0
0
LINE
8
1-0_REZ
10
-3.040000
20
-6.500000
30
0.0
11
-2.300000
21
-6.500000
31
0.0
0
LINE
8
1-0_REZ
10
-2.220000
20
-6.500000
30
0.0
11
-1.440000
21
-6.500000
31
0.0
0
LINE
8
1-0_REZ
10
0.580000
20
-6.500000
30
0.0
11
2.380000
21
-6.500000
31
0.0
0
LINE
8
1-0_REZ
10
6.900000
20
-6.500000
30
0.0
11
7.420000
21
-6.500000
31
0.0
0
LINE
8
1-0_REZ
10
-14.960000
20
-12.780000
30
0.0
11
-14.180000
21
-12.780000
31
0.0
0
LINE
8
1-0_REZ
10
4.760000
20
-12.780000
30
0.0
11
5.740000
21
-12.780000
31
0.0
0
LINE
8
1-0_REZ
10
-16.860000
20
-11.020000
30
0.0
11
-16.120000
21
-11.020000
31
0.0
0
LINE
8
1-0_REZ
10
-13.700000
20
-11.020000
30
0.0
11
-13.200000
21
-11.020000
31
0.0
0
LINE
8
1-0_REZ
10
-4.080000
20
-11.020000
30
0.0
11
-3.100000
21
-11.020000
31
0.0
0
LINE
8
1-0_REZ
10
-9.820000
20
-7.940000
30
0.0
11
-8.840000
21
-7.940000
31
0.0
0
LINE
8
1-0_REZ
10
-6.840000
20
-7.940000
30
0.0
11
-5.840000
21
-7.940000
31
0.0
0
LINE
8
1-0_REZ
10
-17.160000
20
-10.020000
30
0.0
11
-16.420000
21
-10.020000
31
0.0
0
LINE
8
1-0_REZ
10
1.580000
20
-10.020000
30
0.0
11
1.980000
21
-10.020000
31
0.0
0
LINE
8
1-0_REZ
10
0.540000
20
-3.220000
30
0.0
11
1.000000
21
-3.220000
31
0.0
0
LINE
8
1-0_REZ
10
7.980000
20
-3.220000
30
0.0
11
8.980000
21
-3.220000
31
0.0
0
LINE
8
1-0_REZ
10
10.740000
20
-3.220000
30
0.0
11
11.260000
21
-3.220000
31
0.0
0
LINE
8
1-0_REZ
10
-2.400000
20
-11.220000
30
0.0
11
-1.740000
21
-11.220000
31
0.0
0
LINE
8
1-0_REZ
10
3.740000
20
2.540000
30
0.0
11
5.740000
21
2.540000
31
0.0
0
LINE
8
1-0_REZ
10
-7.220000
20
-6.400000
30
0.0
11
-6.640000
21
-6.400000
31
0.0
0
LINE
8
1-0_REZ
10
-2.800000
20
-6.400000
30
0.0
11
-2.280000
21
-6.400000
31
0.0
0
LINE
8
1-0_REZ
10
-0.140000
20
-6.400000
30
0.0
11
0.420000
21
-6.400000
31
0.0
0
LINE
8
1-0_REZ
10
5.700000
20
4.880000
30
0.0
11
6.940000
21
4.880000
31
0.0
0
LINE
8
1-0_REZ
10
10.600000
20
4.880000
30
0.0
11
11.000000
21
4.880000
31
0.0
0
LINE
8
1-0_REZ
10
5.520000
20
4.900000
30
0.0
11
6.800000
21
4.900000
31
0.0
0
LINE
8
1-0_REZ
10
-13.940000
20
-7.820000
30
0.0
11
-13.260000
21
-7.820000
31
0.0
0
LINE
8
1-0_REZ
10
-6.960000
20
-7.820000
30
0.0
11
-6.340000
21
-7.820000
31
0.0
0
LINE
8
1-0_REZ
10
-6.220000
20
-7.820000
30
0.0
11
-5.660000
21
-7.820000
31
0.0
0
LINE
8
1-0_REZ
10
8.180000
20
-7.820000
30
0.0
11
8.560000
21
-7.820000
31
0.0
0
LINE
8
1-0_REZ
10
1.860000
20
3.880000
30
0.0
11
2.600000
21
3.880000
31
0.0
0
LINE
8
1-0_REZ
10
0.840000
20
5.200000
30
0.0
11
1.640000
21
5.200000
31
0.0
0
LINE
8
1-0_REZ
10
-0.680000
20
-12.340000
30
0.0
11
-0.260000
21
-12.340000
31
0.0
0
LINE
8
1-0_REZ
10
10.940000
20
-12.340000
30
0.0
11
11.620000
21
-12.340000
31
0.0
0
LINE
8
1-0_REZ
10
0.520000
20
-3.120000
30
0.0
11
0.900000
21
-3.120000
31
0.0
0
LINE
8
1-0_REZ
10
6.280000
20
-3.120000
30
0.0
11
6.680000
21
-3.120000
31
0.0
0
LINE
8
1-0_REZ
10
8.580000
20
-3.120000
30
0.0
11
9.300000
21
-3.120000
31
0.0
0
LINE
8
1-0_REZ
10
-7.780000
20
-2.080000
30
0.0
11
-7.360000
21
-2.080000
31
0.0
0
LINE
8
1-0_REZ
10
-2.820000
20
-6.600000
30
0.0
11
-1.820000
21
-6.600000
31
0.0
0
LINE
8
1-0_REZ
10
1.040000
20
-6.600000
30
0.0
11
1.440000
21
-6.600000
31
0.0
0
LINE
8
1-0_REZ
10
3.160000
20
-6.600000
30
0.0
11
3.560000
21
-6.600000
31
0.0
0
LINE
8
1-0_REZ
10
13.000000
20
-6.600000
30
0.0
11
14.000000
21
-6.600000
31
0.0
0
LINE
8
1-0_REZ
10
-8.420000
20
-13.060000
30
0.0
11
-7.980000
21
-13.060000
31
0.0
0
LINE
8
1-0_REZ
10
-3.660000
20
-8.640000
30
0.0
11
-2.760000
21
-8.640000
31
0.0
0
LINE
8
1-0_REZ
10
3.180000
20
-8.640000
30
0.0
11
3.660000
21
-8.640000
31
0.0
0
LINE
8
1-0_REZ
10
6.060000
20
-8.640000
30
0.0
11
6.500000
21
-8.640000
31
0.0
0
LINE
8
1-0_REZ
10
10.740000
20
-3.820000
30
0.0
11
11.140000
21
-3.820000
31
0.0
0
LINE
8
1-0_REZ
10
8.540000
20
-2.800000
30
0.0
11
9.340000
21
-2.800000
31
0.0
0
LINE
8
1-0_REZ
10
9.480000
20
-2.800000
30
0.0
11
10.380000
21
-2.800000
31
0.0
0
LINE
8
1-0_REZ
10
-9.840000
20
-8.740000
30
0.0
11
-9.240000
21
-8.740000
31
0.0
0
LINE
8
1-0_REZ
10
6.060000
20
-8.740000
30
0.0
11
6.500000
21
-8.740000
31
0.0
0
LINE
8
1-0_REZ
10
1.760000
20
3.980000
30
0.0
11
3.100000
21
3.980000
31
0.0
0
LINE
8
1-0_REZ
10
-0.200000
20
5.320000
30
0.0
11
0.580000
21
5.320000
31
0.0
0
LINE
8
1-0_REZ
10
-6.640000
20
-3.000000
30
0.0
11
-6.100000
21
-3.000000
31
0.0
0
LINE
8
1-0_REZ
10
-5.200000
20
-3.000000
30
0.0
11
-4.620000
21
-3.000000
31
0.0
0
LINE
8
1-0_REZ
10
0.660000
20
-3.000000
30
0.0
11
1.100000
21
-3.000000
31
0.0
0
LINE
8
1-0_REZ
10
8.560000
20
-3.000000
30
0.0
11
9.640000
21
-3.000000
31
0.0
0
LINE
8
1-0_REZ
10
5.260000
20
-8.860000
30
0.0
11
5.680000
21
-8.860000
31
0.0
0
LINE
8
1-0_REZ
10
3.800000
20
2.840000
30
0.0
11
5.500000
21
2.840000
31
0.0
0
LINE
8
1-0_REZ
10
13.240000
20
2.840000
30
0.0
11
14.000000
21
2.840000
31
0.0
0
LINE
8
1-0_REZ
10
3.660000
20
2.860000
30
0.0
11
5.500000
21
2.860000
31
0.0
0
LINE
8
1-0_REZ
10
13.000000
20
2.860000
30
0.0
11
13.740000
21
2.860000
31
0.0
0
LINE
8
1-0_REZ
10
7.560000
20
6.240000
30
0.0
11
7.960000
21
6.240000
31
0.0
0
LINE
8
1-0_REZ
10
1.320000
20
4.180000
30
0.0
11
1.900000
21
4.180000
31
0.0
0
LINE
8
1-0_REZ
10
2.000000
20
4.180000
30
0.0
11
2.540000
21
4.180000
31
0.0
0
LINE
8
1-0_REZ
10
-3.040000
20
-6.480000
30
0.0
11
-2.300000
21
-6.480000
31
0.0
0
LINE
8
1-0_REZ
10
-2.220000
20
-6.480000
30
0.0
11
-1.420000
21
-6.480000
31
0.0
0
LINE
8
1-0_REZ
10
0.580000
20
-6.480000
30
0.0
11
2.180000
21
-6.480000
31
0.0
0
LINE
8
1-0_REZ
10
8.400000
20
-13.360000
30
0.0
11
9.640000
21
-13.360000
31
0.0
0
LINE
8
1-0_REZ
10
-12.680000
20
-7.220000
30
0.0
11
-12.260000
21
-7.220000
31
0.0
0
LINE
8
1-0_REZ
10
6.520000
20
-9.660000
30
0.0
11
6.900000
21
-9.660000
31
0.0
0
LINE
8
1-0_REZ
10
-4.460000
20
-1.760000
30
0.0
11
-3.660000
21
-1.760000
31
0.0
0
LINE
8
1-0_REZ
10
-0.140000
20
-2.780000
30
0.0
11
0.260000
21
-2.780000
31
0.0
0
LINE
8
1-0_REZ
10
8.540000
20
-2.780000
30
0.0
11
9.300000
21
-2.780000
31
0.0
0
LINE
8
1-0_REZ
10
1.760000
20
4.100000
30
0.0
11
2.660000
21
4.100000
31
0.0
0
LINE
8
1-0_REZ
10
-2.200000
20
-5.260000
30
0.0
11
-1.740000
21
-5.260000
31
0.0
0
LINE
8
1-0_REZ
10
-3.440000
20
-6.280000
30
0.0
11
-2.720000
21
-6.280000
31
0.0
0
LINE
8
1-0_REZ
10
-10.400000
20
-11.840000
30
0.0
11
-8.500000
21
-11.840000
31
0.0
0
LINE
8
1-0_REZ
10
3.100000
20
-11.840000
30
0.0
11
4.040000
21
-11.840000
31
0.0
0
LINE
8
1-0_REZ
10
-6.360000
20
-2.580000
30
0.0
11
-5.840000
21
-2.580000
31
0.0
0
LINE
8
1-0_REZ
10
-6.400000
20
-12.640000
30
0.0
11
-5.360000
21
-12.640000
31
0.0
0
LINE
8
1-0_REZ
10
-3.120000
20
-12.640000
30
0.0
11
-2.140000
21
-12.640000
31
0.0
0
LINE
8
1-0_REZ
10
5.860000
20
-12.640000
30
0.0
11
6.640000
21
-12.640000
31
0.0
0
LINE
8
1-0_REZ
10
8.740000
20
-13.240000
30
0.0
11
9.640000
21
-13.240000
31
0.0
0
LINE
8
1-0_REZ
10
11.380000
20
-13.240000
30
0.0
11
11.840000
21
-13.240000
31
0.0
0
LINE
8
1-0_REZ
10
15.320000
20
-13.240000
30
0.0
11
16.660000
21
-13.240000
31
0.0
0
LINE
8
1-0_REZ
10
17.140000
20
-13.240000
30
0.0
11
23.320000
21
-13.240000
31
0.0
0
LINE
8
1-0_REZ
10
-2.220000
20
-5.060000
30
0.0
11
-1.800000
21
-5.060000
31
0.0
0
LINE
8
1-0_REZ
10
-16.440000
20
-10.920000
30
0.0
11
-15.780000
21
-10.920000
31
0.0
0
LINE
8
1-0_REZ
10
-17.060000
20
-10.260000
30
0.0
11
-16.620000
21
-10.260000
31
0.0
0
LINE
8
1-0_REZ
10
-6.420000
20
-10.260000
30
0.0
11
-5.940000
21
-10.260000
31
0.0
0
LINE
8
1-0_REZ
10
-11.940000
20
-8.220000
30
0.0
11
-11.480000
21
-8.220000
31
0.0
0
LINE
8
1-0_REZ
10
-6.600000
20
-8.220000
30
0.0
11
-6.020000
21
-8.220000
31
0.0
0
LINE
8
1-0_REZ
10
6.040000
20
-8.220000
30
0.0
11
6.500000
21
-8.220000
31
0.0
0
LINE
8
1-0_REZ
10
-0.260000
20
-4.820000
30
0.0
11
0.140000
21
-4.820000
31
0.0
0
LINE
8
1-0_REZ
10
11.720000
20
13.360000
30
0.0
11
13.720000
21
13.360000
31
0.0
0
LINE
8
1-0_REZ
10
-17.140000
20
-10.060000
30
0.0
11
-16.340000
21
-10.060000
31
0.0
0
LINE
8
1-0_REZ
10
-7.780000
20
-10.060000
30
0.0
11
-7.400000
21
-10.060000
31
0.0
0
LINE
8
1-0_REZ
10
1.600000
20
-10.060000
30
0.0
11
2.000000
21
-10.060000
31
0.0
0
LINE
8
1-0_REZ
10
-12.680000
20
-7.320000
30
0.0
11
-12.260000
21
-7.320000
31
0.0
0
LINE
8
1-0_REZ
10
-2.220000
20
-4.940000
30
0.0
11
-1.760000
21
-4.940000
31
0.0
0
LINE
8
1-0_REZ
10
-8.260000
20
-6.360000
30
0.0
11
-7.480000
21
-6.360000
31
0.0
0
LINE
8
1-0_REZ
10
-2.780000
20
-6.360000
30
0.0
11
-2.260000
21
-6.360000
31
0.0
0
LINE
8
1-0_REZ
10
-2.060000
20
-6.360000
30
0.0
11
-1.640000
21
-6.360000
31
0.0
0
LINE
8
1-0_REZ
10
-1.340000
20
-6.360000
30
0.0
11
-0.580000
21
-6.360000
31
0.0
0
LINE
8
1-0_REZ
10
-4.480000
20
-5.960000
30
0.0
11
-4.100000
21
-5.960000
31
0.0
0
LINE
8
1-0_REZ
10
0.060000
20
-5.960000
30
0.0
11
0.760000
21
-5.960000
31
0.0
0
LINE
8
1-0_REZ
10
-0.200000
20
5.340000
30
0.0
11
0.520000
21
5.340000
31
0.0
0
LINE
8
1-0_REZ
10
3.040000
20
4.300000
30
0.0
11
3.620000
21
4.300000
31
0.0
0
LINE
8
1-0_REZ
10
3.720000
20
4.300000
30
0.0
11
6.940000
21
4.300000
31
0.0
0
LINE
8
1-0_REZ
10
15.140000
20
13.560000
30
0.0
11
16.660000
21
13.560000
31
0.0
0
LINE
8
1-0_REZ
10
-13.920000
20
-10.500000
30
0.0
11
-13.320000
21
-10.500000
31
0.0
0
LINE
8
1-0_REZ
10
-13.920000
20
-10.580000
30
0.0
11
-12.660000
21
-10.580000
31
0.0
0
LINE
8
1-0_REZ
10
-16.900000
20
-10.980000
30
0.0
11
-15.800000
21
-10.980000
31
0.0
0
LINE
8
1-0_REZ
10
-4.060000
20
-10.980000
30
0.0
11
-3.180000
21
-10.980000
31
0.0
0
LINE
8
1-0_REZ
10
2.640000
20
-3.800000
30
0.0
11
3.200000
21
-3.800000
31
0.0
0
LINE
8
1-0_REZ
10
6.540000
20
-3.800000
30
0.0
11
7.120000
21
-3.800000
31
0.0
0
LINE
8
1-0_REZ
10
3.180000
20
3.080000
30
0.0
11
3.760000
21
3.080000
31
0.0
0
LINE
8
1-0_REZ
10
3.860000
20
3.080000
30
0.0
11
5.060000
21
3.080000
31
0.0
0
LINE
8
1-0_REZ
10
23.440000
20
3.080000
30
0.0
11
24.320000
21
3.080000
31
0.0
0
LINE
8
1-0_REZ
10
11.720000
20
13.340000
30
0.0
11
13.720000
21
13.340000
31
0.0
0
LINE
8
1-0_REZ
10
-12.260000
20
-11.820000
30
0.0
11
-11.820000
21
-11.820000
31
0.0
0
LINE
8
1-0_REZ
10
-11.680000
20
-11.820000
30
0.0
11
-11.280000
21
-11.820000
31
0.0
0
LINE
8
1-0_REZ
10
-10.660000
20
-11.820000
30
0.0
11
-8.860000
21
-11.820000
31
0.0
0
LINE
8
1-0_REZ
10
2.800000
20
-11.820000
30
0.0
11
3.280000
21
-11.820000
31
0.0
0
LINE
8
1-0_REZ
10
6.120000
20
-4.620000
30
0.0
11
6.500000
21
-4.620000
31
0.0
0
LINE
8
1-0_REZ
10
6.580000
20
-3.580000
30
0.0
11
8.420000
21
-3.580000
31
0.0
0
LINE
8
1-0_REZ
10
1.300000
20
-9.460000
30
0.0
11
1.680000
21
-9.460000
31
0.0
0
LINE
8
1-0_REZ
10
-5.860000
20
-5.640000
30
0.0
11
-5.460000
21
-5.640000
31
0.0
0
LINE
8
1-0_REZ
10
10.000000
20
1.740000
30
0.0
11
10.380000
21
1.740000
31
0.0
0
LINE
8
1-0_REZ
10
-17.360000
20
-8.200000
30
0.0
11
-16.240000
21
-8.200000
31
0.0
0
LINE
8
1-0_REZ
10
-11.960000
20
-8.200000
30
0.0
11
-11.500000
21
-8.200000
31
0.0
0
LINE
8
1-0_REZ
10
6.040000
20
-8.200000
30
0.0
11
6.500000
21
-8.200000
31
0.0
0
LINE
8
1-0_REZ
10
6.040000
20
5.560000
30
0.0
11
6.720000
21
5.560000
31
0.0
0
LINE
8
1-0_REZ
10
-4.820000
20
-9.240000
30
0.0
11
-3.800000
21
-9.240000
31
0.0
0
LINE
8
1-0_REZ
10
1.320000
20
-9.240000
30
0.0
11
1.700000
21
-9.240000
31
0.0
0
LINE
8
1-0_REZ
10
3.640000
20
-9.240000
30
0.0
11
4.080000
21
-9.240000
31
0.0
0
LINE
8
1-0_REZ
10
11.980000
20
-12.120000
30
0.0
11
13.260000
21
-12.120000
31
0.0
0
LINE
8
1-0_REZ
10
13.000000
20
5.460000
30
0.0
11
14.060000
21
5.460000
31
0.0
0
LINE
8
1-0_REZ
10
-9.840000
20
-8.720000
30
0.0
11
-9.220000
21
-8.720000
31
0.0
0
LINE
8
1-0_REZ
10
-2.580000
20
-8.720000
30
0.0
11
-2.020000
21
-8.720000
31
0.0
0
LINE
8
1-0_REZ
10
6.120000
20
-8.720000
30
0.0
11
6.500000
21
-8.720000
31
0.0
0
LINE
8
1-0_REZ
10
10.940000
20
-8.720000
30
0.0
11
12.540000
21
-8.720000
31
0.0
0
LINE
8
1-0_REZ
10
6.100000
20
-8.700000
30
0.0
11
6.500000
21
-8.700000
31
0.0
0
LINE
8
1-0_REZ
10
10.940000
20
-8.700000
30
0.0
11
12.540000
21
-8.700000
31
0.0
0
LINE
8
1-0_REZ
10
-12.180000
20
-8.000000
30
0.0
11
-11.520000
21
-8.000000
31
0.0
0
LINE
8
1-0_REZ
10
3.740000
20
4.320000
30
0.0
11
4.400000
21
4.320000
31
0.0
0
LINE
8
1-0_REZ
10
5.220000
20
4.320000
30
0.0
11
5.620000
21
4.320000
31
0.0
0
LINE
8
1-0_REZ
10
5.720000
20
4.320000
30
0.0
11
6.220000
21
4.320000
31
0.0
0
LINE
8
1-0_REZ
10
6.360000
20
4.320000
30
0.0
11
6.900000
21
4.320000
31
0.0
0
LINE
8
1-0_REZ
10
22.860000
20
-13.220000
30
0.0
11
23.320000
21
-13.220000
31
0.0
0
LINE
8
1-0_REZ
10
1.620000
20
-10.160000
30
0.0
11
2.000000
21
-10.160000
31
0.0
0
LINE
8
1-0_REZ
10
-5.860000
20
-5.740000
30
0.0
11
-5.460000
21
-5.740000
31
0.0
0
LINE
8
1-0_REZ
10
-6.660000
20
-12.620000
30
0.0
11
-5.940000
21
-12.620000
31
0.0
0
LINE
8
1-0_REZ
10
-3.740000
20
-12.620000
30
0.0
11
-2.840000
21
-12.620000
31
0.0
0
LINE
8
1-0_REZ
10
5.860000
20
-12.620000
30
0.0
11
6.580000
21
-12.620000
31
0.0
0
LINE
8
1-0_REZ
10
9.920000
20
-2.760000
30
0.0
11
10.400000
21
-2.760000
31
0.0
0
LINE
8
1-0_REZ
10
-4.840000
20
-1.020000
30
0.0
11
-4.160000
21
-1.020000
31
0.0
0
LINE
8
1-0_REZ
10
-2.600000
20
-1.020000
30
0.0
11
-1.960000
21
-1.020000
31
0.0
0
LINE
8
1-0_REZ
10
6.780000
20
-1.020000
30
0.0
11
7.220000
21
-1.020000
31
0.0
0
LINE
8
1-0_REZ
10
23.660000
20
-3.880000
30
0.0
11
24.080000
21
-3.880000
31
0.0
0
LINE
8
1-0_REZ
10
-12.040000
20
-12.420000
30
0.0
11
-11.220000
21
-12.420000
31
0.0
0
LINE
8
1-0_REZ
10
11.200000
20
-12.420000
30
0.0
11
12.460000
21
-12.420000
31
0.0
0
LINE
8
1-0_REZ
10
8.140000
20
4.740000
30
0.0
11
8.720000
21
4.740000
31
0.0
0
LINE
8
1-0_REZ
10
0.100000
20
-5.940000
30
0.0
11
0.520000
21
-5.940000
31
0.0
0
LINE
8
1-0_REZ
10
-12.680000
20
-7.380000
30
0.0
11
-12.280000
21
-7.380000
31
0.0
0
LINE
8
1-0_REZ
10
3.520000
20
-12.520000
30
0.0
11
3.960000
21
-12.520000
31
0.0
0
LINE
8
1-0_REZ
10
-0.240000
20
-3.280000
30
0.0
11
0.260000
21
-3.280000
31
0.0
0
LINE
8
1-0_REZ
10
9.280000
20
-3.280000
30
0.0
11
9.700000
21
-3.280000
31
0.0
0
LINE
8
1-0_REZ
10
0.600000
20
-3.260000
30
0.0
11
0.980000
21
-3.260000
31
0.0
0
LINE
8
1-0_REZ
10
9.140000
20
-3.260000
30
0.0
11
9.700000
21
-3.260000
31
0.0
0
LINE
8
1-0_REZ
10
-1.640000
20
-6.760000
30
0.0
11
-1.260000
21
-6.760000
31
0.0
0
LINE
8
1-0_REZ
10
7.120000
20
0.140000
30
0.0
11
7.580000
21
0.140000
31
0.0
0
LINE
8
1-0_REZ
10
7.840000
20
0.140000
30
0.0
11
8.520000
21
0.140000
31
0.0
0
LINE
8
1-0_REZ
10
-12.960000
20
-8.820000
30
0.0
11
-12.580000
21
-8.820000
31
0.0
0
LINE
8
1-0_REZ
10
4.540000
20
-8.820000
30
0.0
11
5.000000
21
-8.820000
31
0.0
0
LINE
8
1-0_REZ
10
-6.960000
20
-7.800000
30
0.0
11
-6.420000
21
-7.800000
31
0.0
0
LINE
8
1-0_REZ
10
-6.220000
20
-7.800000
30
0.0
11
-5.680000
21
-7.800000
31
0.0
0
LINE
8
1-0_REZ
10
1.320000
20
-9.220000
30
0.0
11
1.700000
21
-9.220000
31
0.0
0
LINE
8
1-0_REZ
10
-3.040000
20
-6.460000
30
0.0
11
-2.240000
21
-6.460000
31
0.0
0
LINE
8
1-0_REZ
10
-2.140000
20
-6.460000
30
0.0
11
-1.700000
21
-6.460000
31
0.0
0
LINE
8
1-0_REZ
10
0.660000
20
-6.460000
30
0.0
11
1.960000
21
-6.460000
31
0.0
0
LINE
8
1-0_REZ
10
-7.180000
20
-8.920000
30
0.0
11
-6.800000
21
-8.920000
31
0.0
0
LINE
8
1-0_REZ
10
-0.720000
20
-8.920000
30
0.0
11
0.120000
21
-8.920000
31
0.0
0
LINE
8
1-0_REZ
10
5.720000
20
-8.920000
30
0.0
11
6.120000
21
-8.920000
31
0.0
0
LINE
8
1-0_REZ
10
6.540000
20
4.860000
30
0.0
11
7.380000
21
4.860000
31
0.0
0
LINE
8
1-0_REZ
10
-4.100000
20
-11.060000
30
0.0
11
-3.100000
21
-11.060000
31
0.0
0
LINE
8
1-0_REZ
10
1.400000
20
-11.060000
30
0.0
11
1.840000
21
-11.060000
31
0.0
0
LINE
8
1-0_REZ
10
10.700000
20
4.420000
30
0.0
11
11.200000
21
4.420000
31
0.0
0
LINE
8
1-0_REZ
10
4.640000
20
2.380000
30
0.0
11
5.540000
21
2.380000
31
0.0
0
LINE
8
1-0_REZ
10
-2.800000
20
-6.640000
30
0.0
11
-2.320000
21
-6.640000
31
0.0
0
LINE
8
1-0_REZ
10
1.020000
20
-6.640000
30
0.0
11
1.440000
21
-6.640000
31
0.0
0
LINE
8
1-0_REZ
10
3.200000
20
-6.640000
30
0.0
11
3.780000
21
-6.640000
31
0.0
0
LINE
8
1-0_REZ
10
20.880000
20
13.900000
30
0.0
11
21.420000
21
13.900000
31
0.0
0
LINE
8
1-0_REZ
10
-1.260000
20
-1.920000
30
0.0
11
-0.400000
21
-1.920000
31
0.0
0
LINE
8
1-0_REZ
10
-5.860000
20
-5.700000
30
0.0
11
-5.480000
21
-5.700000
31
0.0
0
LINE
8
1-0_REZ
10
3.740000
20
2.480000
30
0.0
11
6.060000
21
2.480000
31
0.0
0
LINE
8
1-0_REZ
10
-9.980000
20
-11.980000
30
0.0
11
-9.520000
21
-11.980000
31
0.0
0
LINE
8
1-0_REZ
10
15.020000
20
-11.980000
30
0.0
11
19.600000
21
-11.980000
31
0.0
0
LINE
8
1-0_REZ
10
-13.600000
20
-7.780000
30
0.0
11
-13.000000
21
-7.780000
31
0.0
0
LINE
8
1-0_REZ
10
-6.960000
20
-7.780000
30
0.0
11
-6.420000
21
-7.780000
31
0.0
0
LINE
8
1-0_REZ
10
-6.220000
20
-7.780000
30
0.0
11
-5.680000
21
-7.780000
31
0.0
0
LINE
8
1-0_REZ
10
6.660000
20
7.320000
30
0.0
11
7.740000
21
7.320000
31
0.0
0
LINE
8
1-0_REZ
10
8.600000
20
7.320000
30
0.0
11
9.200000
21
7.320000
31
0.0
0
LINE
8
1-0_REZ
10
10.120000
20
7.320000
30
0.0
11
10.800000
21
7.320000
31
0.0
0
LINE
8
1-0_REZ
10
3.740000
20
2.500000
30
0.0
11
6.100000
21
2.500000
31
0.0
0
LINE
8
1-0_REZ
10
9.200000
20
0.040000
30
0.0
11
9.600000
21
0.040000
31
0.0
0
LINE
8
1-0_REZ
10
18.520000
20
16.140000
30
0.0
11
19.540000
21
16.140000
31
0.0
0
LINE
8
1-0_REZ
10
-3.460000
20
-1.000000
30
0.0
11
-2.420000
21
-1.000000
31
0.0
0
LINE
8
1-0_REZ
10
6.380000
20
-1.000000
30
0.0
11
6.780000
21
-1.000000
31
0.0
0
LINE
8
1-0_REZ
10
1.640000
20
5.160000
30
0.0
11
2.240000
21
5.160000
31
0.0
0
LINE
8
1-0_REZ
10
7.700000
20
4.760000
30
0.0
11
8.660000
21
4.760000
31
0.0
0
LINE
8
1-0_REZ
10
4.000000
20
2.700000
30
0.0
11
4.920000
21
2.700000
31
0.0
0
LINE
8
1-0_REZ
10
4.040000
20
2.720000
30
0.0
11
5.720000
21
2.720000
31
0.0
0
LINE
8
1-0_REZ
10
6.700000
20
2.720000
30
0.0
11
7.300000
21
2.720000
31
0.0
0
LINE
8
1-0_REZ
10
-12.680000
20
-7.260000
30
0.0
11
-12.260000
21
-7.260000
31
0.0
0
LINE
8
1-0_REZ
10
8.160000
20
-7.260000
30
0.0
11
8.600000
21
-7.260000
31
0.0
0
LINE
8
1-0_REZ
10
1.800000
20
4.040000
30
0.0
11
3.080000
21
4.040000
31
0.0
0
LINE
8
1-0_REZ
10
10.820000
20
16.360000
30
0.0
11
14.620000
21
16.360000
31
0.0
0
LINE
8
1-0_REZ
10
5.540000
20
7.420000
30
0.0
11
6.340000
21
7.420000
31
0.0
0
LINE
8
1-0_REZ
10
7.620000
20
7.420000
30
0.0
11
8.020000
21
7.420000
31
0.0
0
LINE
8
1-0_REZ
10
-12.680000
20
-7.360000
30
0.0
11
-12.240000
21
-7.360000
31
0.0
0
LINE
8
1-0_REZ
10
-8.860000
20
-6.340000
30
0.0
11
-8.120000
21
-6.340000
31
0.0
0
LINE
8
1-0_REZ
10
-2.760000
20
-6.340000
30
0.0
11
-1.100000
21
-6.340000
31
0.0
0
LINE
8
1-0_REZ
10
3.900000
20
-6.740000
30
0.0
11
4.380000
21
-6.740000
31
0.0
0
LINE
8
1-0_REZ
10
-1.000000
20
-4.400000
30
0.0
11
-0.600000
21
-4.400000
31
0.0
0
LINE
8
1-0_REZ
10
-5.860000
20
-5.820000
30
0.0
11
-5.480000
21
-5.820000
31
0.0
0
LINE
8
1-0_REZ
10
-4.220000
20
-5.400000
30
0.0
11
-3.760000
21
-5.400000
31
0.0
0
LINE
8
1-0_REZ
10
3.800000
20
2.820000
30
0.0
11
5.240000
21
2.820000
31
0.0
0
LINE
8
1-0_REZ
10
3.880000
20
2.420000
30
0.0
11
4.440000
21
2.420000
31
0.0
0
LINE
8
1-0_REZ
10
4.740000
20
2.420000
30
0.0
11
5.400000
21
2.420000
31
0.0
0
LINE
8
1-0_REZ
10
1.760000
20
4.140000
30
0.0
11
2.760000
21
4.140000
31
0.0
0
LINE
8
1-0_REZ
10
-2.820000
20
-6.540000
30
0.0
11
-2.340000
21
-6.540000
31
0.0
0
LINE
8
1-0_REZ
10
-2.200000
20
-6.540000
30
0.0
11
-1.620000
21
-6.540000
31
0.0
0
LINE
8
1-0_REZ
10
3.200000
20
-6.540000
30
0.0
11
3.660000
21
-6.540000
31
0.0
0
LINE
8
1-0_REZ
10
8.900000
20
-6.540000
30
0.0
11
9.680000
21
-6.540000
31
0.0
0
LINE
8
1-0_REZ
10
-5.840000
20
-5.520000
30
0.0
11
-5.440000
21
-5.520000
31
0.0
0
LINE
8
1-0_REZ
10
13.300000
20
14.420000
30
0.0
11
13.680000
21
14.420000
31
0.0
0
LINE
8
1-0_REZ
10
-5.160000
20
-6.220000
30
0.0
11
-4.700000
21
-6.220000
31
0.0
0
LINE
8
1-0_REZ
10
-0.660000
20
-6.220000
30
0.0
11
-0.120000
21
-6.220000
31
0.0
0
LINE
8
1-0_REZ
10
10.640000
20
5.080000
30
0.0
11
11.240000
21
5.080000
31
0.0
0
LINE
8
1-0_REZ
10
23.460000
20
5.080000
30
0.0
11
24.340000
21
5.080000
31
0.0
0
LINE
8
1-0_REZ
10
0.560000
20
-3.240000
30
0.0
11
1.000000
21
-3.240000
31
0.0
0
LINE
8
1-0_REZ
10
8.500000
20
-3.240000
30
0.0
11
9.000000
21
-3.240000
31
0.0
0
LINE
8
1-0_REZ
10
9.120000
20
-3.240000
30
0.0
11
9.700000
21
-3.240000
31
0.0
0
LINE
8
1-0_REZ
10
10.740000
20
-3.240000
30
0.0
11
11.320000
21
-3.240000
31
0.0
0
LINE
8
1-0_REZ
10
-9.620000
20
-6.320000
30
0.0
11
-8.700000
21
-6.320000
31
0.0
0
LINE
8
1-0_REZ
10
-2.820000
20
-6.320000
30
0.0
11
-1.440000
21
-6.320000
31
0.0
0
LINE
8
1-0_REZ
10
-5.340000
20
-0.880000
30
0.0
11
-4.660000
21
-0.880000
31
0.0
0
LINE
8
1-0_REZ
10
3.740000
20
-0.880000
30
0.0
11
4.820000
21
-0.880000
31
0.0
0
LINE
8
1-0_REZ
10
19.660000
20
16.260000
30
0.0
11
20.040000
21
16.260000
31
0.0
0
LINE
8
1-0_REZ
10
20.420000
20
16.260000
30
0.0
11
21.920000
21
16.260000
31
0.0
0
LINE
8
1-0_REZ
10
3.000000
20
2.920000
30
0.0
11
4.800000
21
2.920000
31
0.0
0
LINE
8
1-0_REZ
10
6.420000
20
7.340000
30
0.0
11
7.480000
21
7.340000
31
0.0
0
LINE
8
1-0_REZ
10
8.500000
20
7.340000
30
0.0
11
8.960000
21
7.340000
31
0.0
0
LINE
8
1-0_REZ
10
9.780000
20
7.340000
30
0.0
11
10.320000
21
7.340000
31
0.0
0
LINE
8
1-0_REZ
10
-6.800000
20
-6.420000
30
0.0
11
-6.220000
21
-6.420000
31
0.0
0
LINE
8
1-0_REZ
10
-2.840000
20
-6.420000
30
0.0
11
-2.340000
21
-6.420000
31
0.0
0
LINE
8
1-0_REZ
10
0.360000
20
-6.420000
30
0.0
11
0.900000
21
-6.420000
31
0.0
0
LINE
8
1-0_REZ
10
-16.640000
20
-8.500000
30
0.0
11
-15.020000
21
-8.500000
31
0.0
0
LINE
8
1-0_REZ
10
6.080000
20
-8.500000
30
0.0
11
6.500000
21
-8.500000
31
0.0
0
LINE
8
1-0_REZ
10
-16.760000
20
-10.620000
30
0.0
11
-16.300000
21
-10.620000
31
0.0
0
LINE
8
1-0_REZ
10
-13.920000
20
-10.620000
30
0.0
11
-12.440000
21
-10.620000
31
0.0
0
LINE
8
1-0_REZ
10
-1.400000
20
-4.160000
30
0.0
11
-1.020000
21
-4.160000
31
0.0
0
LINE
8
1-0_REZ
10
-13.200000
20
-11.760000
30
0.0
11
-10.320000
21
-11.760000
31
0.0
0
LINE
8
1-0_REZ
10
1.220000
20
-11.760000
30
0.0
11
1.860000
21
-11.760000
31
0.0
0
LINE
8
1-0_REZ
10
5.420000
20
7.440000
30
0.0
11
6.140000
21
7.440000
31
0.0
0
LINE
8
1-0_REZ
10
-5.120000
20
-2.920000
30
0.0
11
-4.640000
21
-2.920000
31
0.0
0
LINE
8
1-0_REZ
10
0.740000
20
-2.920000
30
0.0
11
1.180000
21
-2.920000
31
0.0
0
LINE
8
1-0_REZ
10
8.540000
20
-2.920000
30
0.0
11
9.700000
21
-2.920000
31
0.0
0
LINE
8
1-0_REZ
10
-1.400000
20
-4.060000
30
0.0
11
-1.000000
21
-4.060000
31
0.0
0
LINE
8
1-0_REZ
10
7.760000
20
7.240000
30
0.0
11
8.720000
21
7.240000
31
0.0
0
LINE
8
1-0_REZ
10
-11.980000
20
-8.160000
30
0.0
11
-11.500000
21
-8.160000
31
0.0
0
LINE
8
1-0_REZ
10
-4.500000
20
-8.160000
30
0.0
11
-3.840000
21
-8.160000
31
0.0
0
LINE
8
1-0_REZ
10
6.080000
20
-8.160000
30
0.0
11
6.500000
21
-8.160000
31
0.0
0
LINE
8
1-0_REZ
10
1.300000
20
3.140000
30
0.0
11
2.660000
21
3.140000
31
0.0
0
LINE
8
1-0_REZ
10
2.840000
20
3.140000
30
0.0
11
3.360000
21
3.140000
31
0.0
0
LINE
8
1-0_REZ
10
3.460000
20
3.140000
30
0.0
11
4.300000
21
3.140000
31
0.0
0
LINE
8
1-0_REZ
10
4.780000
20
3.140000
30
0.0
11
6.540000
21
3.140000
31
0.0
0
LINE
8
1-0_REZ
10
-12.660000
20
-7.140000
30
0.0
11
-12.280000
21
-7.140000
31
0.0
0
LINE
8
1-0_REZ
10
-3.020000
20
-6.520000
30
0.0
11
-2.320000
21
-6.520000
31
0.0
0
LINE
8
1-0_REZ
10
-2.220000
20
-6.520000
30
0.0
11
-1.620000
21
-6.520000
31
0.0
0
LINE
8
1-0_REZ
10
1.180000
20
-6.520000
30
0.0
11
2.060000
21
-6.520000
31
0.0
0
LINE
8
1-0_REZ
10
3.000000
20
-6.520000
30
0.0
11
3.520000
21
-6.520000
31
0.0
0
LINE
8
1-0_REZ
10
7.360000
20
-6.520000
30
0.0
11
9.160000
21
-6.520000
31
0.0
0
LINE
8
1-0_REZ
10
-0.300000
20
-8.580000
30
0.0
11
0.100000
21
-8.580000
31
0.0
0
LINE
8
1-0_REZ
10
1.580000
20
-8.580000
30
0.0
11
2.160000
21
-8.580000
31
0.0
0
LINE
8
1-0_REZ
10
6.060000
20
-8.580000
30
0.0
11
6.500000
21
-8.580000
31
0.0
0
LINE
8
1-0_REZ
10
-2.200000
20
-5.180000
30
0.0
11
-1.600000
21
-5.180000
31
0.0
0
LINE
8
1-0_REZ
10
-4.460000
20
-1.780000
30
0.0
11
-3.660000
21
-1.780000
31
0.0
0
LINE
8
1-0_REZ
10
7.100000
20
6.420000
30
0.0
11
8.100000
21
6.420000
31
0.0
0
LINE
8
1-0_REZ
10
-4.480000
20
-2.520000
30
0.0
11
-3.700000
21
-2.520000
31
0.0
0
LINE
8
1-0_REZ
10
-5.360000
20
-0.860000
30
0.0
11
-4.720000
21
-0.860000
31
0.0
0
LINE
8
1-0_REZ
10
3.460000
20
-0.860000
30
0.0
11
4.100000
21
-0.860000
31
0.0
0
LINE
8
1-0_REZ
10
-10.160000
20
-11.860000
30
0.0
11
-8.100000
21
-11.860000
31
0.0
0
LINE
8
1-0_REZ
10
7.800000
20
6.320000
30
0.0
11
8.280000
21
6.320000
31
0.0
0
LINE
8
1-0_REZ
10
3.280000
20
-8.460000
30
0.0
11
3.920000
21
-8.460000
31
0.0
0
LINE
8
1-0_REZ
10
6.060000
20
-8.460000
30
0.0
11
6.500000
21
-8.460000
31
0.0
0
LINE
8
1-0_REZ
10
23.940000
20
11.060000
30
0.0
11
24.400000
21
11.060000
31
0.0
0
LINE
8
1-0_REZ
10
-5.860000
20
-5.800000
30
0.0
11
-5.480000
21
-5.800000
31
0.0
0
LINE
8
1-0_REZ
10
0.000000
20
0.660000
30
0.0
11
0.500000
21
0.660000
31
0.0
0
LINE
8
1-0_REZ
10
2.820000
20
5.100000
30
0.0
11
3.340000
21
5.100000
31
0.0
0
LINE
8
1-0_REZ
10
10.620000
20
5.100000
30
0.0
11
11.260000
21
5.100000
31
0.0
0
LINE
8
1-0_REZ
10
23.720000
20
5.100000
30
0.0
11
24.340000
21
5.100000
31
0.0
0
LINE
8
1-0_REZ
10
-11.920000
20
-8.260000
30
0.0
11
-11.500000
21
-8.260000
31
0.0
0
LINE
8
1-0_REZ
10
-5.600000
20
-8.260000
30
0.0
11
-5.200000
21
-8.260000
31
0.0
0
LINE
8
1-0_REZ
10
6.040000
20
-8.260000
30
0.0
11
6.500000
21
-8.260000
31
0.0
0
LINE
8
1-0_REZ
10
-1.660000
20
-5.280000
30
0.0
11
-1.100000
21
-5.280000
31
0.0
0
LINE
8
1-0_REZ
10
-12.180000
20
-8.340000
30
0.0
11
-11.700000
21
-8.340000
31
0.0
0
LINE
8
1-0_REZ
10
0.120000
20
-8.340000
30
0.0
11
0.760000
21
-8.340000
31
0.0
0
LINE
8
1-0_REZ
10
6.040000
20
-8.340000
30
0.0
11
6.500000
21
-8.340000
31
0.0
0
LINE
8
1-0_REZ
10
2.420000
20
-1.460000
30
0.0
11
3.160000
21
-1.460000
31
0.0
0
LINE
8
1-0_REZ
10
0.060000
20
-5.980000
30
0.0
11
0.440000
21
-5.980000
31
0.0
0
LINE
8
1-0_REZ
10
0.740000
20
-5.980000
30
0.0
11
1.180000
21
-5.980000
31
0.0
0
LINE
8
1-0_REZ
10
-16.560000
20
-12.260000
30
0.0
11
-16.120000
21
-12.260000
31
0.0
0
LINE
8
1-0_REZ
10
-13.880000
20
-12.260000
30
0.0
11
-13.080000
21
-12.260000
31
0.0
0
LINE
8
1-0_REZ
10
-12.040000
20
-8.040000
30
0.0
11
-11.520000
21
-8.040000
31
0.0
0
LINE
8
1-0_REZ
10
-7.160000
20
-8.040000
30
0.0
11
-6.040000
21
-8.040000
31
0.0
0
LINE
8
1-0_REZ
10
6.100000
20
-8.040000
30
0.0
11
6.500000
21
-8.040000
31
0.0
0
LINE
8
1-0_REZ
10
3.040000
20
4.280000
30
0.0
11
6.240000
21
4.280000
31
0.0
0
LINE
8
1-0_REZ
10
7.600000
20
4.280000
30
0.0
11
8.040000
21
4.280000
31
0.0
0
LINE
8
1-0_REZ
10
-3.240000
20
-6.100000
30
0.0
11
-2.700000
21
-6.100000
31
0.0
0
LINE
8
1-0_REZ
10
7.540000
20
-1.680000
30
0.0
11
8.000000
21
-1.680000
31
0.0
0
LINE
8
1-0_REZ
10
12.820000
20
13.420000
30
0.0
11
13.720000
21
13.420000
31
0.0
0
LINE
8
1-0_REZ
10
-12.640000
20
-6.200000
30
0.0
11
-12.180000
21
-6.200000
31
0.0
0
LINE
8
1-0_REZ
10
-5.460000
20
-6.200000
30
0.0
11
-5.060000
21
-6.200000
31
0.0
0
LINE
8
1-0_REZ
10
-1.060000
20
-6.200000
30
0.0
11
-0.420000
21
-6.200000
31
0.0
0
LINE
8
1-0_REZ
10
9.040000
20
-6.200000
30
0.0
11
9.680000
21
-6.200000
31
0.0
0
LINE
8
1-0_REZ
10
10.860000
20
-8.660000
30
0.0
11
12.520000
21
-8.660000
31
0.0
0
LINE
8
1-0_REZ
10
-4.840000
20
-1.040000
30
0.0
11
-4.240000
21
-1.040000
31
0.0
0
LINE
8
1-0_REZ
10
7.180000
20
-1.040000
30
0.0
11
7.640000
21
-1.040000
31
0.0
0
LINE
8
1-0_REZ
10
-2.220000
20
-4.860000
30
0.0
11
-1.760000
21
-4.860000
31
0.0
0
LINE
8
1-0_REZ
10
-4.480000
20
-2.500000
30
0.0
11
-3.700000
21
-2.500000
31
0.0
0
LINE
8
1-0_REZ
10
8.740000
20
-13.260000
30
0.0
11
9.640000
21
-13.260000
31
0.0
0
LINE
8
1-0_REZ
10
10.640000
20
-13.260000
30
0.0
11
12.740000
21
-13.260000
31
0.0
0
LINE
8
1-0_REZ
10
13.580000
20
-13.260000
30
0.0
11
19.380000
21
-13.260000
31
0.0
0
LINE
8
1-0_REZ
10
1.300000
20
3.160000
30
0.0
11
3.360000
21
3.160000
31
0.0
0
LINE
8
1-0_REZ
10
3.480000
20
3.160000
30
0.0
11
4.320000
21
3.160000
31
0.0
0
LINE
8
1-0_REZ
10
5.020000
20
3.160000
30
0.0
11
6.560000
21
3.160000
31
0.0
0
LINE
8
1-0_REZ
10
3.880000
20
2.440000
30
0.0
11
5.540000
21
2.440000
31
0.0
0
LINE
8
1-0_REZ
10
-7.920000
20
-2.400000
30
0.0
11
-7.260000
21
-2.400000
31
0.0
0
LINE
8
1-0_REZ
10
-5.920000
20
-5.880000
30
0.0
11
-5.480000
21
-5.880000
31
0.0
0
LINE
8
1-0_REZ
10
-4.400000
20
-5.880000
30
0.0
11
-3.840000
21
-5.880000
31
0.0
0
LINE
8
1-0_REZ
10
-3.180000
20
-5.880000
30
0.0
11
-2.640000
21
-5.880000
31
0.0
0
LINE
8
1-0_REZ
10
-9.320000
20
-7.920000
30
0.0
11
-8.660000
21
-7.920000
31
0.0
0
LINE
8
1-0_REZ
10
-6.840000
20
-7.920000
30
0.0
11
-6.340000
21
-7.920000
31
0.0
0
LINE
8
1-0_REZ
10
-6.240000
20
-7.920000
30
0.0
11
-5.800000
21
-7.920000
31
0.0
0
LINE
8
1-0_REZ
10
-14.960000
20
-12.740000
30
0.0
11
-14.200000
21
-12.740000
31
0.0
0
LINE
8
1-0_REZ
10
-11.100000
20
-12.740000
30
0.0
11
-10.640000
21
-12.740000
31
0.0
0
LINE
8
1-0_REZ
10
4.220000
20
-12.740000
30
0.0
11
4.620000
21
-12.740000
31
0.0
0
LINE
8
1-0_REZ
10
5.920000
20
-12.740000
30
0.0
11
6.740000
21
-12.740000
31
0.0
0
LINE
8
1-0_REZ
10
8.580000
20
-13.280000
30
0.0
11
9.640000
21
-13.280000
31
0.0
0
LINE
8
1-0_REZ
10
11.500000
20
-13.280000
30
0.0
11
15.220000
21
-13.280000
31
0.0
0
LINE
8
1-0_REZ
10
8.720000
20
4.600000
30
0.0
11
9.180000
21
4.600000
31
0.0
0
LINE
8
1-0_REZ
10
-14.740000
20
-12.660000
30
0.0
11
-14.180000
21
-12.660000
31
0.0
0
LINE
8
1-0_REZ
10
-7.900000
20
-12.660000
30
0.0
11
-7.520000
21
-12.660000
31
0.0
0
LINE
8
1-0_REZ
10
-5.820000
20
-12.660000
30
0.0
11
-4.860000
21
-12.660000
31
0.0
0
LINE
8
1-0_REZ
10
-3.060000
20
-12.660000
30
0.0
11
-2.480000
21
-12.660000
31
0.0
0
LINE
8
1-0_REZ
10
-2.400000
20
-12.660000
30
0.0
11
-2.020000
21
-12.660000
31
0.0
0
LINE
8
1-0_REZ
10
5.820000
20
-12.660000
30
0.0
11
6.660000
21
-12.660000
31
0.0
0
LINE
8
1-0_REZ
10
-7.180000
20
-8.940000
30
0.0
11
-6.420000
21
-8.940000
31
0.0
0
LINE
8
1-0_REZ
10
-0.540000
20
-8.940000
30
0.0
11
0.100000
21
-8.940000
31
0.0
0
LINE
8
1-0_REZ
10
8.460000
20
7.180000
30
0.0
11
9.300000
21
7.180000
31
0.0
0
LINE
8
1-0_REZ
10
0.740000
20
-2.900000
30
0.0
11
1.180000
21
-2.900000
31
0.0
0
LINE
8
1-0_REZ
10
8.540000
20
-2.900000
30
0.0
11
9.180000
21
-2.900000
31
0.0
0
LINE
8
1-0_REZ
10
9.260000
20
-2.900000
30
0.0
11
9.700000
21
-2.900000
31
0.0
0
LINE
8
1-0_REZ
10
23.700000
20
-2.900000
30
0.0
11
24.220000
21
-2.900000
31
0.0
0
LINE
8
1-0_REZ
10
-5.840000
20
-5.560000
30
0.0
11
-5.460000
21
-5.560000
31
0.0
0
LINE
8
1-0_REZ
10
3.760000
20
-5.560000
30
0.0
11
4.320000
21
-5.560000
31
0.0
0
LINE
8
1-0_REZ
10
-12.080000
20
-12.440000
30
0.0
11
-11.480000
21
-12.440000
31
0.0
0
LINE
8
1-0_REZ
10
11.220000
20
-12.440000
30
0.0
11
12.000000
21
-12.440000
31
0.0
0
LINE
8
1-0_REZ
10
-12.180000
20
-8.020000
30
0.0
11
-11.520000
21
-8.020000
31
0.0
0
LINE
8
1-0_REZ
10
-6.480000
20
-8.020000
30
0.0
11
-6.060000
21
-8.020000
31
0.0
0
LINE
8
1-0_REZ
10
8.100000
20
-3.600000
30
0.0
11
9.680000
21
-3.600000
31
0.0
0
LINE
8
1-0_REZ
10
13.140000
20
-6.060000
30
0.0
11
14.000000
21
-6.060000
31
0.0
0
LINE
8
1-0_REZ
10
-2.420000
20
-11.200000
30
0.0
11
-2.000000
21
-11.200000
31
0.0
0
LINE
8
1-0_REZ
10
9.680000
20
-6.800000
30
0.0
11
10.700000
21
-6.800000
31
0.0
0
LINE
8
1-0_REZ
10
-0.640000
20
-1.960000
30
0.0
11
0.380000
21
-1.960000
31
0.0
0
LINE
8
1-0_REZ
10
6.780000
20
4.820000
30
0.0
11
7.860000
21
4.820000
31
0.0
0
LINE
8
1-0_REZ
10
-5.100000
20
-3.080000
30
0.0
11
-4.240000
21
-3.080000
31
0.0
0
LINE
8
1-0_REZ
10
0.560000
20
-3.080000
30
0.0
11
1.020000
21
-3.080000
31
0.0
0
LINE
8
1-0_REZ
10
8.560000
20
-3.080000
30
0.0
11
9.160000
21
-3.080000
31
0.0
0
LINE
8
1-0_REZ
10
9.240000
20
-3.080000
30
0.0
11
9.620000
21
-3.080000
31
0.0
0
LINE
8
1-0_REZ
10
-2.820000
20
-6.580000
30
0.0
11
-1.800000
21
-6.580000
31
0.0
0
LINE
8
1-0_REZ
10
1.060000
20
-6.580000
30
0.0
11
1.440000
21
-6.580000
31
0.0
0
LINE
8
1-0_REZ
10
3.000000
20
-6.580000
30
0.0
11
3.600000
21
-6.580000
31
0.0
0
LINE
8
1-0_REZ
10
-12.680000
20
-7.600000
30
0.0
11
-12.260000
21
-7.600000
31
0.0
0
LINE
8
1-0_REZ
10
-4.100000
20
-11.080000
30
0.0
11
-3.100000
21
-11.080000
31
0.0
0
LINE
8
1-0_REZ
10
-9.720000
20
-9.140000
30
0.0
11
-9.220000
21
-9.140000
31
0.0
0
LINE
8
1-0_REZ
10
3.940000
20
2.560000
30
0.0
11
5.720000
21
2.560000
31
0.0
0
LINE
8
1-0_REZ
10
3.780000
20
2.580000
30
0.0
11
5.700000
21
2.580000
31
0.0
0
LINE
8
1-0_REZ
10
-16.560000
20
-12.240000
30
0.0
11
-16.180000
21
-12.240000
31
0.0
0
LINE
8
1-0_REZ
10
-13.800000
20
-12.240000
30
0.0
11
-12.260000
21
-12.240000
31
0.0
0
LINE
8
1-0_REZ
10
9.080000
20
0.100000
30
0.0
11
9.720000
21
0.100000
31
0.0
0
LINE
8
1-0_REZ
10
1.460000
20
-9.860000
30
0.0
11
1.940000
21
-9.860000
31
0.0
0
LINE
8
1-0_REZ
10
3.540000
20
-9.860000
30
0.0
11
4.080000
21
-9.860000
31
0.0
0
LINE
8
1-0_REZ
10
1.860000
20
3.900000
30
0.0
11
3.080000
21
3.900000
31
0.0
0
LINE
8
1-0_REZ
10
0.420000
20
5.240000
30
0.0
11
1.520000
21
5.240000
31
0.0
0
LINE
8
1-0_REZ
10
-16.560000
20
-12.320000
30
0.0
11
-16.020000
21
-12.320000
31
0.0
0
LINE
8
1-0_REZ
10
-0.800000
20
-12.320000
30
0.0
11
-0.380000
21
-12.320000
31
0.0
0
LINE
8
1-0_REZ
10
10.940000
20
-12.320000
30
0.0
11
11.620000
21
-12.320000
31
0.0
0
LINE
8
1-0_REZ
10
-7.280000
20
-1.140000
30
0.0
11
-6.800000
21
-1.140000
31
0.0
0
LINE
8
1-0_REZ
10
-1.760000
20
-9.040000
30
0.0
11
-1.320000
21
-9.040000
31
0.0
0
LINE
8
1-0_REZ
10
23.820000
20
6.080000
30
0.0
11
24.360000
21
6.080000
31
0.0
0
LINE
8
1-0_REZ
10
1.800000
20
4.020000
30
0.0
11
3.100000
21
4.020000
31
0.0
0
LINE
8
1-0_REZ
10
8.420000
20
0.220000
30
0.0
11
9.240000
21
0.220000
31
0.0
0
LINE
8
1-0_REZ
10
-0.200000
20
-5.340000
30
0.0
11
0.280000
21
-5.340000
31
0.0
0
LINE
8
1-0_REZ
10
-1.220000
20
-1.940000
30
0.0
11
-0.020000
21
-1.940000
31
0.0
0
LINE
8
1-0_REZ
10
3.460000
20
2.880000
30
0.0
11
5.300000
21
2.880000
31
0.0
0
LINE
8
1-0_REZ
10
-16.860000
20
-11.000000
30
0.0
11
-15.940000
21
-11.000000
31
0.0
0
LINE
8
1-0_REZ
10
-4.060000
20
-11.000000
30
0.0
11
-3.120000
21
-11.000000
31
0.0
0
LINE
8
1-0_REZ
10
-13.920000
20
-10.360000
30
0.0
11
-13.440000
21
-10.360000
31
0.0
0
LINE
8
1-0_REZ
10
8.260000
20
7.200000
30
0.0
11
9.160000
21
7.200000
31
0.0
0
LINE
8
1-0_REZ
10
6.740000
20
-13.440000
30
0.0
11
8.840000
21
-13.440000
31
0.0
0
LINE
8
1-0_REZ
10
-3.020000
20
-6.560000
30
0.0
11
-1.780000
21
-6.560000
31
0.0
0
LINE
8
1-0_REZ
10
1.040000
20
-6.560000
30
0.0
11
1.420000
21
-6.560000
31
0.0
0
LINE
8
1-0_REZ
10
3.000000
20
-6.560000
30
0.0
11
3.620000
21
-6.560000
31
0.0
0
LINE
8
1-0_REZ
10
1.780000
20
4.120000
30
0.0
11
2.640000
21
4.120000
31
0.0
0
LINE
8
1-0_REZ
10
1.840000
20
5.140000
30
0.0
11
2.560000
21
5.140000
31
0.0
0
LINE
8
1-0_REZ
10
-1.120000
20
-9.020000
30
0.0
11
-0.740000
21
-9.020000
31
0.0
0
LINE
8
1-0_REZ
10
-2.200000
20
-5.220000
30
0.0
11
-1.600000
21
-5.220000
31
0.0
0
LINE
8
1-0_REZ
10
0.520000
20
-3.180000
30
0.0
11
0.980000
21
-3.180000
31
0.0
0
LINE
8
1-0_REZ
10
7.420000
20
-3.180000
30
0.0
11
7.860000
21
-3.180000
31
0.0
0
LINE
8
1-0_REZ
10
8.460000
20
-3.180000
30
0.0
11
9.260000
21
-3.180000
31
0.0
0
LINE
8
1-0_REZ
10
4.040000
20
3.000000
30
0.0
11
4.980000
21
3.000000
31
0.0
0
LINE
8
1-0_REZ
10
-6.200000
20
-0.820000
30
0.0
11
-5.680000
21
-0.820000
31
0.0
0
LINE
8
1-0_REZ
10
-2.800000
20
-6.660000
30
0.0
11
-2.360000
21
-6.660000
31
0.0
0
LINE
8
1-0_REZ
10
-2.140000
20
-6.660000
30
0.0
11
-1.400000
21
-6.660000
31
0.0
0
LINE
8
1-0_REZ
10
3.280000
20
-6.660000
30
0.0
11
3.960000
21
-6.660000
31
0.0
0
LINE
8
1-0_REZ
10
11.920000
20
16.340000
30
0.0
11
12.480000
21
16.340000
31
0.0
0
LINE
8
1-0_REZ
10
12.780000
20
16.340000
30
0.0
11
14.780000
21
16.340000
31
0.0
0
LINE
8
1-0_REZ
10
7.280000
20
6.380000
30
0.0
11
8.380000
21
6.380000
31
0.0
0
LINE
8
1-0_REZ
10
5.300000
20
4.940000
30
0.0
11
5.780000
21
4.940000
31
0.0
0
LINE
8
1-0_REZ
10
6.960000
20
7.300000
30
0.0
11
7.960000
21
7.300000
31
0.0
0
LINE
8
1-0_REZ
10
10.340000
20
7.300000
30
0.0
11
10.820000
21
7.300000
31
0.0
0
LINE
8
1-0_REZ
10
-5.180000
20
-3.060000
30
0.0
11
-4.220000
21
-3.060000
31
0.0
0
LINE
8
1-0_REZ
10
0.560000
20
-3.060000
30
0.0
11
1.060000
21
-3.060000
31
0.0
0
LINE
8
1-0_REZ
10
8.560000
20
-3.060000
30
0.0
11
9.180000
21
-3.060000
31
0.0
0
LINE
8
1-0_REZ
10
7.080000
20
6.500000
30
0.0
11
7.600000
21
6.500000
31
0.0
0
LINE
8
1-0_REZ
10
0.520000
20
-3.160000
30
0.0
11
0.960000
21
-3.160000
31
0.0
0
LINE
8
1-0_REZ
10
6.980000
20
-3.160000
30
0.0
11
7.480000
21
-3.160000
31
0.0
0
LINE
8
1-0_REZ
10
8.580000
20
-3.160000
30
0.0
11
9.280000
21
-3.160000
31
0.0
0
LINE
8
1-0_REZ
10
0.440000
20
0.640000
30
0.0
11
1.060000
21
0.640000
31
0.0
0
LINE
8
1-0_REZ
10
-11.480000
20
-6.260000
30
0.0
11
-10.720000
21
-6.260000
31
0.0
0
LINE
8
1-0_REZ
10
-3.980000
20
-6.260000
30
0.0
11
-3.380000
21
-6.260000
31
0.0
0
LINE
8
1-0_REZ
10
11.700000
20
11.920000
30
0.0
11
13.600000
21
11.920000
31
0.0
0
LINE
8
1-0_REZ
10
11.700000
20
11.940000
30
0.0
11
13.080000
21
11.940000
31
0.0
0
LINE
8
1-0_REZ
10
-8.500000
20
-10.760000
30
0.0
11
-7.980000
21
-10.760000
31
0.0
0
LINE
8
1-0_REZ
10
1.420000
20
-2.860000
30
0.0
11
1.840000
21
-2.860000
31
0.0
0
LINE
8
1-0_REZ
10
8.540000
20
-2.860000
30
0.0
11
9.080000
21
-2.860000
31
0.0
0
LINE
8
1-0_REZ
10
9.160000
20
-2.860000
30
0.0
11
9.560000
21
-2.860000
31
0.0
0
LINE
8
1-0_REZ
10
-9.700000
20
-9.120000
30
0.0
11
-9.280000
21
-9.120000
31
0.0
0
LINE
8
1-0_REZ
10
-2.220000
20
-5.020000
30
0.0
11
-1.800000
21
-5.020000
31
0.0
0
LINE
8
1-0_REZ
10
-1.400000
20
-4.080000
30
0.0
11
-0.980000
21
-4.080000
31
0.0
0
LINE
8
1-0_REZ
10
7.180000
20
-13.420000
30
0.0
11
8.900000
21
-13.420000
31
0.0
0
LINE
8
1-0_REZ
10
9.100000
20
-13.420000
30
0.0
11
9.620000
21
-13.420000
31
0.0
0
LINE
8
1-0_REZ
10
1.000000
20
3.420000
30
0.0
11
1.500000
21
3.420000
31
0.0
0
LINE
8
1-0_REZ
10
-2.200000
20
-5.000000
30
0.0
11
-1.760000
21
-5.000000
31
0.0
0
LINE
8
1-0_REZ
10
-6.440000
20
-4.700000
30
0.0
11
-5.940000
21
-4.700000
31
0.0
0
LINE
8
1-0_REZ
10
6.000000
20
5.600000
30
0.0
11
6.760000
21
5.600000
31
0.0
0
LINE
8
1-0_REZ
10
-16.100000
20
-12.380000
30
0.0
11
-15.460000
21
-12.380000
31
0.0
0
LINE
8
1-0_REZ
10
10.700000
20
4.440000
30
0.0
11
11.200000
21
4.440000
31
0.0
0
LINE
8
1-0_REZ
10
-14.980000
20
-12.800000
30
0.0
11
-14.180000
21
-12.800000
31
0.0
0
LINE
8
1-0_REZ
10
5.220000
20
-12.800000
30
0.0
11
5.960000
21
-12.800000
31
0.0
0
LINE
8
1-0_REZ
10
9.460000
20
-12.800000
30
0.0
11
10.400000
21
-12.800000
31
0.0
0
LINE
8
1-0_REZ
10
-0.160000
20
5.360000
30
0.0
11
0.320000
21
5.360000
31
0.0
0
LINE
8
1-0_REZ
10
-5.120000
20
-2.940000
30
0.0
11
-4.640000
21
-2.940000
31
0.0
0
LINE
8
1-0_REZ
10
0.720000
20
-2.940000
30
0.0
11
1.180000
21
-2.940000
31
0.0
0
LINE
8
1-0_REZ
10
8.540000
20
-2.940000
30
0.0
11
9.700000
21
-2.940000
31
0.0
0
LINE
8
1-0_REZ
10
-12.000000
20
-8.080000
30
0.0
11
-11.520000
21
-8.080000
31
0.0
0
LINE
8
1-0_REZ
10
-6.200000
20
-8.080000
30
0.0
11
-5.740000
21
-8.080000
31
0.0
0
LINE
8
1-0_REZ
10
6.080000
20
-8.080000
30
0.0
11
6.500000
21
-8.080000
31
0.0
0
LINE
8
1-0_REZ
10
22.960000
20
-13.000000
30
0.0
11
23.340000
21
-13.000000
31
0.0
0
LINE
8
1-0_REZ
10
4.480000
20
-4.780000
30
0.0
11
4.880000
21
-4.780000
31
0.0
0
LINE
8
1-0_REZ
10
2.700000
20
-1.480000
30
0.0
11
3.260000
21
-1.480000
31
0.0
0
LINE
8
1-0_REZ
10
-12.680000
20
-7.340000
30
0.0
11
-12.260000
21
-7.340000
31
0.0
0
LINE
8
1-0_REZ
10
-12.080000
20
-8.060000
30
0.0
11
-11.520000
21
-8.060000
31
0.0
0
LINE
8
1-0_REZ
10
-6.860000
20
-8.060000
30
0.0
11
-6.020000
21
-8.060000
31
0.0
0
LINE
8
1-0_REZ
10
6.080000
20
-8.060000
30
0.0
11
6.500000
21
-8.060000
31
0.0
0
LINE
8
1-0_REZ
10
8.400000
20
-13.300000
30
0.0
11
9.640000
21
-13.300000
31
0.0
0
LINE
8
1-0_REZ
10
13.500000
20
-13.300000
30
0.0
11
13.980000
21
-13.300000
31
0.0
0
LINE
8
1-0_REZ
10
14.240000
20
-13.300000
30
0.0
11
15.080000
21
-13.300000
31
0.0
0
LINE
8
1-0_REZ
10
-12.960000
20
-7.740000
30
0.0
11
-12.580000
21
-7.740000
31
0.0
0
LINE
8
1-0_REZ
10
-6.980000
20
-7.740000
30
0.0
11
-5.700000
21
-7.740000
31
0.0
0
LINE
8
1-0_REZ
10
9.240000
20
4.480000
30
0.0
11
9.720000
21
4.480000
31
0.0
0
LINE
8
1-0_REZ
10
12.980000
20
-3.520000
30
0.0
11
13.960000
21
-3.520000
31
0.0
0
LINE
8
1-0_REZ
10
23.480000
20
8.080000
30
0.0
11
24.360000
21
8.080000
31
0.0
0
LINE
8
1-0_REZ
10
-9.700000
20
-9.200000
30
0.0
11
-9.160000
21
-9.200000
31
0.0
0
LINE
8
1-0_REZ
10
-2.820000
20
-6.920000
30
0.0
11
-2.340000
21
-6.920000
31
0.0
0
LINE
8
1-0_REZ
10
0.640000
20
-8.360000
30
0.0
11
1.420000
21
-8.360000
31
0.0
0
LINE
8
1-0_REZ
10
1.820000
20
-8.360000
30
0.0
11
2.320000
21
-8.360000
31
0.0
0
LINE
8
1-0_REZ
10
6.040000
20
-8.360000
30
0.0
11
6.500000
21
-8.360000
31
0.0
0
LINE
8
1-0_REZ
10
1.100000
20
-6.000000
30
0.0
11
2.040000
21
-6.000000
31
0.0
0
LINE
8
1-0_REZ
10
-2.820000
20
-6.300000
30
0.0
11
-2.140000
21
-6.300000
31
0.0
0
LINE
8
1-0_REZ
10
-2.780000
20
-6.700000
30
0.0
11
-2.320000
21
-6.700000
31
0.0
0
LINE
8
1-0_REZ
10
-1.640000
20
-6.700000
30
0.0
11
-1.080000
21
-6.700000
31
0.0
0
LINE
8
1-0_REZ
10
3.620000
20
-6.700000
30
0.0
11
4.500000
21
-6.700000
31
0.0
0
LINE
8
1-0_REZ
10
7.620000
20
3.560000
30
0.0
11
8.080000
21
3.560000
31
0.0
0
LINE
8
1-0_REZ
10
1.320000
20
-9.280000
30
0.0
11
1.700000
21
-9.280000
31
0.0
0
LINE
8
1-0_REZ
10
-15.520000
20
-12.360000
30
0.0
11
-15.020000
21
-12.360000
31
0.0
0
LINE
8
1-0_REZ
10
-0.540000
20
-12.360000
30
0.0
11
-0.060000
21
-12.360000
31
0.0
0
LINE
8
1-0_REZ
10
0.520000
20
-3.200000
30
0.0
11
1.000000
21
-3.200000
31
0.0
0
LINE
8
1-0_REZ
10
7.820000
20
-3.200000
30
0.0
11
9.380000
21
-3.200000
31
0.0
0
LINE
8
1-0_REZ
10
23.520000
20
15.080000
30
0.0
11
24.240000
21
15.080000
31
0.0
0
LINE
8
1-0_REZ
10
-5.780000
20
-0.840000
30
0.0
11
-5.260000
21
-0.840000
31
0.0
0
LINE
8
1-0_REZ
10
16.520000
20
16.300000
30
0.0
11
18.540000
21
16.300000
31
0.0
0
LINE
8
1-0_REZ
10
7.040000
20
6.260000
30
0.0
11
7.680000
21
6.260000
31
0.0
0
LINE
8
1-0_REZ
10
1.300000
20
4.200000
30
0.0
11
1.880000
21
4.200000
31
0.0
0
LINE
8
1-0_REZ
10
-2.200000
20
-5.160000
30
0.0
11
-1.800000
21
-5.160000
31
0.0
0
LINE
8
1-0_REZ
10
6.740000
20
-13.460000
30
0.0
11
7.160000
21
-13.460000
31
0.0
0
LINE
8
1-0_REZ
10
7.860000
20
6.460000
30
0.0
11
8.240000
21
6.460000
31
0.0
0
LINE
8
1-0_REZ
10
-17.120000
20
-10.080000
30
0.0
11
-16.660000
21
-10.080000
31
0.0
0
LINE
8
1-0_REZ
10
-7.800000
20
-10.080000
30
0.0
11
-7.400000
21
-10.080000
31
0.0
0
LINE
8
1-0_REZ
10
1.600000
20
-10.080000
30
0.0
11
1.980000
21
-10.080000
31
0.0
0
LINE
8
1-0_REZ
10
-2.580000
20
-7.000000
30
0.0
11
-2.060000
21
-7.000000
31
0.0
0
LINE
8
1-0_REZ
10
-1.940000
20
-1.860000
30
0.0
11
-1.240000
21
-1.860000
31
0.0
0
LINE
8
1-0_REZ
10
-7.620000
20
-6.380000
30
0.0
11
-7.060000
21
-6.380000
31
0.0
0
LINE
8
1-0_REZ
10
-2.780000
20
-6.380000
30
0.0
11
-2.400000
21
-6.380000
31
0.0
0
LINE
8
1-0_REZ
10
-0.700000
20
-6.380000
30
0.0
11
-0.080000
21
-6.380000
31
0.0
0
LINE
8
1-0_REZ
10
3.040000
20
-6.380000
30
0.0
11
3.580000
21
-6.380000
31
0.0
0
LINE
8
1-0_REZ
10
-2.220000
20
-5.040000
30
0.0
11
-1.800000
21
-5.040000
31
0.0
0
LINE
8
1-0_REZ
10
0.700000
20
5.220000
30
0.0
11
1.660000
21
5.220000
31
0.0
0
LINE
8
1-0_REZ
10
-0.840000
20
0.700000
30
0.0
11
-0.300000
21
0.700000
31
0.0
0
LINE
8
1-0_REZ
10
-0.200000
20
0.700000
30
0.0
11
0.400000
21
0.700000
31
0.0
0
LINE
8
1-0_REZ
10
-11.940000
20
-8.240000
30
0.0
11
-11.500000
21
-8.240000
31
0.0
0
LINE
8
1-0_REZ
10
-6.200000
20
-8.240000
30
0.0
11
-5.560000
21
-8.240000
31
0.0
0
LINE
8
1-0_REZ
10
6.040000
20
-8.240000
30
0.0
11
6.500000
21
-8.240000
31
0.0
0
LINE
8
1-0_REZ
10
13.020000
20
8.840000
30
0.0
11
14.000000
21
8.840000
31
0.0
0
LINE
8
1-0_REZ
10
11.700000
20
11.900000
30
0.0
11
13.380000
21
11.900000
31
0.0
0
LINE
8
1-0_REZ
10
3.860000
20
5.020000
30
0.0
11
4.600000
21
5.020000
31
0.0
0
LINE
8
1-0_REZ
10
10.620000
20
5.020000
30
0.0
11
11.280000
21
5.020000
31
0.0
0
LINE
8
1-0_REZ
10
5.900000
20
7.380000
30
0.0
11
6.880000
21
7.380000
31
0.0
0
LINE
8
1-0_REZ
10
8.140000
20
7.380000
30
0.0
11
8.580000
21
7.380000
31
0.0
0
LINE
8
1-0_REZ
10
5.480000
20
4.920000
30
0.0
11
6.120000
21
4.920000
31
0.0
0
LINE
8
1-0_REZ
10
-1.580000
20
-6.180000
30
0.0
11
-1.020000
21
-6.180000
31
0.0
0
LINE
8
1-0_REZ
10
-0.940000
20
-6.180000
30
0.0
11
-0.380000
21
-6.180000
31
0.0
0
LINE
8
1-0_REZ
10
6.500000
20
-6.180000
30
0.0
11
9.200000
21
-6.180000
31
0.0
0
LINE
8
1-0_REZ
10
-13.920000
20
-10.380000
30
0.0
11
-13.500000
21
-10.380000
31
0.0
0
LINE
8
1-0_REZ
10
6.160000
20
-3.780000
30
0.0
11
6.780000
21
-3.780000
31
0.0
0
LINE
8
1-0_REZ
10
-2.640000
20
-6.980000
30
0.0
11
-2.140000
21
-6.980000
31
0.0
0
LINE
8
1-0_REZ
10
-9.660000
20
-11.900000
30
0.0
11
-9.260000
21
-11.900000
31
0.0
0
LINE
8
1-0_REZ
10
-9.120000
20
-11.900000
30
0.0
11
-8.600000
21
-11.900000
31
0.0
0
LINE
8
1-0_REZ
10
1.460000
20
-9.840000
30
0.0
11
2.220000
21
-9.840000
31
0.0
0
LINE
8
1-0_REZ
10
3.240000
20
-9.840000
30
0.0
11
3.680000
21
-9.840000
31
0.0
0
LINE
8
1-0_REZ
10
-2.100000
20
-6.160000
30
0.0
11
-1.460000
21
-6.160000
31
0.0
0
LINE
8
1-0_REZ
10
8.160000
20
-6.160000
30
0.0
11
8.780000
21
-6.160000
31
0.0
0
LINE
8
1-0_REZ
10
-12.200000
20
-8.320000
30
0.0
11
-11.640000
21
-8.320000
31
0.0
0
LINE
8
1-0_REZ
10
-0.400000
20
-8.320000
30
0.0
11
0.280000
21
-8.320000
31
0.0
0
LINE
8
1-0_REZ
10
0.740000
20
-2.880000
30
0.0
11
1.180000
21
-2.880000
31
0.0
0
LINE
8
1-0_REZ
10
8.540000
20
-2.880000
30
0.0
11
9.700000
21
-2.880000
31
0.0
0
LINE
8
1-0_REZ
10
-4.380000
20
-2.560000
30
0.0
11
-3.700000
21
-2.560000
31
0.0
0
LINE
8
1-0_REZ
10
8.400000
20
-13.340000
30
0.0
11
9.320000
21
-13.340000
31
0.0
0
LINE
8
1-0_REZ
10
-12.680000
20
-7.280000
30
0.0
11
-12.260000
21
-7.280000
31
0.0
0
LINE
8
1-0_REZ
10
10.260000
20
6.800000
30
0.0
11
10.660000
21
6.800000
31
0.0
0
LINE
8
1-0_REZ
10
-7.680000
20
-1.120000
30
0.0
11
-7.140000
21
-1.120000
31
0.0
0
LINE
8
1-0_REZ
10
-5.020000
20
-2.540000
30
0.0
11
-3.700000
21
-2.540000
31
0.0
0
LINE
8
1-0_REZ
10
12.920000
20
-6.040000
30
0.0
11
13.540000
21
-6.040000
31
0.0
0
LINE
8
1-0_REZ
10
1.760000
20
-12.920000
30
0.0
11
2.680000
21
-12.920000
31
0.0
0
LINE
8
1-0_REZ
10
7.560000
20
3.520000
30
0.0
11
8.060000
21
3.520000
31
0.0
0
LINE
8
1-0_REZ
10
20.840000
20
13.800000
30
0.0
11
21.280000
21
13.800000
31
0.0
0
LINE
8
1-0_REZ
10
-17.140000
20
-10.040000
30
0.0
11
-16.400000
21
-10.040000
31
0.0
0
LINE
8
1-0_REZ
10
-7.780000
20
-10.040000
30
0.0
11
-7.300000
21
-10.040000
31
0.0
0
LINE
8
1-0_REZ
10
1.560000
20
-10.040000
30
0.0
11
2.000000
21
-10.040000
31
0.0
0
LINE
8
1-0_REZ
10
6.000000
20
5.580000
30
0.0
11
6.760000
21
5.580000
31
0.0
0
LINE
8
1-0_REZ
10
-17.060000
20
-10.240000
30
0.0
11
-16.680000
21
-10.240000
31
0.0
0
LINE
8
1-0_REZ
10
0.880000
20
-6.860000
30
0.0
11
1.440000
21
-6.860000
31
0.0
0
LINE
8
1-0_REZ
10
-6.220000
20
-9.000000
30
0.0
11
-5.840000
21
-9.000000
31
0.0
0
LINE
8
1-0_REZ
10
-7.760000
20
-1.800000
30
0.0
11
-7.380000
21
-1.800000
31
0.0
0
LINE
8
1-0_REZ
10
-4.460000
20
-1.800000
30
0.0
11
-3.660000
21
-1.800000
31
0.0
0
LINE
8
1-0_REZ
10
-16.880000
20
-10.960000
30
0.0
11
-15.700000
21
-10.960000
31
0.0
0
LINE
8
1-0_REZ
10
-13.520000
20
-10.960000
30
0.0
11
-12.440000
21
-10.960000
31
0.0
0
LINE
8
1-0_REZ
10
-13.900000
20
-7.880000
30
0.0
11
-13.340000
21
-7.880000
31
0.0
0
LINE
8
1-0_REZ
10
-9.140000
20
-7.880000
30
0.0
11
-8.700000
21
-7.880000
31
0.0
0
LINE
8
1-0_REZ
10
-6.960000
20
-7.880000
30
0.0
11
-6.380000
21
-7.880000
31
0.0
0
LINE
8
1-0_REZ
10
-6.220000
20
-7.880000
30
0.0
11
-5.680000
21
-7.880000
31
0.0
0
LINE
8
1-0_REZ
10
-5.860000
20
-5.600000
30
0.0
11
-5.460000
21
-5.600000
31
0.0
0
LINE
8
1-0_REZ
10
-2.820000
20
-6.620000
30
0.0
11
-2.260000
21
-6.620000
31
0.0
0
LINE
8
1-0_REZ
10
1.020000
20
-6.620000
30
0.0
11
1.440000
21
-6.620000
31
0.0
0
LINE
8
1-0_REZ
10
3.100000
20
-6.620000
30
0.0
11
3.560000
21
-6.620000
31
0.0
0
LINE
8
1-0_REZ
10
13.460000
20
-6.620000
30
0.0
11
13.860000
21
-6.620000
31
0.0
0
LINE
8
1-0_REZ
10
-5.860000
20
-5.720000
30
0.0
11
-5.460000
21
-5.720000
31
0.0
0
LINE
8
1-0_REZ
10
-12.040000
20
-6.440000
30
0.0
11
-11.480000
21
-6.440000
31
0.0
0
LINE
8
1-0_REZ
10
-6.340000
20
-6.440000
30
0.0
11
-5.960000
21
-6.440000
31
0.0
0
LINE
8
1-0_REZ
10
-2.880000
20
-6.440000
30
0.0
11
-2.300000
21
-6.440000
31
0.0
0
LINE
8
1-0_REZ
10
-2.140000
20
-6.440000
30
0.0
11
-1.740000
21
-6.440000
31
0.0
0
LINE
8
1-0_REZ
10
0.660000
20
-6.440000
30
0.0
11
1.460000
21
-6.440000
31
0.0
0
LINE
8
1-0_REZ
10
-2.860000
20
-6.120000
30
0.0
11
-2.400000
21
-6.120000
31
0.0
0
LINE
8
1-0_REZ
10
0.520000
20
-3.140000
30
0.0
11
0.940000
21
-3.140000
31
0.0
0
LINE
8
1-0_REZ
10
6.560000
20
-3.140000
30
0.0
11
7.120000
21
-3.140000
31
0.0
0
LINE
8
1-0_REZ
10
8.580000
20
-3.140000
30
0.0
11
9.300000
21
-3.140000
31
0.0
0
LINE
8
1-0_REZ
10
12.980000
20
-3.140000
30
0.0
11
13.980000
21
-3.140000
31
0.0
0
LINE
8
1-0_REZ
10
8.960000
20
7.140000
30
0.0
11
9.400000
21
7.140000
31
0.0
0
LINE
8
1-0_REZ
10
1.800000
20
4.060000
30
0.0
11
3.080000
21
4.060000
31
0.0
0
LINE
8
1-0_REZ
10
11.720000
20
13.320000
30
0.0
11
12.520000
21
13.320000
31
0.0
0
LINE
8
1-0_REZ
10
5.280000
20
7.460000
30
0.0
11
5.960000
21
7.460000
31
0.0
0
LINE
8
1-0_REZ
10
1.820000
20
3.960000
30
0.0
11
3.120000
21
3.960000
31
0.0
0
LINE
8
1-0_REZ
10
-5.200000
20
-3.040000
30
0.0
11
-4.220000
21
-3.040000
31
0.0
0
LINE
8
1-0_REZ
10
0.580000
20
-3.040000
30
0.0
11
1.080000
21
-3.040000
31
0.0
0
LINE
8
1-0_REZ
10
8.520000
20
-3.040000
30
0.0
11
9.400000
21
-3.040000
31
0.0
0
LINE
8
1-0_REZ
10
-16.900000
20
-10.940000
30
0.0
11
-15.460000
21
-10.940000
31
0.0
0
LINE
8
1-0_REZ
10
1.220000
20
5.180000
30
0.0
11
1.720000
21
5.180000
31
0.0
0
LINE
8
1-0_REZ
10
3.180000
20
3.040000
30
0.0
11
4.980000
21
3.040000
31
0.0
0
LINE
8
1-0_REZ
10
7.140000
20
6.440000
30
0.0
11
7.620000
21
6.440000
31
0.0
0
LINE
8
1-0_REZ
10
9.900000
20
-2.700000
30
0.0
11
10.400000
21
-2.700000
31
0.0
0
LINE
8
1-0_REZ
10
10.920000
20
-12.460000
30
0.0
11
11.320000
21
-12.460000
31
0.0
0
LINE
8
1-0_REZ
10
-13.200000
20
-11.740000
30
0.0
11
-11.380000
21
-11.740000
31
0.0
0
LINE
8
1-0_REZ
10
-11.220000
20
-11.740000
30
0.0
11
-10.460000
21
-11.740000
31
0.0
0
LINE
8
1-0_REZ
10
1.860000
20
-11.740000
30
0.0
11
2.480000
21
-11.740000
31
0.0
0
LINE
8
1-0_REZ
10
-14.960000
20
-12.760000
30
0.0
11
-14.180000
21
-12.760000
31
0.0
0
LINE
8
1-0_REZ
10
4.260000
20
-12.760000
30
0.0
11
4.920000
21
-12.760000
31
0.0
0
LINE
8
1-0_REZ
10
5.920000
20
-12.760000
30
0.0
11
6.740000
21
-12.760000
31
0.0
0
LINE
8
1-0_REZ
10
7.900000
20
6.220000
30
0.0
11
8.360000
21
6.220000
31
0.0
0
LINE
8
1-0_REZ
10
8.780000
20
-13.380000
30
0.0
11
9.640000
21
-13.380000
31
0.0
0
LINE
8
1-0_REZ
10
13.040000
20
14.440000
30
0.0
11
14.060000
21
14.440000
31
0.0
0
LINE
8
1-0_REZ
10
9.960000
20
1.720000
30
0.0
11
10.560000
21
1.720000
31
0.0
0
LINE
8
1-0_REZ
10
-12.920000
20
-11.640000
30
0.0
11
-12.420000
21
-11.640000
31
0.0
0
LINE
8
1-0_REZ
10
-6.080000
20
-11.640000
30
0.0
11
-5.660000
21
-11.640000
31
0.0
0
LINE
8
1-0_REZ
10
2.420000
20
-9.680000
30
0.0
11
2.960000
21
-9.680000
31
0.0
0
LINE
8
1-0_REZ
10
-13.280000
20
-11.720000
30
0.0
11
-11.540000
21
-11.720000
31
0.0
0
LINE
8
1-0_REZ
10
-11.040000
20
-11.720000
30
0.0
11
-10.480000
21
-11.720000
31
0.0
0
LINE
8
1-0_REZ
10
-0.180000
20
5.300000
30
0.0
11
1.020000
21
5.300000
31
0.0
0
LINE
8
1-0_REZ
10
6.060000
20
-8.440000
30
0.0
11
6.500000
21
-8.440000
31
0.0
0
LINE
8
1-0_REZ
10
-6.420000
20
-4.640000
30
0.0
11
-5.960000
21
-4.640000
31
0.0
0
LINE
8
1-0_REZ
10
2.540000
20
-12.940000
30
0.0
11
3.340000
21
-12.940000
31
0.0
0
LINE
8
1-0_REZ
10
0.240000
20
-8.540000
30
0.0
11
0.940000
21
-8.540000
31
0.0
0
LINE
8
1-0_REZ
10
6.080000
20
-8.540000
30
0.0
11
6.500000
21
-8.540000
31
0.0
0
LINE
8
1-0_REZ
10
-7.080000
20
-1.660000
30
0.0
11
-6.560000
21
-1.660000
31
0.0
0
LINE
8
1-0_REZ
10
7.220000
20
-1.660000
30
0.0
11
7.720000
21
-1.660000
31
0.0
0
LINE
8
1-0_REZ
10
4.760000
20
2.340000
30
0.0
11
5.520000
21
2.340000
31
0.0
0
LINE
8
1-0_REZ
10
23.660000
20
-3.900000
30
0.0
11
24.080000
21
-3.900000
31
0.0
0
LINE
8
1-0_REZ
10
-13.920000
20
-10.400000
30
0.0
11
-13.500000
21
-10.400000
31
0.0
0
LINE
8
1-0_REZ
10
4.480000
20
-4.740000
30
0.0
11
4.880000
21
-4.740000
31
0.0
0
LINE
8
1-0_REZ
10
10.080000
20
14.060000
30
0.0
11
10.840000
21
14.060000
31
0.0
0
LINE
8
1-0_REZ
10
9.960000
20
12.620000
30
0.0
11
10.820000
21
12.620000
31
0.0
0
LINE
8
1-0_REZ
10
1.300000
20
-9.760000
30
0.0
11
1.700000
21
-9.760000
31
0.0
0
LINE
8
1-0_REZ
10
12.520000
20
-9.760000
30
0.0
11
12.960000
21
-9.760000
31
0.0
0
LINE
8
1-0_REZ
10
8.340000
20
4.720000
30
0.0
11
8.780000
21
4.720000
31
0.0
0
LINE
8
1-0_REZ
10
-2.780000
20
-6.680000
30
0.0
11
-2.360000
21
-6.680000
31
0.0
0
LINE
8
1-0_REZ
10
-2.140000
20
-6.680000
30
0.0
11
-1.400000
21
-6.680000
31
0.0
0
LINE
8
1-0_REZ
10
3.480000
20
-6.680000
30
0.0
11
4.160000
21
-6.680000
31
0.0
0
LINE
8
1-0_REZ
10
23.940000
20
11.080000
30
0.0
11
24.380000
21
11.080000
31
0.0
0
LINE
8
1-0_REZ
10
-11.980000
20
-8.120000
30
0.0
11
-11.520000
21
-8.120000
31
0.0
0
LINE
8
1-0_REZ
10
-5.380000
20
-8.120000
30
0.0
11
-4.880000
21
-8.120000
31
0.0
0
LINE
8
1-0_REZ
10
6.080000
20
-8.120000
30
0.0
11
6.500000
21
-8.120000
31
0.0
0
LINE
8
1-0_REZ
10
3.780000
20
2.460000
30
0.0
11
6.020000
21
2.460000
31
0.0
0
LINE
8
1-0_REZ
10
13.100000
20
2.460000
30
0.0
11
14.000000
21
2.460000
31
0.0
0
LINE
8
1-0_REZ
10
6.760000
20
4.840000
30
0.0
11
7.520000
21
4.840000
31
0.0
0
LINE
8
1-0_REZ
10
-5.880000
20
-5.860000
30
0.0
11
-5.500000
21
-5.860000
31
0.0
0
LINE
8
1-0_REZ
10
-3.180000
20
-5.860000
30
0.0
11
-2.640000
21
-5.860000
31
0.0
0
LINE
8
1-0_REZ
10
0.880000
20
-6.880000
30
0.0
11
1.440000
21
-6.880000
31
0.0
0
LINE
8
1-0_REZ
10
18.560000
20
16.120000
30
0.0
11
19.480000
21
16.120000
31
0.0
0
LINE
8
1-0_REZ
10
8.700000
20
4.620000
30
0.0
11
9.100000
21
4.620000
31
0.0
0
LINE
8
1-0_REZ
10
4.020000
20
2.780000
30
0.0
11
4.600000
21
2.780000
31
0.0
0
LINE
8
1-0_REZ
10
-4.480000
20
-1.740000
30
0.0
11
-3.960000
21
-1.740000
31
0.0
0
LINE
8
1-0_REZ
10
-5.840000
20
-5.540000
30
0.0
11
-5.440000
21
-5.540000
31
0.0
0
LINE
8
1-0_REZ
10
4.920000
20
2.680000
30
0.0
11
5.400000
21
2.680000
31
0.0
0
LINE
8
1-0_REZ
10
4.000000
20
2.600000
30
0.0
11
5.740000
21
2.600000
31
0.0
0
LINE
8
1-0_REZ
10
-2.200000
20
-5.120000
30
0.0
11
-1.800000
21
-5.120000
31
0.0
0
LINE
8
1-0_REZ
10
8.660000
20
6.180000
30
0.0
11
9.800000
21
6.180000
31
0.0
0
LINE
8
1-0_REZ
10
-2.200000
20
-5.200000
30
0.0
11
-1.600000
21
-5.200000
31
0.0
0
LINE
8
1-0_REZ
10
3.900000
20
2.400000
30
0.0
11
4.300000
21
2.400000
31
0.0
0
LINE
8
1-0_REZ
10
4.660000
20
2.400000
30
0.0
11
5.540000
21
2.400000
31
0.0
0
LINE
8
1-0_REZ
10
0.340000
20
5.260000
30
0.0
11
1.300000
21
5.260000
31
0.0
0
LINE
8
1-0_REZ
10
-16.560000
20
-12.300000
30
0.0
11
-16.060000
21
-12.300000
31
0.0
0
LINE
8
1-0_REZ
10
-12.420000
20
-12.300000
30
0.0
11
-11.920000
21
-12.300000
31
0.0
0
LINE
8
1-0_REZ
10
-1.920000
20
-12.300000
30
0.0
11
-1.220000
21
-12.300000
31
0.0
0
LINE
8
1-0_REZ
10
4.000000
20
2.800000
30
0.0
11
5.040000
21
2.800000
31
0.0
0
LINE
8
1-0_REZ
10
8.280000
20
6.200000
30
0.0
11
8.780000
21
6.200000
31
0.0
0
LINE
8
1-0_REZ
10
11.920000
20
13.400000
30
0.0
11
13.720000
21
13.400000
31
0.0
0
LINE
8
1-0_REZ
10
-13.920000
20
-10.640000
30
0.0
11
-13.320000
21
-10.640000
31
0.0
0
LINE
8
1-0_REZ
10
-13.240000
20
-10.640000
30
0.0
11
-12.420000
21
-10.640000
31
0.0
0
LINE
8
1-0_REZ
10
-13.340000
20
-8.680000
30
0.0
11
-12.660000
21
-8.680000
31
0.0
0
LINE
8
1-0_REZ
10
-2.640000
20
-8.680000
30
0.0
11
-2.100000
21
-8.680000
31
0.0
0
LINE
8
1-0_REZ
10
6.120000
20
-8.680000
30
0.0
11
6.500000
21
-8.680000
31
0.0
0
LINE
8
1-0_REZ
10
10.940000
20
-8.680000
30
0.0
11
12.520000
21
-8.680000
31
0.0
0
LINE
8
1-0_REZ
10
-0.160000
20
5.380000
30
0.0
11
0.260000
21
5.380000
31
0.0
0
LINE
8
1-0_REZ
10
3.440000
20
2.900000
30
0.0
11
5.020000
21
2.900000
31
0.0
0
LINE
8
1-0_REZ
10
3.960000
20
4.260000
30
0.0
11
4.380000
21
4.260000
31
0.0
0
LINE
8
1-0_REZ
10
7.600000
20
4.260000
30
0.0
11
8.060000
21
4.260000
31
0.0
0
LINE
8
1-0_REZ
10
-12.660000
20
-7.160000
30
0.0
11
-12.260000
21
-7.160000
31
0.0
0
LINE
8
1-0_REZ
10
8.380000
20
-13.400000
30
0.0
11
8.780000
21
-13.400000
31
0.0
0
LINE
8
1-0_REZ
10
9.100000
20
-13.400000
30
0.0
11
9.640000
21
-13.400000
31
0.0
0
LINE
8
1-0_REZ
10
3.180000
20
3.020000
30
0.0
11
3.580000
21
3.020000
31
0.0
0
LINE
8
1-0_REZ
10
3.760000
20
3.020000
30
0.0
11
5.000000
21
3.020000
31
0.0
0
LINE
8
1-0_REZ
10
1.620000
20
-10.120000
30
0.0
11
2.000000
21
-10.120000
31
0.0
0
LINE
8
1-0_REZ
10
-13.900000
20
-10.520000
30
0.0
11
-13.320000
21
-10.520000
31
0.0
0
LINE
8
1-0_REZ
10
-5.920000
20
-5.900000
30
0.0
11
-5.500000
21
-5.900000
31
0.0
0
LINE
8
1-0_REZ
10
-4.400000
20
-5.900000
30
0.0
11
-3.820000
21
-5.900000
31
0.0
0
LINE
8
1-0_REZ
10
23.640000
20
-5.900000
30
0.0
11
24.160000
21
-5.900000
31
0.0
0
LINE
8
1-0_REZ
10
-9.720000
20
-9.180000
30
0.0
11
-9.220000
21
-9.180000
31
0.0
0
LINE
8
1-0_REZ
10
2.460000
20
-1.280000
30
0.0
11
2.900000
21
-1.280000
31
0.0
0
LINE
8
1-0_REZ
10
10.740000
20
-3.840000
30
0.0
11
11.300000
21
-3.840000
31
0.0
0
LINE
8
1-0_REZ
10
11.020000
20
9.220000
30
0.0
11
11.400000
21
9.220000
31
0.0
0
LINE
8
1-0_REZ
10
-5.840000
20
-5.580000
30
0.0
11
-5.460000
21
-5.580000
31
0.0
0
LINE
8
1-0_REZ
10
4.480000
20
-5.580000
30
0.0
11
4.900000
21
-5.580000
31
0.0
0
LINE
8
1-0_REZ
10
-16.380000
20
-10.600000
30
0.0
11
-15.980000
21
-10.600000
31
0.0
0
LINE
8
1-0_REZ
10
-13.900000
20
-10.600000
30
0.0
11
-12.460000
21
-10.600000
31
0.0
0
LINE
8
1-0_REZ
10
4.680000
20
2.640000
30
0.0
11
5.080000
21
2.640000
31
0.0
0
LINE
8
1-0_REZ
10
-17.040000
20
-10.280000
30
0.0
11
-16.120000
21
-10.280000
31
0.0
0
LINE
8
1-0_REZ
10
13.020000
20
5.840000
30
0.0
11
14.000000
21
5.840000
31
0.0
0
LINE
8
1-0_REZ
10
15.740000
20
16.320000
30
0.0
11
17.840000
21
16.320000
31
0.0
0
LINE
8
1-0_REZ
10
-5.860000
20
-5.660000
30
0.0
11
-5.480000
21
-5.660000
31
0.0
0
LINE
8
1-0_REZ
10
-9.720000
20
-9.160000
30
0.0
11
-9.240000
21
-9.160000
31
0.0
0
LINE
8
1-0_REZ
10
7.240000
20
7.280000
30
0.0
11
8.280000
21
7.280000
31
0.0
0
LINE
8
1-0_REZ
10
9.260000
20
7.280000
30
0.0
11
9.640000
21
7.280000
31
0.0
0
LINE
8
1-0_REZ
10
-1.400000
20
-4.120000
30
0.0
11
-0.980000
21
-4.120000
31
0.0
0
LINE
8
1-0_REZ
10
2.720000
20
-4.320000
30
0.0
11
3.160000
21
-4.320000
31
0.0
0
LINE
8
1-0_REZ
10
23.760000
20
-0.920000
30
0.0
11
24.280000
21
-0.920000
31
0.0
0
LINE
8
1-0_REZ
10
-1.400000
20
-4.000000
30
0.0
11
-1.000000
21
-4.000000
31
0.0
0
LINE
8
1-0_REZ
10
4.780000
20
2.360000
30
0.0
11
5.540000
21
2.360000
31
0.0
0
LINE
8
1-0_REZ
10
-12.680000
20
-7.300000
30
0.0
11
-12.260000
21
-7.300000
31
0.0
0
LINE
8
1-0_REZ
10
-13.920000
20
-10.480000
30
0.0
11
-13.340000
21
-10.480000
31
0.0
0
LINE
8
1-0_REZ
10
-12.680000
20
-7.400000
30
0.0
11
-12.280000
21
-7.400000
31
0.0
0
LINE
8
1-0_REZ
10
-13.680000
20
-11.600000
30
0.0
11
-13.200000
21
-11.600000
31
0.0
0
LINE
8
1-0_REZ
10
-5.200000
20
-2.980000
30
0.0
11
-4.620000
21
-2.980000
31
0.0
0
LINE
8
1-0_REZ
10
0.720000
20
-2.980000
30
0.0
11
1.180000
21
-2.980000
31
0.0
0
LINE
8
1-0_REZ
10
8.540000
20
-2.980000
30
0.0
11
9.700000
21
-2.980000
31
0.0
0
LINE
8
1-0_REZ
10
8.400000
20
-13.320000
30
0.0
11
9.300000
21
-13.320000
31
0.0
0
LINE
8
1-0_REZ
10
-1.420000
20
-4.100000
30
0.0
11
-1.020000
21
-4.100000
31
0.0
0
LINE
8
1-0_REZ
10
6.060000
20
-9.640000
30
0.0
11
6.760000
21
-9.640000
31
0.0
0
LINE
8
1-0_REZ
10
2.960000
20
2.980000
30
0.0
11
3.700000
21
2.980000
31
0.0
0
LINE
8
1-0_REZ
10
4.040000
20
2.980000
30
0.0
11
4.520000
21
2.980000
31
0.0
0
LINE
8
1-0_REZ
10
1.740000
20
-1.420000
30
0.0
11
2.300000
21
-1.420000
31
0.0
0
LINE
8
1-0_REZ
10
3.880000
20
-1.520000
30
0.0
11
4.360000
21
-1.520000
31
0.0
0
LINE
8
1-0_REZ
10
1.600000
20
-8.400000
30
0.0
11
2.320000
21
-8.400000
31
0.0
0
LINE
8
1-0_REZ
10
6.040000
20
-8.400000
30
0.0
11
6.500000
21
-8.400000
31
0.0
0
LINE
8
1-0_REZ
10
13.040000
20
14.820000
30
0.0
11
14.040000
21
14.820000
31
0.0
0
LINE
8
1-0_REZ
10
-11.180000
20
-11.660000
30
0.0
11
-10.520000
21
-11.660000
31
0.0
0
LINE
8
1-0_REZ
10
1.320000
20
-9.300000
30
0.0
11
1.700000
21
-9.300000
31
0.0
0
LINE
8
1-0_REZ
10
-4.460000
20
-12.180000
30
0.0
11
-3.900000
21
-12.180000
31
0.0
0
LINE
8
1-0_REZ
10
7.560000
20
3.540000
30
0.0
11
8.080000
21
3.540000
31
0.0
0
LINE
8
1-0_REZ
10
-6.520000
20
-8.980000
30
0.0
11
-5.500000
21
-8.980000
31
0.0
0
LINE
8
1-0_REZ
10
1.760000
20
-0.780000
30
0.0
11
2.300000
21
-0.780000
31
0.0
0
LINE
8
1-0_REZ
10
23.920000
20
9.080000
30
0.0
11
24.380000
21
9.080000
31
0.0
0
LINE
8
1-0_REZ
10
4.520000
20
4.980000
30
0.0
11
5.180000
21
4.980000
31
0.0
0
LINE
8
1-0_REZ
10
10.620000
20
4.980000
30
0.0
11
11.000000
21
4.980000
31
0.0
0
LINE
8
1-0_REZ
10
0.300000
20
-2.000000
30
0.0
11
1.080000
21
-2.000000
31
0.0
0
LINE
8
1-0_REZ
10
-5.820000
20
-5.500000
30
0.0
11
-5.440000
21
-5.500000
31
0.0
0
LINE
8
1-0_REZ
10
-6.900000
20
-8.960000
30
0.0
11
-5.820000
21
-8.960000
31
0.0
0
LINE
8
1-0_REZ
10
-12.060000
20
-7.960000
30
0.0
11
-11.520000
21
-7.960000
31
0.0
0
LINE
8
1-0_REZ
10
-9.240000
20
-7.960000
30
0.0
11
-8.840000
21
-7.960000
31
0.0
0
LINE
8
1-0_REZ
10
-6.820000
20
-7.960000
30
0.0
11
-6.400000
21
-7.960000
31
0.0
0
LINE
8
1-0_REZ
10
12.380000
20
11.980000
30
0.0
11
13.060000
21
11.980000
31
0.0
0
LINE
8
1-0_REZ
10
4.160000
20
2.620000
30
0.0
11
5.560000
21
2.620000
31
0.0
0
LINE
8
1-0_REZ
10
-10.060000
20
-11.940000
30
0.0
11
-9.580000
21
-11.940000
31
0.0
0
LINE
8
1-0_REZ
10
6.800000
20
0.180000
30
0.0
11
7.400000
21
0.180000
31
0.0
0
LINE
8
1-0_REZ
10
-2.860000
20
-6.900000
30
0.0
11
-2.480000
21
-6.900000
31
0.0
0
LINE
8
1-0_REZ
10
23.380000
20
-6.900000
30
0.0
11
24.020000
21
-6.900000
31
0.0
0
LINE
8
1-0_REZ
10
3.540000
20
2.740000
30
0.0
11
4.160000
21
2.740000
31
0.0
0
LINE
8
1-0_REZ
10
4.260000
20
2.740000
30
0.0
11
5.500000
21
2.740000
31
0.0
0
LINE
8
1-0_REZ
10
1.800000
20
4.080000
30
0.0
11
3.080000
21
4.080000
31
0.0
0
LINE
8
1-0_REZ
10
2.980000
20
2.940000
30
0.0
11
4.040000
21
2.940000
31
0.0
0
LINE
8
1-0_REZ
10
-2.200000
20
-4.980000
30
0.0
11
-1.760000
21
-4.980000
31
0.0
0
LINE
8
1-0_REZ
10
7.600000
20
6.340000
30
0.0
11
8.280000
21
6.340000
31
0.0
0
LINE
8
1-0_REZ
10
-7.040000
20
-1.580000
30
0.0
11
-6.600000
21
-1.580000
31
0.0
0
LINE
8
1-0_REZ
10
3.200000
20
3.060000
30
0.0
11
3.600000
21
3.060000
31
0.0
0
LINE
8
1-0_REZ
10
3.880000
20
3.060000
30
0.0
11
4.980000
21
3.060000
31
0.0
0
LINE
8
1-0_REZ
10
1.280000
20
-3.500000
30
0.0
11
1.800000
21
-3.500000
31
0.0
0
LINE
8
1-0_REZ
10
6.060000
20
-8.420000
30
0.0
11
6.500000
21
-8.420000
31
0.0
0
LINE
8
1-0_REZ
10
-5.860000
20
-5.760000
30
0.0
11
-5.480000
21
-5.760000
31
0.0
0
LINE
8
1-0_REZ
10
4.480000
20
-4.720000
30
0.0
11
4.860000
21
-4.720000
31
0.0
0
LINE
8
1-0_REZ
10
12.980000
20
-0.520000
30
0.0
11
14.040000
21
-0.520000
31
0.0
0
LINE
8
1-0_REZ
10
5.100000
20
3.180000
30
0.0
11
5.540000
21
3.180000
31
0.0
0
LINE
8
1-0_REZ
10
-9.240000
20
-7.900000
30
0.0
11
-8.680000
21
-7.900000
31
0.0
0
LINE
8
1-0_REZ
10
-6.960000
20
-7.900000
30
0.0
11
-6.360000
21
-7.900000
31
0.0
0
LINE
8
1-0_REZ
10
-6.220000
20
-7.900000
30
0.0
11
-5.700000
21
-7.900000
31
0.0
0
LINE
8
1-0_REZ
10
-9.800000
20
-11.880000
30
0.0
11
-9.200000
21
-11.880000
31
0.0
0
LINE
8
1-0_REZ
10
-9.120000
20
-11.880000
30
0.0
11
-8.040000
21
-11.880000
31
0.0
0
LINE
8
1-0_REZ
10
2.680000
20
-4.300000
30
0.0
11
3.200000
21
-4.300000
31
0.0
0
LINE
8
1-0_REZ
10
1.140000
20
-2.040000
30
0.0
11
1.520000
21
-2.040000
31
0.0
0
LINE
8
1-0_REZ
10
7.140000
20
0.120000
30
0.0
11
7.600000
21
0.120000
31
0.0
0
LINE
8
1-0_REZ
10
8.420000
20
0.120000
30
0.0
11
9.180000
21
0.120000
31
0.0
0
LINE
8
1-0_REZ
10
-5.860000
20
-5.620000
30
0.0
11
-5.460000
21
-5.620000
31
0.0
0
LINE
8
1-0_REZ
10
8.540000
20
-2.820000
30
0.0
11
9.380000
21
-2.820000
31
0.0
0
LINE
8
1-0_REZ
10
13.020000
20
8.460000
30
0.0
11
13.780000
21
8.460000
31
0.0
0
LINE
8
1-0_REZ
10
-2.200000
20
-5.100000
30
0.0
11
-1.800000
21
-5.100000
31
0.0
0
LINE
8
1-0_REZ
10
-2.760000
20
-6.940000
30
0.0
11
-2.280000
21
-6.940000
31
0.0
0
LINE
8
1-0_REZ
10
-7.800000
20
-10.100000
30
0.0
11
-7.420000
21
-10.100000
31
0.0
0
LINE
8
1-0_REZ
10
1.620000
20
-10.100000
30
0.0
11
2.000000
21
-10.100000
31
0.0
0
LINE
8
1-0_REZ
10
1.820000
20
3.940000
30
0.0
11
3.140000
21
3.940000
31
0.0
0
LINE
8
1-0_REZ
10
-0.080000
20
5.280000
30
0.0
11
1.140000
21
5.280000
31
0.0
0
LINE
8
1-0_REZ
10
1.760000
20
4.160000
30
0.0
11
2.600000
21
4.160000
31
0.0
0
LINE
8
1-0_REZ
10
-1.360000
20
-4.760000
30
0.0
11
-0.920000
21
-4.760000
31
0.0
0
LINE
8
1-0_REZ
10
4.480000
20
-4.760000
30
0.0
11
4.880000
21
-4.760000
31
0.0
0
LINE
8
1-0_REZ
10
-7.040000
20
-1.600000
30
0.0
11
-6.560000
21
-1.600000
31
0.0
0
LINE
8
1-0_REZ
10
-5.860000
20
-5.680000
30
0.0
11
-5.460000
21
-5.680000
31
0.0
0
LINE
8
1-0_REZ
10
6.340000
20
5.520000
30
0.0
11
6.760000
21
5.520000
31
0.0
0
LINE
8
1-0_REZ
10
-12.680000
20
-7.240000
30
0.0
11
-12.260000
21
-7.240000
31
0.0
0
LINE
8
1-0_REZ
10
10.020000
20
6.740000
30
0.0
11
10.720000
21
6.740000
31
0.0
0
LINE
8
1-0_REZ
10
2.660000
20
-2.600000
30
0.0
11
3.240000
21
-2.600000
31
0.0
0
LINE
8
1-0_REZ
10
6.920000
20
4.800000
30
0.0
11
8.460000
21
4.800000
31
0.0
0
LINE
8
1-0_REZ
10
-4.640000
20
-3.100000
30
0.0
11
-4.260000
21
-3.100000
31
0.0
0
LINE
8
1-0_REZ
10
0.540000
20
-3.100000
30
0.0
11
0.940000
21
-3.100000
31
0.0
0
LINE
8
1-0_REZ
10
8.580000
20
-3.100000
30
0.0
11
9.160000
21
-3.100000
31
0.0
0
LINE
8
1-0_REZ
10
4.200000
20
-11.420000
30
0.0
11
4.600000
21
-11.420000
31
0.0
0
LINE
8
1-0_REZ
10
9.060000
20
4.500000
30
0.0
11
9.740000
21
4.500000
31
0.0
0
LINE
8
1-0_REZ
10
10.700000
20
4.500000
30
0.0
11
11.220000
21
4.500000
31
0.0
0
LINE
8
1-0_REZ
10
1.580000
20
-9.980000
30
0.0
11
1.980000
21
-9.980000
31
0.0
0
LINE
8
1-0_REZ
10
9.300000
20
6.160000
30
0.0
11
10.020000
21
6.160000
31
0.0
0
LINE
8
1-0_REZ
10
10.100000
20
6.160000
30
0.0
11
10.780000
21
6.160000
31
0.0
0
LINE
8
1-0_REZ
10
1.780000
20
4.000000
30
0.0
11
3.080000
21
4.000000
31
0.0
0
LINE
8
1-0_REZ
10
6.340000
20
0.200000
30
0.0
11
6.880000
21
0.200000
31
0.0
0
LINE
8
1-0_REZ
10
9.120000
20
0.200000
30
0.0
11
10.180000
21
0.200000
31
0.0
0
LINE
8
1-0_REZ
10
5.680000
20
7.400000
30
0.0
11
6.600000
21
7.400000
31
0.0
0
LINE
8
1-0_REZ
10
3.640000
20
5.040000
30
0.0
11
4.080000
21
5.040000
31
0.0
0
LINE
8
1-0_REZ
10
10.520000
20
5.040000
30
0.0
11
11.260000
21
5.040000
31
0.0
0
LINE
8
1-0_REZ
10
9.700000
20
-0.720000
30
0.0
11
10.280000
21
-0.720000
31
0.0
0
LINE
8
1-0_REZ
10
7.560000
20
6.480000
30
0.0
11
8.100000
21
6.480000
31
0.0
0
LINE
8
1-0_REZ
10
13.240000
20
8.440000
30
0.0
11
14.080000
21
8.440000
31
0.0
0
LINE
8
1-0_REZ
10
-14.960000
20
-12.720000
30
0.0
11
-14.200000
21
-12.720000
31
0.0
0
LINE
8
1-0_REZ
10
-11.180000
20
-12.720000
30
0.0
11
-10.340000
21
-12.720000
31
0.0
0
LINE
8
1-0_REZ
10
5.920000
20
-12.720000
30
0.0
11
6.760000
21
-12.720000
31
0.0
0
LINE
8
1-0_REZ
10
10.620000
20
5.060000
30
0.0
11
11.240000
21
5.060000
31
0.0
0
LINE
8
1-0_REZ
10
23.720000
20
-0.900000
30
0.0
11
24.220000
21
-0.900000
31
0.0
0
LINE
8
1-0_REZ
10
1.220000
20
-1.400000
30
0.0
11
1.860000
21
-1.400000
31
0.0
0
LINE
8
1-0_REZ
10
-13.920000
20
-10.440000
30
0.0
11
-13.500000
21
-10.440000
31
0.0
0
LINE
8
1-0_REZ
10
8.560000
20
4.680000
30
0.0
11
8.940000
21
4.680000
31
0.0
0
LINE
8
1-0_REZ
10
2.980000
20
2.960000
30
0.0
11
3.740000
21
2.960000
31
0.0
0
LINE
8
1-0_REZ
10
9.800000
20
6.140000
30
0.0
11
10.460000
21
6.140000
31
0.0
0
LINE
8
1-0_REZ
10
1.120000
20
-0.740000
30
0.0
11
1.540000
21
-0.740000
31
0.0
0
LINE
8
1-0_REZ
10
9.720000
20
2.160000
30
0.0
11
10.360000
21
2.160000
31
0.0
0
LINE
8
1-0_REZ
10
-2.200000
20
-5.140000
30
0.0
11
-1.800000
21
-5.140000
31
0.0
0
LINE
8
1-0_REZ
10
-5.880000
20
-5.840000
30
0.0
11
-5.500000
21
-5.840000
31
0.0
0
LINE
8
1-0_REZ
10
-3.180000
20
-5.840000
30
0.0
11
-2.660000
21
-5.840000
31
0.0
0
LINE
8
1-0_REZ
10
1.460000
20
-6.020000
30
0.0
11
2.060000
21
-6.020000
31
0.0
0
LINE
8
1-0_REZ
10
12.920000
20
-6.020000
30
0.0
11
13.520000
21
-6.020000
31
0.0
0
LINE
8
1-0_REZ
10
-2.220000
20
-4.880000
30
0.0
11
-1.760000
21
-4.880000
31
0.0
0
LINE
8
1-0_REZ
10
-14.960000
20
-12.680000
30
0.0
11
-14.200000
21
-12.680000
31
0.0
0
LINE
8
1-0_REZ
10
5.820000
20
-12.680000
30
0.0
11
6.720000
21
-12.680000
31
0.0
0
LINE
8
1-0_REZ
10
-1.420000
20
-4.140000
30
0.0
11
-1.000000
21
-4.140000
31
0.0
0
LINE
8
1-0_REZ
10
10.120000
20
1.220000
30
0.0
11
10.560000
21
1.220000
31
0.0
0
LINE
8
1-0_REZ
10
7.160000
20
6.400000
30
0.0
11
8.260000
21
6.400000
31
0.0
0
LINE
8
1-0_REZ
10
-6.440000
20
-4.680000
30
0.0
11
-5.940000
21
-4.680000
31
0.0
0
LINE
8
1-0_REZ
10
7.420000
20
-0.260000
30
0.0
11
7.860000
21
-0.260000
31
0.0
0
LINE
8
1-0_REZ
10
-11.980000
20
-8.140000
30
0.0
11
-11.520000
21
-8.140000
31
0.0
0
LINE
8
1-0_REZ
10
-4.920000
20
-8.140000
30
0.0
11
-4.180000
21
-8.140000
31
0.0
0
LINE
8
1-0_REZ
10
6.080000
20
-8.140000
30
0.0
11
6.500000
21
-8.140000
31
0.0
0
LINE
8
1-0_REZ
10
-4.820000
20
-1.060000
30
0.0
11
-4.280000
21
-1.060000
31
0.0
0
LINE
8
1-0_REZ
10
7.580000
20
-1.060000
30
0.0
11
8.100000
21
-1.060000
31
0.0
0
LINE
8
1-0_REZ
10
7.060000
20
0.160000
30
0.0
11
7.900000
21
0.160000
31
0.0
0
LINE
8
1-0_REZ
10
5.160000
20
7.480000
30
0.0
11
5.640000
21
7.480000
31
0.0
0
LINE
8
1-0_REZ
10
5.020000
20
7.500000
30
0.0
11
5.400000
21
7.500000
31
0.0
0
LINE
8
1-0_REZ
10
-2.200000
20
-5.240000
30
0.0
11
-1.600000
21
-5.240000
31
0.0
0
LINE
8
1-0_REZ
10
-13.180000
20
-8.840000
30
0.0
11
-12.600000
21
-8.840000
31
0.0
0
LINE
8
1-0_REZ
10
7.940000
20
7.220000
30
0.0
11
8.960000
21
7.220000
31
0.0
0
LINE
8
1-0_REZ
10
23.480000
20
16.060000
30
0.0
11
24.040000
21
16.060000
31
0.0
0
LINE
8
1-0_REZ
10
-0.560000
20
-0.660000
30
0.0
11
-0.140000
21
-0.660000
31
0.0
0
LINE
8
1-0_REZ
10
-2.200000
20
-5.080000
30
0.0
11
-1.800000
21
-5.080000
31
0.0
0
LINE
8
1-0_REZ
10
-2.200000
20
-4.960000
30
0.0
11
-1.760000
21
-4.960000
31
0.0
0
LINE
8
1-0_REZ
10
6.020000
20
5.620000
30
0.0
11
6.700000
21
5.620000
31
0.0
0
LINE
8
1-0_REZ
10
-2.220000
20
-4.840000
30
0.0
11
-1.760000
21
-4.840000
31
0.0
0
LINE
8
1-0_REZ
10
10.260000
20
16.220000
30
0.0
11
10.820000
21
16.220000
31
0.0
0
LINE
8
1-0_REZ
10
22.000000
20
16.220000
30
0.0
11
23.480000
21
16.220000
31
0.0
0
LINE
8
1-0_REZ
10
1.820000
20
3.920000
30
0.0
11
3.080000
21
3.920000
31
0.0
0
LINE
8
1-0_REZ
10
23.480000
20
6.100000
30
0.0
11
24.240000
21
6.100000
31
0.0
0
LINE
8
1-0_REZ
10
-1.400000
20
-3.960000
30
0.0
11
-1.020000
21
-3.960000
31
0.0
0
LINE
8
1-0_REZ
10
4.880000
20
2.320000
30
0.0
11
5.540000
21
2.320000
31
0.0
0
LINE
8
1-0_REZ
10
1.620000
20
-10.180000
30
0.0
11
2.020000
21
-10.180000
31
0.0
0
LINE
8
1-0_REZ
10
8.740000
20
7.160000
30
0.0
11
9.400000
21
7.160000
31
0.0
0
LINE
8
1-0_REZ
10
6.040000
20
-8.620000
30
0.0
11
6.500000
21
-8.620000
31
0.0
0
LINE
8
1-0_REZ
10
10.340000
20
6.700000
30
0.0
11
10.900000
21
6.700000
31
0.0
0
LINE
8
1-0_REZ
10
-0.420000
20
-1.300000
30
0.0
11
0.040000
21
-1.300000
31
0.0
0
LINE
8
1-0_REZ
10
2.800000
20
-1.300000
30
0.0
11
3.460000
21
-1.300000
31
0.0
0
LINE
8
1-0_REZ
10
10.000000
20
6.760000
30
0.0
11
10.660000
21
6.760000
31
0.0
0
LINE
8
1-0_REZ
10
21.540000
20
16.240000
30
0.0
11
23.180000
21
16.240000
31
0.0
0
LINE
8
1-0_REZ
10
-0.200000
20
-0.680000
30
0.0
11
0.260000
21
-0.680000
31
0.0
0
LINE
8
1-0_REZ
10
7.520000
20
0.240000
30
0.0
11
8.580000
21
0.240000
31
0.0
0
LINE
8
1-0_REZ
10
11.700000
20
11.960000
30
0.0
11
13.060000
21
11.960000
31
0.0
0
LINE
8
1-0_REZ
10
-1.400000
20
-3.980000
30
0.0
11
-1.020000
21
-3.980000
31
0.0
0
LINE
8
1-0_REZ
10
7.420000
20
6.360000
30
0.0
11
8.280000
21
6.360000
31
0.0
0
LINE
8
1-0_REZ
10
-12.680000
20
-7.200000
30
0.0
11
-12.260000
21
-7.200000
31
0.0
0
LINE
8
1-0_REZ
10
20.860000
20
13.880000
30
0.0
11
21.440000
21
13.880000
31
0.0
0
LINE
8
1-0_REZ
10
10.340000
20
6.720000
30
0.0
11
10.720000
21
6.720000
31
0.0
0
LINE
8
1-0_REZ
10
-13.080000
20
-7.720000
30
0.0
11
-12.500000
21
-7.720000
31
0.0
0
LINE
8
1-0_REZ
10
-6.960000
20
-7.720000
30
0.0
11
-6.480000
21
-7.720000
31
0.0
0
LINE
8
1-0_REZ
10
10.000000
20
1.240000
30
0.0
11
10.560000
21
1.240000
31
0.0
0
LINE
8
1-0_REZ
10
3.240000
20
-1.500000
30
0.0
11
3.940000
21
-1.500000
31
0.0
0
LINE
8
1-0_REZ
10
2.660000
20
-4.280000
30
0.0
11
3.060000
21
-4.280000
31
0.0
0
LINE
8
1-0_REZ
10
-8.980000
20
-13.100000
30
0.0
11
-8.520000
21
-13.100000
31
0.0
0
LINE
8
1-0_REZ
10
1.500000
20
-0.760000
30
0.0
11
1.900000
21
-0.760000
31
0.0
0
LINE
8
1-0_REZ
10
-7.240000
20
-1.160000
30
0.0
11
-6.800000
21
-1.160000
31
0.0
0
LINE
8
1-0_REZ
10
23.860000
20
8.100000
30
0.0
11
24.360000
21
8.100000
31
0.0
0
LINE
8
1-0_REZ
10
-1.400000
20
-4.040000
30
0.0
11
-1.000000
21
-4.040000
31
0.0
0
LINE
8
1-0_REZ
10
-2.680000
20
-6.960000
30
0.0
11
-2.200000
21
-6.960000
31
0.0
0
LINE
8
1-0_REZ
10
-5.860000
20
-5.780000
30
0.0
11
-5.480000
21
-5.780000
31
0.0
0
LINE
8
1-0_REZ
10
-1.020000
20
-4.380000
30
0.0
11
-0.240000
21
-4.380000
31
0.0
0
LINE
8
1-0_REZ
10
-1.400000
20
-4.180000
30
0.0
11
-0.980000
21
-4.180000
31
0.0
0
LINE
8
1-0_REZ
10
22.960000
20
-12.980000
30
0.0
11
23.340000
21
-12.980000
31
0.0
0
LINE
8
1-0_REZ
10
9.080000
20
0.080000
30
0.0
11
9.720000
21
0.080000
31
0.0
0
LINE
8
1-0_REZ
10
6.300000
20
5.540000
30
0.0
11
6.680000
21
5.540000
31
0.0
0
LINE
8
1-0_REZ
10
-1.400000
20
-4.020000
30
0.0
11
-0.980000
21
-4.020000
31
0.0
0
LINE
8
1-0_REZ
10
23.500000
20
16.040000
30
0.0
11
23.880000
21
16.040000
31
0.0
0
LINE
8
1-0_REZ
10
10.280000
20
15.160000
30
0.0
11
10.740000
21
15.160000
31
0.0
0
LINE
8
1-0_REZ
10
-11.880000
20
-9.440000
30
0.0
11
-11.880000
21
-9.060000
31
0.0
0
LINE
8
1-0_REZ
10
-11.880000
20
-8.340000
30
0.0
11
-11.880000
21
-7.960000
31
0.0
0
LINE
8
1-0_REZ
10
8.680000
20
-3.240000
30
0.0
11
8.680000
21
-2.760000
31
0.0
0
LINE
8
1-0_REZ
10
0.760000
20
-3.360000
30
0.0
11
0.760000
21
-2.800000
31
0.0
0
LINE
8
1-0_REZ
10
-2.100000
20
-5.260000
30
0.0
11
-2.100000
21
-4.800000
31
0.0
0
LINE
8
1-0_REZ
10
-2.000000
20
-5.260000
30
0.0
11
-2.000000
21
-4.840000
31
0.0
0
LINE
8
1-0_REZ
10
11.720000
20
12.300000
30
0.0
11
11.720000
21
13.460000
31
0.0
0
LINE
8
1-0_REZ
10
8.460000
20
-6.180000
30
0.0
11
8.460000
21
-5.100000
31
0.0
0
LINE
8
1-0_REZ
10
-2.020000
20
-5.260000
30
0.0
11
-2.020000
21
-4.840000
31
0.0
0
LINE
8
1-0_REZ
10
13.700000
20
12.000000
30
0.0
11
13.700000
21
13.440000
31
0.0
0
LINE
8
1-0_REZ
10
-14.520000
20
-7.980000
30
0.0
11
-14.520000
21
-7.140000
31
0.0
0
LINE
8
1-0_REZ
10
1.720000
20
-11.180000
30
0.0
11
1.720000
21
-10.680000
31
0.0
0
LINE
8
1-0_REZ
10
1.720000
20
-10.200000
30
0.0
11
1.720000
21
-9.520000
31
0.0
0
LINE
8
1-0_REZ
10
11.760000
20
11.860000
30
0.0
11
11.760000
21
13.380000
31
0.0
0
LINE
8
1-0_REZ
10
9.700000
20
-4.520000
30
0.0
11
9.700000
21
-3.680000
31
0.0
0
LINE
8
1-0_REZ
10
4.740000
20
2.380000
30
0.0
11
4.740000
21
3.100000
31
0.0
0
LINE
8
1-0_REZ
10
-1.040000
20
-4.280000
30
0.0
11
-1.040000
21
-3.860000
31
0.0
0
LINE
8
1-0_REZ
10
-0.220000
20
-4.820000
30
0.0
11
-0.220000
21
-4.400000
31
0.0
0
LINE
8
1-0_REZ
10
-13.920000
20
-12.220000
30
0.0
11
-13.920000
21
-10.980000
31
0.0
0
LINE
8
1-0_REZ
10
1.600000
20
-9.680000
30
0.0
11
1.600000
21
-9.200000
31
0.0
0
LINE
8
1-0_REZ
10
8.580000
20
-6.180000
30
0.0
11
8.580000
21
-5.500000
31
0.0
0
LINE
8
1-0_REZ
10
8.580000
20
-3.240000
30
0.0
11
8.580000
21
-2.760000
31
0.0
0
LINE
8
1-0_REZ
10
0.140000
20
3.000000
30
0.0
11
0.140000
21
4.720000
31
0.0
0
LINE
8
1-0_REZ
10
10.800000
20
4.420000
30
0.0
11
10.800000
21
5.240000
31
0.0
0
LINE
8
1-0_REZ
10
10.800000
20
7.500000
30
0.0
11
10.800000
21
12.640000
31
0.0
0
LINE
8
1-0_REZ
10
10.800000
20
13.980000
30
0.0
11
10.800000
21
15.140000
31
0.0
0
LINE
8
1-0_REZ
10
8.520000
20
-6.180000
30
0.0
11
8.520000
21
-5.240000
31
0.0
0
LINE
8
1-0_REZ
10
-14.620000
20
-8.000000
30
0.0
11
-14.620000
21
-6.900000
31
0.0
0
LINE
8
1-0_REZ
10
0.180000
20
1.660000
30
0.0
11
0.180000
21
2.620000
31
0.0
0
LINE
8
1-0_REZ
10
0.180000
20
4.160000
30
0.0
11
0.180000
21
4.660000
31
0.0
0
LINE
8
1-0_REZ
10
-1.140000
20
-4.240000
30
0.0
11
-1.140000
21
-3.860000
31
0.0
0
LINE
8
1-0_REZ
10
10.820000
20
4.420000
30
0.0
11
10.820000
21
5.160000
31
0.0
0
LINE
8
1-0_REZ
10
10.820000
20
8.680000
30
0.0
11
10.820000
21
12.620000
31
0.0
0
LINE
8
1-0_REZ
10
10.820000
20
13.980000
30
0.0
11
10.820000
21
15.000000
31
0.0
0
LINE
8
1-0_REZ
10
0.840000
20
-3.380000
30
0.0
11
0.840000
21
-2.760000
31
0.0
0
LINE
8
1-0_REZ
10
10.780000
20
3.180000
30
0.0
11
10.780000
21
5.480000
31
0.0
0
LINE
8
1-0_REZ
10
10.780000
20
6.980000
30
0.0
11
10.780000
21
8.660000
31
0.0
0
LINE
8
1-0_REZ
10
10.780000
20
8.760000
30
0.0
11
10.780000
21
9.240000
31
0.0
0
LINE
8
1-0_REZ
10
12.500000
20
-9.440000
30
0.0
11
12.500000
21
-8.640000
31
0.0
0
LINE
8
1-0_REZ
10
1.960000
20
3.580000
30
0.0
11
1.960000
21
4.160000
31
0.0
0
LINE
8
1-0_REZ
10
23.220000
20
-13.240000
30
0.0
11
23.220000
21
-12.300000
31
0.0
0
LINE
8
1-0_REZ
10
3.840000
20
2.680000
30
0.0
11
3.840000
21
3.160000
31
0.0
0
LINE
8
1-0_REZ
10
-1.840000
20
-6.720000
30
0.0
11
-1.840000
21
-6.320000
31
0.0
0
LINE
8
1-0_REZ
10
-1.840000
20
-5.260000
30
0.0
11
-1.840000
21
-4.820000
31
0.0
0
LINE
8
1-0_REZ
10
0.080000
20
-8.960000
30
0.0
11
0.080000
21
-8.520000
31
0.0
0
LINE
8
1-0_REZ
10
1.900000
20
-11.780000
30
0.0
11
1.900000
21
-11.220000
31
0.0
0
LINE
8
1-0_REZ
10
1.900000
20
-10.200000
30
0.0
11
1.900000
21
-9.780000
31
0.0
0
LINE
8
1-0_REZ
10
1.900000
20
3.600000
30
0.0
11
1.900000
21
4.180000
31
0.0
0
LINE
8
1-0_REZ
10
13.040000
20
11.440000
30
0.0
11
13.040000
21
11.980000
31
0.0
0
LINE
8
1-0_REZ
10
6.060000
20
-8.660000
30
0.0
11
6.060000
21
-8.180000
31
0.0
0
LINE
8
1-0_REZ
10
23.460000
20
-12.760000
30
0.0
11
23.460000
21
-9.860000
31
0.0
0
LINE
8
1-0_REZ
10
23.460000
20
1.980000
30
0.0
11
23.460000
21
2.440000
31
0.0
0
LINE
8
1-0_REZ
10
23.460000
20
5.080000
30
0.0
11
23.460000
21
6.060000
31
0.0
0
LINE
8
1-0_REZ
10
4.080000
20
-9.940000
30
0.0
11
4.080000
21
-9.440000
31
0.0
0
LINE
8
1-0_REZ
10
4.080000
20
2.400000
30
0.0
11
4.080000
21
3.160000
31
0.0
0
LINE
8
1-0_REZ
10
9.060000
20
-3.220000
30
0.0
11
9.060000
21
-2.780000
31
0.0
0
LINE
8
1-0_REZ
10
23.320000
20
-13.240000
30
0.0
11
23.320000
21
-12.780000
31
0.0
0
LINE
8
1-0_REZ
10
23.320000
20
-9.220000
30
0.0
11
23.320000
21
-8.660000
31
0.0
0
LINE
8
1-0_REZ
10
23.520000
20
-11.220000
30
0.0
11
23.520000
21
-10.440000
31
0.0
0
LINE
8
1-0_REZ
10
23.520000
20
0.080000
30
0.0
11
23.520000
21
2.120000
31
0.0
0
LINE
8
1-0_REZ
10
23.520000
20
11.060000
30
0.0
11
23.520000
21
11.860000
31
0.0
0
LINE
8
1-0_REZ
10
23.520000
20
14.020000
30
0.0
11
23.520000
21
15.080000
31
0.0
0
LINE
8
1-0_REZ
10
-14.540000
20
-7.980000
30
0.0
11
-14.540000
21
-6.920000
31
0.0
0
LINE
8
1-0_REZ
10
-12.680000
20
-7.780000
30
0.0
11
-12.680000
21
-7.200000
31
0.0
0
LINE
8
1-0_REZ
10
-13.460000
20
-11.600000
30
0.0
11
-13.460000
21
-10.960000
31
0.0
0
LINE
8
1-0_REZ
10
-1.800000
20
-11.620000
30
0.0
11
-1.800000
21
-11.180000
31
0.0
0
LINE
8
1-0_REZ
10
-1.800000
20
-6.740000
30
0.0
11
-1.800000
21
-6.320000
31
0.0
0
LINE
8
1-0_REZ
10
-1.800000
20
-5.260000
30
0.0
11
-1.800000
21
-4.840000
31
0.0
0
LINE
8
1-0_REZ
10
3.340000
20
-0.480000
30
0.0
11
3.340000
21
-0.100000
31
0.0
0
LINE
8
1-0_REZ
10
4.020000
20
4.200000
30
0.0
11
4.020000
21
4.600000
31
0.0
0
LINE
8
1-0_REZ
10
-12.400000
20
-7.680000
30
0.0
11
-12.400000
21
-7.140000
31
0.0
0
LINE
8
1-0_REZ
10
-13.440000
20
-11.600000
30
0.0
11
-13.440000
21
-10.960000
31
0.0
0
LINE
8
1-0_REZ
10
-7.460000
20
-10.460000
30
0.0
11
-7.460000
21
-10.020000
31
0.0
0
LINE
8
1-0_REZ
10
7.020000
20
3.740000
30
0.0
11
7.020000
21
4.220000
31
0.0
0
LINE
8
1-0_REZ
10
4.260000
20
-10.660000
30
0.0
11
4.260000
21
-9.740000
31
0.0
0
LINE
8
1-0_REZ
10
4.260000
20
-9.240000
30
0.0
11
4.260000
21
-8.800000
31
0.0
0
LINE
8
1-0_REZ
10
4.260000
20
-2.080000
30
0.0
11
4.260000
21
-1.620000
31
0.0
0
LINE
8
1-0_REZ
10
4.260000
20
2.380000
30
0.0
11
4.260000
21
3.160000
31
0.0
0
LINE
8
1-0_REZ
10
22.840000
20
-1.720000
30
0.0
11
22.840000
21
2.820000
31
0.0
0
LINE
8
1-0_REZ
10
-13.200000
20
-11.800000
30
0.0
11
-13.200000
21
-10.960000
31
0.0
0
LINE
8
1-0_REZ
10
9.180000
20
-3.260000
30
0.0
11
9.180000
21
-2.780000
31
0.0
0
LINE
8
1-0_REZ
10
-7.180000
20
-9.620000
30
0.0
11
-7.180000
21
-8.920000
31
0.0
0
LINE
8
1-0_REZ
10
5.300000
20
2.300000
30
0.0
11
5.300000
21
2.760000
31
0.0
0
LINE
8
1-0_REZ
10
22.800000
20
-10.140000
30
0.0
11
22.800000
21
-5.440000
31
0.0
0
LINE
8
1-0_REZ
10
22.800000
20
-5.120000
30
0.0
11
22.800000
21
-3.960000
31
0.0
0
LINE
8
1-0_REZ
10
-13.300000
20
-11.700000
30
0.0
11
-13.300000
21
-10.960000
31
0.0
0
LINE
8
1-0_REZ
10
1.400000
20
-11.320000
30
0.0
11
1.400000
21
-10.740000
31
0.0
0
LINE
8
1-0_REZ
10
1.400000
20
-6.900000
30
0.0
11
1.400000
21
-6.440000
31
0.0
0
LINE
8
1-0_REZ
10
1.400000
20
3.420000
30
0.0
11
1.400000
21
4.000000
31
0.0
0
LINE
8
1-0_REZ
10
13.980000
20
2.460000
30
0.0
11
13.980000
21
2.860000
31
0.0
0
LINE
8
1-0_REZ
10
1.380000
20
-11.760000
30
0.0
11
1.380000
21
-11.200000
31
0.0
0
LINE
8
1-0_REZ
10
1.380000
20
-9.540000
30
0.0
11
1.380000
21
-9.160000
31
0.0
0
LINE
8
1-0_REZ
10
1.380000
20
-6.900000
30
0.0
11
1.380000
21
-6.440000
31
0.0
0
LINE
8
1-0_REZ
10
1.380000
20
3.420000
30
0.0
11
1.380000
21
4.220000
31
0.0
0
LINE
8
1-0_REZ
10
1.420000
20
-11.320000
30
0.0
11
1.420000
21
-10.200000
31
0.0
0
LINE
8
1-0_REZ
10
1.420000
20
-6.900000
30
0.0
11
1.420000
21
-6.440000
31
0.0
0
LINE
8
1-0_REZ
10
-7.500000
20
-12.640000
30
0.0
11
-7.500000
21
-12.020000
31
0.0
0
LINE
8
1-0_REZ
10
4.460000
20
-6.640000
30
0.0
11
4.460000
21
-5.720000
31
0.0
0
LINE
8
1-0_REZ
10
4.460000
20
2.440000
30
0.0
11
4.460000
21
3.080000
31
0.0
0
LINE
8
1-0_REZ
10
-3.660000
20
-2.120000
30
0.0
11
-3.660000
21
-1.740000
31
0.0
0
LINE
8
1-0_REZ
10
4.520000
20
2.440000
30
0.0
11
4.520000
21
2.900000
31
0.0
0
LINE
8
1-0_REZ
10
6.280000
20
-8.740000
30
0.0
11
6.280000
21
-7.960000
31
0.0
0
LINE
8
1-0_REZ
10
6.280000
20
-7.640000
30
0.0
11
6.280000
21
-7.160000
31
0.0
0
LINE
8
1-0_REZ
10
6.280000
20
-3.120000
30
0.0
11
6.280000
21
-2.340000
31
0.0
0
LINE
8
1-0_REZ
10
6.280000
20
-2.120000
30
0.0
11
6.280000
21
-1.640000
31
0.0
0
LINE
8
1-0_REZ
10
6.280000
20
0.620000
30
0.0
11
6.280000
21
1.000000
31
0.0
0
LINE
8
1-0_REZ
10
-1.260000
20
-4.240000
30
0.0
11
-1.260000
21
-3.840000
31
0.0
0
LINE
8
1-0_REZ
10
-7.420000
20
-11.080000
30
0.0
11
-7.420000
21
-10.380000
31
0.0
0
LINE
8
1-0_REZ
10
-7.420000
20
-9.880000
30
0.0
11
-7.420000
21
-9.400000
31
0.0
0
LINE
8
1-0_REZ
10
-6.180000
20
-5.040000
30
0.0
11
-6.180000
21
-4.420000
31
0.0
0
LINE
8
1-0_REZ
10
10.380000
20
-2.800000
30
0.0
11
10.380000
21
-0.920000
31
0.0
0
LINE
8
1-0_REZ
10
5.440000
20
2.300000
30
0.0
11
5.440000
21
2.820000
31
0.0
0
LINE
8
1-0_REZ
10
8.500000
20
-8.100000
30
0.0
11
8.500000
21
-7.660000
31
0.0
0
LINE
8
1-0_REZ
10
8.500000
20
-6.180000
30
0.0
11
8.500000
21
-5.180000
31
0.0
0
LINE
8
1-0_REZ
10
3.600000
20
-2.500000
30
0.0
11
3.600000
21
-2.120000
31
0.0
0
LINE
8
1-0_REZ
10
15.300000
20
7.160000
30
0.0
11
15.300000
21
11.780000
31
0.0
0
LINE
8
1-0_REZ
10
4.560000
20
-5.340000
30
0.0
11
4.560000
21
-4.940000
31
0.0
0
LINE
8
1-0_REZ
10
4.560000
20
-4.060000
30
0.0
11
4.560000
21
-3.440000
31
0.0
0
LINE
8
1-0_REZ
10
4.560000
20
2.440000
30
0.0
11
4.560000
21
2.920000
31
0.0
0
LINE
8
1-0_REZ
10
4.760000
20
2.340000
30
0.0
11
4.760000
21
3.100000
31
0.0
0
LINE
8
1-0_REZ
10
-1.120000
20
-4.220000
30
0.0
11
-1.120000
21
-3.800000
31
0.0
0
LINE
8
1-0_REZ
10
8.400000
20
-6.180000
30
0.0
11
8.400000
21
-5.080000
31
0.0
0
LINE
8
1-0_REZ
10
15.280000
20
3.120000
30
0.0
11
15.280000
21
8.540000
31
0.0
0
LINE
8
1-0_REZ
10
0.060000
20
4.660000
30
0.0
11
0.060000
21
5.400000
31
0.0
0
LINE
8
1-0_REZ
10
-0.360000
20
0.620000
30
0.0
11
-0.360000
21
1.100000
31
0.0
0
LINE
8
1-0_REZ
10
0.740000
20
-3.340000
30
0.0
11
0.740000
21
-2.880000
31
0.0
0
LINE
8
1-0_REZ
10
-3.120000
20
-11.580000
30
0.0
11
-3.120000
21
-11.000000
31
0.0
0
LINE
8
1-0_REZ
10
4.480000
20
-6.180000
30
0.0
11
4.480000
21
-3.920000
31
0.0
0
LINE
8
1-0_REZ
10
4.480000
20
2.440000
30
0.0
11
4.480000
21
3.080000
31
0.0
0
LINE
8
1-0_REZ
10
-0.480000
20
-8.960000
30
0.0
11
-0.480000
21
-8.500000
31
0.0
0
LINE
8
1-0_REZ
10
-6.160000
20
-5.260000
30
0.0
11
-6.160000
21
-4.440000
31
0.0
0
LINE
8
1-0_REZ
10
1.920000
20
-10.200000
30
0.0
11
1.920000
21
-9.780000
31
0.0
0
LINE
8
1-0_REZ
10
1.920000
20
3.520000
30
0.0
11
1.920000
21
4.160000
31
0.0
0
LINE
8
1-0_REZ
10
10.560000
20
1.200000
30
0.0
11
10.560000
21
1.960000
31
0.0
0
LINE
8
1-0_REZ
10
1.700000
20
-11.180000
30
0.0
11
1.700000
21
-10.680000
31
0.0
0
LINE
8
1-0_REZ
10
1.700000
20
-10.220000
30
0.0
11
1.700000
21
-9.500000
31
0.0
0
LINE
8
1-0_REZ
10
11.740000
20
11.880000
30
0.0
11
11.740000
21
13.420000
31
0.0
0
LINE
8
1-0_REZ
10
7.880000
20
-11.980000
30
0.0
11
7.880000
21
-11.480000
31
0.0
0
LINE
8
1-0_REZ
10
-0.040000
20
5.020000
30
0.0
11
-0.040000
21
5.400000
31
0.0
0
LINE
8
1-0_REZ
10
-0.020000
20
4.900000
30
0.0
11
-0.020000
21
5.360000
31
0.0
0
LINE
8
1-0_REZ
10
1.060000
20
-12.040000
30
0.0
11
1.060000
21
-10.940000
31
0.0
0
LINE
8
1-0_REZ
10
1.060000
20
-0.200000
30
0.0
11
1.060000
21
0.400000
31
0.0
0
LINE
8
1-0_REZ
10
8.560000
20
-6.180000
30
0.0
11
8.560000
21
-5.380000
31
0.0
0
LINE
8
1-0_REZ
10
9.660000
20
-9.840000
30
0.0
11
9.660000
21
-8.780000
31
0.0
0
LINE
8
1-0_REZ
10
4.900000
20
-5.580000
30
0.0
11
4.900000
21
-5.200000
31
0.0
0
LINE
8
1-0_REZ
10
4.900000
20
2.340000
30
0.0
11
4.900000
21
2.900000
31
0.0
0
LINE
8
1-0_REZ
10
1.820000
20
-11.360000
30
0.0
11
1.820000
21
-10.680000
31
0.0
0
LINE
8
1-0_REZ
10
1.820000
20
-10.200000
30
0.0
11
1.820000
21
-9.780000
31
0.0
0
LINE
8
1-0_REZ
10
1.820000
20
-3.400000
30
0.0
11
1.820000
21
-2.860000
31
0.0
0
LINE
8
1-0_REZ
10
9.640000
20
-13.400000
30
0.0
11
9.640000
21
-12.660000
31
0.0
0
LINE
8
1-0_REZ
10
-14.640000
20
-7.980000
30
0.0
11
-14.640000
21
-6.880000
31
0.0
0
LINE
8
1-0_REZ
10
0.880000
20
-6.880000
30
0.0
11
0.880000
21
-6.420000
31
0.0
0
LINE
8
1-0_REZ
10
0.880000
20
-3.380000
30
0.0
11
0.880000
21
-2.760000
31
0.0
0
LINE
8
1-0_REZ
10
9.620000
20
-13.420000
30
0.0
11
9.620000
21
-12.660000
31
0.0
0
LINE
8
1-0_REZ
10
9.620000
20
-3.300000
30
0.0
11
9.620000
21
-2.880000
31
0.0
0
LINE
8
1-0_REZ
10
9.720000
20
-0.760000
30
0.0
11
9.720000
21
0.100000
31
0.0
0
LINE
8
1-0_REZ
10
9.720000
20
2.160000
30
0.0
11
9.720000
21
3.140000
31
0.0
0
LINE
8
1-0_REZ
10
9.720000
20
3.500000
30
0.0
11
9.720000
21
4.500000
31
0.0
0
LINE
8
1-0_REZ
10
-5.980000
20
-4.980000
30
0.0
11
-5.980000
21
-4.540000
31
0.0
0
LINE
8
1-0_REZ
10
9.540000
20
-3.280000
30
0.0
11
9.540000
21
-2.720000
31
0.0
0
LINE
8
1-0_REZ
10
-1.860000
20
-6.740000
30
0.0
11
-1.860000
21
-6.320000
31
0.0
0
LINE
8
1-0_REZ
10
-1.860000
20
-5.260000
30
0.0
11
-1.860000
21
-4.820000
31
0.0
0
LINE
8
1-0_REZ
10
0.100000
20
-8.960000
30
0.0
11
0.100000
21
-8.520000
31
0.0
0
LINE
8
1-0_REZ
10
0.100000
20
1.300000
30
0.0
11
0.100000
21
1.700000
31
0.0
0
LINE
8
1-0_REZ
10
0.100000
20
4.240000
30
0.0
11
0.100000
21
4.720000
31
0.0
0
LINE
8
1-0_REZ
10
-14.740000
20
-7.260000
30
0.0
11
-14.740000
21
-6.820000
31
0.0
0
LINE
8
1-0_REZ
10
23.280000
20
-13.240000
30
0.0
11
23.280000
21
-8.660000
31
0.0
0
LINE
8
1-0_REZ
10
1.260000
20
1.900000
30
0.0
11
1.260000
21
2.400000
31
0.0
0
LINE
8
1-0_REZ
10
13.020000
20
5.460000
30
0.0
11
13.020000
21
5.840000
31
0.0
0
LINE
8
1-0_REZ
10
13.020000
20
8.440000
30
0.0
11
13.020000
21
8.840000
31
0.0
0
LINE
8
1-0_REZ
10
-11.740000
20
-8.340000
30
0.0
11
-11.740000
21
-7.920000
31
0.0
0
LINE
8
1-0_REZ
10
13.720000
20
12.080000
30
0.0
11
13.720000
21
13.420000
31
0.0
0
LINE
8
1-0_REZ
10
6.080000
20
-8.660000
30
0.0
11
6.080000
21
-8.060000
31
0.0
0
LINE
8
1-0_REZ
10
0.020000
20
4.680000
30
0.0
11
0.020000
21
5.400000
31
0.0
0
LINE
8
1-0_REZ
10
23.660000
20
12.080000
30
0.0
11
23.660000
21
14.060000
31
0.0
0
LINE
8
1-0_REZ
10
-1.960000
20
-5.260000
30
0.0
11
-1.960000
21
-4.840000
31
0.0
0
LINE
8
1-0_REZ
10
23.400000
20
-12.800000
30
0.0
11
23.400000
21
-12.040000
31
0.0
0
LINE
8
1-0_REZ
10
23.400000
20
-6.920000
30
0.0
11
23.400000
21
-6.280000
31
0.0
0
LINE
8
1-0_REZ
10
-5.720000
20
-6.000000
30
0.0
11
-5.720000
21
-5.460000
31
0.0
0
LINE
8
1-0_REZ
10
5.320000
20
2.300000
30
0.0
11
5.320000
21
2.760000
31
0.0
0
LINE
8
1-0_REZ
10
23.540000
20
0.120000
30
0.0
11
23.540000
21
2.100000
31
0.0
0
LINE
8
1-0_REZ
10
23.540000
20
11.520000
30
0.0
11
23.540000
21
12.080000
31
0.0
0
LINE
8
1-0_REZ
10
3.320000
20
-0.480000
30
0.0
11
3.320000
21
-0.100000
31
0.0
0
LINE
8
1-0_REZ
10
10.920000
20
-11.740000
30
0.0
11
10.920000
21
-10.560000
31
0.0
0
LINE
8
1-0_REZ
10
4.100000
20
2.400000
30
0.0
11
4.100000
21
3.160000
31
0.0
0
LINE
8
1-0_REZ
10
7.060000
20
3.720000
30
0.0
11
7.060000
21
4.220000
31
0.0
0
LINE
8
1-0_REZ
10
10.280000
20
-2.800000
30
0.0
11
10.280000
21
-2.140000
31
0.0
0
LINE
8
1-0_REZ
10
1.220000
20
-6.900000
30
0.0
11
1.220000
21
-6.420000
31
0.0
0
LINE
8
1-0_REZ
10
1.220000
20
1.060000
30
0.0
11
1.220000
21
1.620000
31
0.0
0
LINE
8
1-0_REZ
10
23.240000
20
-13.260000
30
0.0
11
23.240000
21
-9.400000
31
0.0
0
LINE
8
1-0_REZ
10
10.740000
20
-5.340000
30
0.0
11
10.740000
21
-3.740000
31
0.0
0
LINE
8
1-0_REZ
10
10.740000
20
-3.420000
30
0.0
11
10.740000
21
1.820000
31
0.0
0
LINE
8
1-0_REZ
10
10.740000
20
4.140000
30
0.0
11
10.740000
21
5.280000
31
0.0
0
LINE
8
1-0_REZ
10
4.340000
20
-5.320000
30
0.0
11
4.340000
21
-4.340000
31
0.0
0
LINE
8
1-0_REZ
10
4.340000
20
-3.820000
30
0.0
11
4.340000
21
-2.600000
31
0.0
0
LINE
8
1-0_REZ
10
4.340000
20
2.300000
30
0.0
11
4.340000
21
3.080000
31
0.0
0
LINE
8
1-0_REZ
10
-1.820000
20
-5.260000
30
0.0
11
-1.820000
21
-4.300000
31
0.0
0
LINE
8
1-0_REZ
10
8.120000
20
3.680000
30
0.0
11
8.120000
21
4.080000
31
0.0
0
LINE
8
1-0_REZ
10
-7.440000
20
-11.100000
30
0.0
11
-7.440000
21
-10.540000
31
0.0
0
LINE
8
1-0_REZ
10
-7.440000
20
-9.880000
30
0.0
11
-7.440000
21
-9.460000
31
0.0
0
LINE
8
1-0_REZ
10
-5.580000
20
-6.000000
30
0.0
11
-5.580000
21
-5.460000
31
0.0
0
LINE
8
1-0_REZ
10
-1.360000
20
-4.240000
30
0.0
11
-1.360000
21
-3.860000
31
0.0
0
LINE
8
1-0_REZ
10
22.860000
20
1.700000
30
0.0
11
22.860000
21
5.420000
31
0.0
0
LINE
8
1-0_REZ
10
1.280000
20
1.000000
30
0.0
11
1.280000
21
1.380000
31
0.0
0
LINE
8
1-0_REZ
10
1.280000
20
2.260000
30
0.0
11
1.280000
21
2.780000
31
0.0
0
LINE
8
1-0_REZ
10
11.280000
20
7.440000
30
0.0
11
11.280000
21
8.780000
31
0.0
0
LINE
8
1-0_REZ
10
6.120000
20
-9.020000
30
0.0
11
6.120000
21
-8.040000
31
0.0
0
LINE
8
1-0_REZ
10
6.320000
20
-8.740000
30
0.0
11
6.320000
21
-7.980000
31
0.0
0
LINE
8
1-0_REZ
10
6.320000
20
-7.640000
30
0.0
11
6.320000
21
-7.100000
31
0.0
0
LINE
8
1-0_REZ
10
6.320000
20
-0.380000
30
0.0
11
6.320000
21
0.140000
31
0.0
0
LINE
8
1-0_REZ
10
1.120000
20
-10.520000
30
0.0
11
1.120000
21
-9.920000
31
0.0
0
LINE
8
1-0_REZ
10
1.120000
20
-6.880000
30
0.0
11
1.120000
21
-6.440000
31
0.0
0
LINE
8
1-0_REZ
10
7.300000
20
2.720000
30
0.0
11
7.300000
21
3.540000
31
0.0
0
LINE
8
1-0_REZ
10
22.780000
20
-9.680000
30
0.0
11
22.780000
21
-9.280000
31
0.0
0
LINE
8
1-0_REZ
10
22.780000
20
-9.140000
30
0.0
11
22.780000
21
-8.380000
31
0.0
0
LINE
8
1-0_REZ
10
23.600000
20
12.280000
30
0.0
11
23.600000
21
14.080000
31
0.0
0
LINE
8
1-0_REZ
10
-13.320000
20
-11.680000
30
0.0
11
-13.320000
21
-10.960000
31
0.0
0
LINE
8
1-0_REZ
10
-2.600000
20
-6.780000
30
0.0
11
-2.600000
21
-6.300000
31
0.0
0
LINE
8
1-0_REZ
10
15.260000
20
-3.520000
30
0.0
11
15.260000
21
5.420000
31
0.0
0
LINE
8
1-0_REZ
10
22.900000
20
7.340000
30
0.0
11
22.900000
21
11.640000
31
0.0
0
LINE
8
1-0_REZ
10
6.520000
20
1.220000
30
0.0
11
6.520000
21
1.680000
31
0.0
0
LINE
8
1-0_REZ
10
5.400000
20
2.300000
30
0.0
11
5.400000
21
2.740000
31
0.0
0
LINE
8
1-0_REZ
10
-3.560000
20
-3.440000
30
0.0
11
-3.560000
21
-2.820000
31
0.0
0
LINE
8
1-0_REZ
10
-13.420000
20
-11.660000
30
0.0
11
-13.420000
21
-10.960000
31
0.0
0
LINE
8
1-0_REZ
10
4.400000
20
2.420000
30
0.0
11
4.400000
21
3.080000
31
0.0
0
LINE
8
1-0_REZ
10
8.640000
20
-3.240000
30
0.0
11
8.640000
21
-2.740000
31
0.0
0
LINE
8
1-0_REZ
10
8.280000
20
-7.880000
30
0.0
11
8.280000
21
-7.380000
31
0.0
0
LINE
8
1-0_REZ
10
-2.460000
20
-6.720000
30
0.0
11
-2.460000
21
-6.300000
31
0.0
0
LINE
8
1-0_REZ
10
-14.960000
20
-12.840000
30
0.0
11
-14.960000
21
-12.380000
31
0.0
0
LINE
8
1-0_REZ
10
-7.360000
20
-9.480000
30
0.0
11
-7.360000
21
-8.580000
31
0.0
0
LINE
8
1-0_REZ
10
-7.360000
20
-8.500000
30
0.0
11
-7.360000
21
-8.100000
31
0.0
0
LINE
8
1-0_REZ
10
-5.120000
20
-3.320000
30
0.0
11
-5.120000
21
-2.820000
31
0.0
0
LINE
8
1-0_REZ
10
-4.300000
20
-4.240000
30
0.0
11
-4.300000
21
-3.440000
31
0.0
0
LINE
8
1-0_REZ
10
-4.300000
20
-3.360000
30
0.0
11
-4.300000
21
-2.840000
31
0.0
0
LINE
8
1-0_REZ
10
3.620000
20
2.700000
30
0.0
11
3.620000
21
3.160000
31
0.0
0
LINE
8
1-0_REZ
10
-1.380000
20
-4.220000
30
0.0
11
-1.380000
21
-3.840000
31
0.0
0
LINE
8
1-0_REZ
10
3.560000
20
-4.700000
30
0.0
11
3.560000
21
-4.100000
31
0.0
0
LINE
8
1-0_REZ
10
3.560000
20
2.700000
30
0.0
11
3.560000
21
3.160000
31
0.0
0
LINE
8
1-0_REZ
10
8.540000
20
-6.180000
30
0.0
11
8.540000
21
-5.300000
31
0.0
0
LINE
8
1-0_REZ
10
-0.240000
20
-11.840000
30
0.0
11
-0.240000
21
-11.460000
31
0.0
0
LINE
8
1-0_REZ
10
-0.240000
20
-3.280000
30
0.0
11
-0.240000
21
-2.760000
31
0.0
0
LINE
8
1-0_REZ
10
22.980000
20
-11.420000
30
0.0
11
22.980000
21
-10.260000
31
0.0
0
LINE
8
1-0_REZ
10
4.640000
20
2.360000
30
0.0
11
4.640000
21
2.900000
31
0.0
0
LINE
8
1-0_REZ
10
-1.480000
20
-6.980000
30
0.0
11
-1.480000
21
-6.440000
31
0.0
0
LINE
8
1-0_REZ
10
10.760000
20
-2.040000
30
0.0
11
10.760000
21
-1.600000
31
0.0
0
LINE
8
1-0_REZ
10
10.760000
20
1.180000
30
0.0
11
10.760000
21
3.880000
31
0.0
0
LINE
8
1-0_REZ
10
10.760000
20
4.200000
30
0.0
11
10.760000
21
6.200000
31
0.0
0
LINE
8
1-0_REZ
10
3.460000
20
-1.300000
30
0.0
11
3.460000
21
-0.860000
31
0.0
0
LINE
8
1-0_REZ
10
-2.320000
20
-6.700000
30
0.0
11
-2.320000
21
-6.300000
31
0.0
0
LINE
8
1-0_REZ
10
7.620000
20
3.840000
30
0.0
11
7.620000
21
4.280000
31
0.0
0
LINE
8
1-0_REZ
10
15.220000
20
-8.720000
30
0.0
11
15.220000
21
-5.580000
31
0.0
0
LINE
8
1-0_REZ
10
6.380000
20
-8.740000
30
0.0
11
6.380000
21
-7.980000
31
0.0
0
LINE
8
1-0_REZ
10
6.380000
20
-7.640000
30
0.0
11
6.380000
21
-7.120000
31
0.0
0
LINE
8
1-0_REZ
10
6.380000
20
1.000000
30
0.0
11
6.380000
21
1.540000
31
0.0
0
LINE
8
1-0_REZ
10
-0.340000
20
0.640000
30
0.0
11
-0.340000
21
1.120000
31
0.0
0
LINE
8
1-0_REZ
10
3.820000
20
2.740000
30
0.0
11
3.820000
21
3.160000
31
0.0
0
LINE
8
1-0_REZ
10
-9.780000
20
-6.300000
30
0.0
11
-9.780000
21
-5.820000
31
0.0
0
LINE
8
1-0_REZ
10
6.880000
20
3.860000
30
0.0
11
6.880000
21
4.340000
31
0.0
0
LINE
8
1-0_REZ
10
1.880000
20
-11.780000
30
0.0
11
1.880000
21
-11.240000
31
0.0
0
LINE
8
1-0_REZ
10
1.880000
20
-10.200000
30
0.0
11
1.880000
21
-9.780000
31
0.0
0
LINE
8
1-0_REZ
10
1.880000
20
3.600000
30
0.0
11
1.880000
21
4.200000
31
0.0
0
LINE
8
1-0_REZ
10
23.640000
20
12.080000
30
0.0
11
23.640000
21
14.060000
31
0.0
0
LINE
8
1-0_REZ
10
24.360000
20
4.340000
30
0.0
11
24.360000
21
5.060000
31
0.0
0
LINE
8
1-0_REZ
10
24.360000
20
6.080000
30
0.0
11
24.360000
21
7.400000
31
0.0
0
LINE
8
1-0_REZ
10
24.360000
20
7.480000
30
0.0
11
24.360000
21
8.100000
31
0.0
0
LINE
8
1-0_REZ
10
10.660000
20
-5.800000
30
0.0
11
10.660000
21
-5.200000
31
0.0
0
LINE
8
1-0_REZ
10
10.660000
20
3.920000
30
0.0
11
10.660000
21
4.360000
31
0.0
0
LINE
8
1-0_REZ
10
10.660000
20
4.540000
30
0.0
11
10.660000
21
5.460000
31
0.0
0
LINE
8
1-0_REZ
10
4.880000
20
-5.580000
30
0.0
11
4.880000
21
-4.740000
31
0.0
0
LINE
8
1-0_REZ
10
4.880000
20
2.320000
30
0.0
11
4.880000
21
2.900000
31
0.0
0
LINE
8
1-0_REZ
10
-7.000000
20
-1.660000
30
0.0
11
-7.000000
21
-1.140000
31
0.0
0
LINE
8
1-0_REZ
10
-5.080000
20
-3.120000
30
0.0
11
-5.080000
21
-2.620000
31
0.0
0
LINE
8
1-0_REZ
10
-13.840000
20
-10.640000
30
0.0
11
-13.840000
21
-10.260000
31
0.0
0
LINE
8
1-0_REZ
10
-12.640000
20
-7.780000
30
0.0
11
-12.640000
21
-6.200000
31
0.0
0
LINE
8
1-0_REZ
10
-1.920000
20
-6.740000
30
0.0
11
-1.920000
21
-6.320000
31
0.0
0
LINE
8
1-0_REZ
10
-1.920000
20
-5.260000
30
0.0
11
-1.920000
21
-4.820000
31
0.0
0
LINE
8
1-0_REZ
10
-0.920000
20
-9.360000
30
0.0
11
-0.920000
21
-8.960000
31
0.0
0
LINE
8
1-0_REZ
10
-0.920000
20
-0.280000
30
0.0
11
-0.920000
21
0.720000
31
0.0
0
LINE
8
1-0_REZ
10
-0.920000
20
4.820000
30
0.0
11
-0.920000
21
5.400000
31
0.0
0
LINE
8
1-0_REZ
10
8.600000
20
-6.180000
30
0.0
11
8.600000
21
-5.600000
31
0.0
0
LINE
8
1-0_REZ
10
8.600000
20
-3.240000
30
0.0
11
8.600000
21
-2.760000
31
0.0
0
LINE
8
1-0_REZ
10
4.780000
20
2.340000
30
0.0
11
4.780000
21
3.140000
31
0.0
0
LINE
8
1-0_REZ
10
0.200000
20
1.680000
30
0.0
11
0.200000
21
2.500000
31
0.0
0
LINE
8
1-0_REZ
10
23.420000
20
-12.800000
30
0.0
11
23.420000
21
-11.780000
31
0.0
0
LINE
8
1-0_REZ
10
23.420000
20
-3.540000
30
0.0
11
23.420000
21
-2.880000
31
0.0
0
LINE
8
1-0_REZ
10
23.420000
20
-0.600000
30
0.0
11
23.420000
21
-0.220000
31
0.0
0
LINE
8
1-0_REZ
10
-5.840000
20
-5.940000
30
0.0
11
-5.840000
21
-5.520000
31
0.0
0
LINE
8
1-0_REZ
10
23.260000
20
-13.240000
30
0.0
11
23.260000
21
-8.740000
31
0.0
0
LINE
8
1-0_REZ
10
-4.820000
20
-9.260000
30
0.0
11
-4.820000
21
-8.780000
31
0.0
0
LINE
8
1-0_REZ
10
8.920000
20
-3.260000
30
0.0
11
8.920000
21
-2.760000
31
0.0
0
LINE
8
1-0_REZ
10
23.300000
20
-13.040000
30
0.0
11
23.300000
21
-12.280000
31
0.0
0
LINE
8
1-0_REZ
10
23.300000
20
-11.180000
30
0.0
11
23.300000
21
-8.680000
31
0.0
0
LINE
8
1-0_REZ
10
1.300000
20
-9.880000
30
0.0
11
1.300000
21
-9.460000
31
0.0
0
LINE
8
1-0_REZ
10
1.300000
20
-6.920000
30
0.0
11
1.300000
21
-6.440000
31
0.0
0
LINE
8
1-0_REZ
10
1.300000
20
2.640000
30
0.0
11
1.300000
21
3.160000
31
0.0
0
LINE
8
1-0_REZ
10
8.900000
20
-3.260000
30
0.0
11
8.900000
21
-2.760000
31
0.0
0
LINE
8
1-0_REZ
10
10.720000
20
4.100000
30
0.0
11
10.720000
21
5.340000
31
0.0
0
LINE
8
1-0_REZ
10
1.140000
20
-10.000000
30
0.0
11
1.140000
21
-9.560000
31
0.0
0
LINE
8
1-0_REZ
10
1.140000
20
-6.880000
30
0.0
11
1.140000
21
-6.440000
31
0.0
0
LINE
8
1-0_REZ
10
1.340000
20
-6.920000
30
0.0
11
1.340000
21
-6.440000
31
0.0
0
LINE
8
1-0_REZ
10
1.340000
20
3.540000
30
0.0
11
1.340000
21
4.220000
31
0.0
0
LINE
8
1-0_REZ
10
-3.820000
20
-9.280000
30
0.0
11
-3.820000
21
-8.840000
31
0.0
0
LINE
8
1-0_REZ
10
-2.720000
20
-6.740000
30
0.0
11
-2.720000
21
-6.280000
31
0.0
0
LINE
8
1-0_REZ
10
6.900000
20
0.260000
30
0.0
11
6.900000
21
0.800000
31
0.0
0
LINE
8
1-0_REZ
10
6.900000
20
3.860000
30
0.0
11
6.900000
21
4.320000
31
0.0
0
LINE
8
1-0_REZ
10
8.100000
20
3.580000
30
0.0
11
8.100000
21
4.200000
31
0.0
0
LINE
8
1-0_REZ
10
4.240000
20
-11.980000
30
0.0
11
4.240000
21
-10.220000
31
0.0
0
LINE
8
1-0_REZ
10
4.240000
20
-4.400000
30
0.0
11
4.240000
21
-3.800000
31
0.0
0
LINE
8
1-0_REZ
10
4.240000
20
-2.640000
30
0.0
11
4.240000
21
-2.200000
31
0.0
0
LINE
8
1-0_REZ
10
4.240000
20
-2.080000
30
0.0
11
4.240000
21
-1.660000
31
0.0
0
LINE
8
1-0_REZ
10
4.240000
20
2.400000
30
0.0
11
4.240000
21
3.160000
31
0.0
0
LINE
8
1-0_REZ
10
5.420000
20
2.300000
30
0.0
11
5.420000
21
2.760000
31
0.0
0
LINE
8
1-0_REZ
10
-2.700000
20
-6.760000
30
0.0
11
-2.700000
21
-6.300000
31
0.0
0
LINE
8
1-0_REZ
10
10.940000
20
-12.120000
30
0.0
11
10.940000
21
-9.720000
31
0.0
0
LINE
8
1-0_REZ
10
10.140000
20
-1.120000
30
0.0
11
10.140000
21
-0.720000
31
0.0
0
LINE
8
1-0_REZ
10
5.280000
20
2.300000
30
0.0
11
5.280000
21
2.740000
31
0.0
0
LINE
8
1-0_REZ
10
8.260000
20
-7.880000
30
0.0
11
8.260000
21
-7.240000
31
0.0
0
LINE
8
1-0_REZ
10
-13.360000
20
-11.680000
30
0.0
11
-13.360000
21
-10.960000
31
0.0
0
LINE
8
1-0_REZ
10
8.960000
20
-3.260000
30
0.0
11
8.960000
21
-2.780000
31
0.0
0
LINE
8
1-0_REZ
10
10.160000
20
-2.160000
30
0.0
11
10.160000
21
-1.660000
31
0.0
0
LINE
8
1-0_REZ
10
11.260000
20
7.440000
30
0.0
11
11.260000
21
8.660000
31
0.0
0
LINE
8
1-0_REZ
10
7.500000
20
-0.340000
30
0.0
11
7.500000
21
0.160000
31
0.0
0
LINE
8
1-0_REZ
10
8.080000
20
3.540000
30
0.0
11
8.080000
21
4.240000
31
0.0
0
LINE
8
1-0_REZ
10
10.040000
20
1.660000
30
0.0
11
10.040000
21
2.160000
31
0.0
0
LINE
8
1-0_REZ
10
6.340000
20
-8.740000
30
0.0
11
6.340000
21
-7.980000
31
0.0
0
LINE
8
1-0_REZ
10
6.340000
20
-7.640000
30
0.0
11
6.340000
21
-7.120000
31
0.0
0
LINE
8
1-0_REZ
10
-5.540000
20
-6.080000
30
0.0
11
-5.540000
21
-5.500000
31
0.0
0
LINE
8
1-0_REZ
10
-12.480000
20
-7.760000
30
0.0
11
-12.480000
21
-7.140000
31
0.0
0
LINE
8
1-0_REZ
10
22.920000
20
10.080000
30
0.0
11
22.920000
21
11.800000
31
0.0
0
LINE
8
1-0_REZ
10
0.580000
20
0.640000
30
0.0
11
0.580000
21
1.040000
31
0.0
0
LINE
8
1-0_REZ
10
8.440000
20
-6.180000
30
0.0
11
8.440000
21
-5.100000
31
0.0
0
LINE
8
1-0_REZ
10
10.300000
20
-2.800000
30
0.0
11
10.300000
21
-2.140000
31
0.0
0
LINE
8
1-0_REZ
10
10.300000
20
-1.720000
30
0.0
11
10.300000
21
-1.140000
31
0.0
0
LINE
8
1-0_REZ
10
10.980000
20
-12.120000
30
0.0
11
10.980000
21
-9.740000
31
0.0
0
LINE
8
1-0_REZ
10
10.980000
20
-8.980000
30
0.0
11
10.980000
21
-8.600000
31
0.0
0
LINE
8
1-0_REZ
10
-4.240000
20
-3.080000
30
0.0
11
-4.240000
21
-2.660000
31
0.0
0
LINE
8
1-0_REZ
10
4.660000
20
2.400000
30
0.0
11
4.660000
21
2.900000
31
0.0
0
LINE
8
1-0_REZ
10
3.520000
20
-11.840000
30
0.0
11
3.520000
21
-11.460000
31
0.0
0
LINE
8
1-0_REZ
10
3.520000
20
-4.360000
30
0.0
11
3.520000
21
-3.860000
31
0.0
0
LINE
8
1-0_REZ
10
3.520000
20
-0.480000
30
0.0
11
3.520000
21
-0.100000
31
0.0
0
LINE
8
1-0_REZ
10
4.600000
20
2.420000
30
0.0
11
4.600000
21
2.940000
31
0.0
0
LINE
8
1-0_REZ
10
11.300000
20
7.540000
30
0.0
11
11.300000
21
8.380000
31
0.0
0
LINE
8
1-0_REZ
10
-6.100000
20
-5.180000
30
0.0
11
-6.100000
21
-4.380000
31
0.0
0
LINE
8
1-0_REZ
10
-6.100000
20
-3.940000
30
0.0
11
-6.100000
21
-3.200000
31
0.0
0
LINE
8
1-0_REZ
10
-4.280000
20
-3.740000
30
0.0
11
-4.280000
21
-2.800000
31
0.0
0
LINE
8
1-0_REZ
10
1.760000
20
-11.220000
30
0.0
11
1.760000
21
-10.660000
31
0.0
0
LINE
8
1-0_REZ
10
1.760000
20
-10.220000
30
0.0
11
1.760000
21
-9.780000
31
0.0
0
LINE
8
1-0_REZ
10
3.580000
20
2.700000
30
0.0
11
3.580000
21
3.160000
31
0.0
0
LINE
8
1-0_REZ
10
9.600000
20
-13.420000
30
0.0
11
9.600000
21
-12.660000
31
0.0
0
LINE
8
1-0_REZ
10
-7.760000
20
-2.140000
30
0.0
11
-7.760000
21
-1.760000
31
0.0
0
LINE
8
1-0_REZ
10
9.680000
20
-6.200000
30
0.0
11
9.680000
21
-3.600000
31
0.0
0
LINE
8
1-0_REZ
10
1.660000
20
-11.140000
30
0.0
11
1.660000
21
-10.700000
31
0.0
0
LINE
8
1-0_REZ
10
1.660000
20
-9.880000
30
0.0
11
1.660000
21
-9.200000
31
0.0
0
LINE
8
1-0_REZ
10
4.620000
20
2.440000
30
0.0
11
4.620000
21
2.920000
31
0.0
0
LINE
8
1-0_REZ
10
15.240000
20
-6.520000
30
0.0
11
15.240000
21
-1.260000
31
0.0
0
LINE
8
1-0_REZ
10
15.240000
20
-1.160000
30
0.0
11
15.240000
21
-0.600000
31
0.0
0
LINE
8
1-0_REZ
10
0.120000
20
3.260000
30
0.0
11
0.120000
21
4.720000
31
0.0
0
LINE
8
1-0_REZ
10
9.960000
20
12.620000
30
0.0
11
9.960000
21
13.760000
31
0.0
0
LINE
8
1-0_REZ
10
24.340000
20
3.600000
30
0.0
11
24.340000
21
5.100000
31
0.0
0
LINE
8
1-0_REZ
10
24.340000
20
7.180000
30
0.0
11
24.340000
21
8.100000
31
0.0
0
LINE
8
1-0_REZ
10
0.160000
20
1.640000
30
0.0
11
0.160000
21
3.580000
31
0.0
0
LINE
8
1-0_REZ
10
0.160000
20
4.180000
30
0.0
11
0.160000
21
4.700000
31
0.0
0
LINE
8
1-0_REZ
10
10.960000
20
-12.120000
30
0.0
11
10.960000
21
-9.740000
31
0.0
0
LINE
8
1-0_REZ
10
23.480000
20
-12.540000
30
0.0
11
23.480000
21
-11.760000
31
0.0
0
LINE
8
1-0_REZ
10
23.480000
20
-11.320000
30
0.0
11
23.480000
21
-9.880000
31
0.0
0
LINE
8
1-0_REZ
10
23.480000
20
5.060000
30
0.0
11
23.480000
21
6.100000
31
0.0
0
LINE
8
1-0_REZ
10
23.480000
20
8.080000
30
0.0
11
23.480000
21
9.080000
31
0.0
0
LINE
8
1-0_REZ
10
-11.900000
20
-8.360000
30
0.0
11
-11.900000
21
-7.960000
31
0.0
0
LINE
8
1-0_REZ
10
8.660000
20
-3.240000
30
0.0
11
8.660000
21
-2.740000
31
0.0
0
LINE
8
1-0_REZ
10
14.020000
20
11.420000
30
0.0
11
14.020000
21
11.840000
31
0.0
0
LINE
8
1-0_REZ
10
14.020000
20
14.400000
30
0.0
11
14.020000
21
14.820000
31
0.0
0
LINE
8
1-0_REZ
10
1.940000
20
-10.200000
30
0.0
11
1.940000
21
-9.780000
31
0.0
0
LINE
8
1-0_REZ
10
1.940000
20
3.500000
30
0.0
11
1.940000
21
4.160000
31
0.0
0
LINE
8
1-0_REZ
10
1.320000
20
-6.900000
30
0.0
11
1.320000
21
-6.440000
31
0.0
0
LINE
8
1-0_REZ
10
1.320000
20
3.580000
30
0.0
11
1.320000
21
4.220000
31
0.0
0
LINE
8
1-0_REZ
10
-6.720000
20
-8.060000
30
0.0
11
-6.720000
21
-7.620000
31
0.0
0
LINE
8
1-0_REZ
10
1.980000
20
3.680000
30
0.0
11
1.980000
21
4.140000
31
0.0
0
LINE
8
1-0_REZ
10
4.320000
20
-5.600000
30
0.0
11
4.320000
21
-4.800000
31
0.0
0
LINE
8
1-0_REZ
10
4.320000
20
2.300000
30
0.0
11
4.320000
21
3.080000
31
0.0
0
LINE
8
1-0_REZ
10
-3.800000
20
-8.600000
30
0.0
11
-3.800000
21
-8.180000
31
0.0
0
LINE
8
1-0_REZ
10
5.140000
20
2.320000
30
0.0
11
5.140000
21
2.740000
31
0.0
0
LINE
8
1-0_REZ
10
9.260000
20
-3.260000
30
0.0
11
9.260000
21
-2.780000
31
0.0
0
LINE
8
1-0_REZ
10
-5.740000
20
-9.880000
30
0.0
11
-5.740000
21
-9.440000
31
0.0
0
LINE
8
1-0_REZ
10
-5.740000
20
-6.000000
30
0.0
11
-5.740000
21
-5.440000
31
0.0
0
LINE
8
1-0_REZ
10
1.240000
20
1.380000
30
0.0
11
1.240000
21
2.060000
31
0.0
0
LINE
8
1-0_REZ
10
-4.440000
20
-8.720000
30
0.0
11
-4.440000
21
-8.300000
31
0.0
0
LINE
8
1-0_REZ
10
-4.440000
20
-2.540000
30
0.0
11
-4.440000
21
-1.740000
31
0.0
0
LINE
8
1-0_REZ
10
-1.900000
20
-6.720000
30
0.0
11
-1.900000
21
-6.320000
31
0.0
0
LINE
8
1-0_REZ
10
-1.900000
20
-5.260000
30
0.0
11
-1.900000
21
-4.840000
31
0.0
0
LINE
8
1-0_REZ
10
9.040000
20
-3.200000
30
0.0
11
9.040000
21
-2.780000
31
0.0
0
LINE
8
1-0_REZ
10
22.880000
20
4.260000
30
0.0
11
22.880000
21
7.420000
31
0.0
0
LINE
8
1-0_REZ
10
-1.500000
20
-7.320000
30
0.0
11
-1.500000
21
-6.920000
31
0.0
0
LINE
8
1-0_REZ
10
-1.500000
20
-6.760000
30
0.0
11
-1.500000
21
-6.340000
31
0.0
0
LINE
8
1-0_REZ
10
7.040000
20
3.740000
30
0.0
11
7.040000
21
4.220000
31
0.0
0
LINE
8
1-0_REZ
10
9.160000
20
-3.260000
30
0.0
11
9.160000
21
-2.780000
31
0.0
0
LINE
8
1-0_REZ
10
6.400000
20
-8.440000
30
0.0
11
6.400000
21
-7.980000
31
0.0
0
LINE
8
1-0_REZ
10
6.400000
20
-7.620000
30
0.0
11
6.400000
21
-7.100000
31
0.0
0
LINE
8
1-0_REZ
10
6.400000
20
1.000000
30
0.0
11
6.400000
21
1.540000
31
0.0
0
LINE
8
1-0_REZ
10
-0.900000
20
-9.320000
30
0.0
11
-0.900000
21
-8.940000
31
0.0
0
LINE
8
1-0_REZ
10
-3.480000
20
-2.020000
30
0.0
11
-3.480000
21
-1.020000
31
0.0
0
LINE
8
1-0_REZ
10
23.080000
20
11.900000
30
0.0
11
23.080000
21
13.300000
31
0.0
0
LINE
8
1-0_REZ
10
15.020000
20
-11.980000
30
0.0
11
15.020000
21
-10.300000
31
0.0
0
LINE
8
1-0_REZ
10
1.360000
20
-9.540000
30
0.0
11
1.360000
21
-9.160000
31
0.0
0
LINE
8
1-0_REZ
10
1.360000
20
-6.900000
30
0.0
11
1.360000
21
-6.440000
31
0.0
0
LINE
8
1-0_REZ
10
1.360000
20
3.520000
30
0.0
11
1.360000
21
4.220000
31
0.0
0
LINE
8
1-0_REZ
10
6.360000
20
-8.740000
30
0.0
11
6.360000
21
-8.340000
31
0.0
0
LINE
8
1-0_REZ
10
6.360000
20
-7.640000
30
0.0
11
6.360000
21
-7.120000
31
0.0
0
LINE
8
1-0_REZ
10
6.360000
20
1.000000
30
0.0
11
6.360000
21
1.540000
31
0.0
0
LINE
8
1-0_REZ
10
4.360000
20
2.420000
30
0.0
11
4.360000
21
3.080000
31
0.0
0
LINE
8
1-0_REZ
10
4.420000
20
2.420000
30
0.0
11
4.420000
21
3.080000
31
0.0
0
LINE
8
1-0_REZ
10
-7.480000
20
-12.400000
30
0.0
11
-7.480000
21
-12.020000
31
0.0
0
LINE
8
1-0_REZ
10
-7.480000
20
-10.460000
30
0.0
11
-7.480000
21
-10.020000
31
0.0
0
LINE
8
1-0_REZ
10
-14.040000
20
-12.280000
30
0.0
11
-14.040000
21
-11.800000
31
0.0
0
LINE
8
1-0_REZ
10
-12.180000
20
-8.660000
30
0.0
11
-12.180000
21
-7.760000
31
0.0
0
LINE
8
1-0_REZ
10
3.440000
20
-0.480000
30
0.0
11
3.440000
21
-0.100000
31
0.0
0
LINE
8
1-0_REZ
10
3.500000
20
-0.500000
30
0.0
11
3.500000
21
-0.120000
31
0.0
0
LINE
8
1-0_REZ
10
6.460000
20
-8.760000
30
0.0
11
6.460000
21
-8.000000
31
0.0
0
LINE
8
1-0_REZ
10
6.460000
20
-7.640000
30
0.0
11
6.460000
21
-7.040000
31
0.0
0
LINE
8
1-0_REZ
10
6.500000
20
-8.800000
30
0.0
11
6.500000
21
-7.560000
31
0.0
0
LINE
8
1-0_REZ
10
6.500000
20
-6.180000
30
0.0
11
6.500000
21
-4.620000
31
0.0
0
LINE
8
1-0_REZ
10
6.500000
20
1.620000
30
0.0
11
6.500000
21
2.480000
31
0.0
0
LINE
8
1-0_REZ
10
0.820000
20
-3.380000
30
0.0
11
0.820000
21
-2.760000
31
0.0
0
LINE
8
1-0_REZ
10
15.200000
20
-10.180000
30
0.0
11
15.200000
21
-7.920000
31
0.0
0
LINE
8
1-0_REZ
10
-6.120000
20
-5.220000
30
0.0
11
-6.120000
21
-3.400000
31
0.0
0
LINE
8
1-0_REZ
10
24.400000
20
9.580000
30
0.0
11
24.400000
21
11.060000
31
0.0
0
LINE
8
1-0_REZ
10
10.700000
20
-9.820000
30
0.0
11
10.700000
21
-9.440000
31
0.0
0
LINE
8
1-0_REZ
10
10.700000
20
-9.200000
30
0.0
11
10.700000
21
-8.800000
31
0.0
0
LINE
8
1-0_REZ
10
10.700000
20
-6.800000
30
0.0
11
10.700000
21
-5.780000
31
0.0
0
LINE
8
1-0_REZ
10
10.700000
20
4.040000
30
0.0
11
10.700000
21
5.360000
31
0.0
0
LINE
8
1-0_REZ
10
10.700000
20
6.920000
30
0.0
11
10.700000
21
7.380000
31
0.0
0
LINE
8
1-0_REZ
10
6.940000
20
3.800000
30
0.0
11
6.940000
21
4.300000
31
0.0
0
LINE
8
1-0_REZ
10
2.660000
20
-4.280000
30
0.0
11
2.660000
21
-3.780000
31
0.0
0
LINE
8
1-0_REZ
10
11.780000
20
11.860000
30
0.0
11
11.780000
21
13.480000
31
0.0
0
LINE
8
1-0_REZ
10
4.840000
20
-5.600000
30
0.0
11
4.840000
21
-4.720000
31
0.0
0
LINE
8
1-0_REZ
10
4.840000
20
2.340000
30
0.0
11
4.840000
21
2.940000
31
0.0
0
LINE
8
1-0_REZ
10
-1.320000
20
-4.240000
30
0.0
11
-1.320000
21
-3.840000
31
0.0
0
LINE
8
1-0_REZ
10
10.540000
20
1.200000
30
0.0
11
10.540000
21
2.160000
31
0.0
0
LINE
8
1-0_REZ
10
3.000000
20
3.720000
30
0.0
11
3.000000
21
4.160000
31
0.0
0
LINE
8
1-0_REZ
10
13.660000
20
12.180000
30
0.0
11
13.660000
21
13.420000
31
0.0
0
LINE
8
1-0_REZ
10
1.640000
20
-11.120000
30
0.0
11
1.640000
21
-10.700000
31
0.0
0
LINE
8
1-0_REZ
10
1.640000
20
-10.200000
30
0.0
11
1.640000
21
-9.200000
31
0.0
0
LINE
8
1-0_REZ
10
-14.720000
20
-7.600000
30
0.0
11
-14.720000
21
-6.840000
31
0.0
0
LINE
8
1-0_REZ
10
-6.080000
20
-5.160000
30
0.0
11
-6.080000
21
-4.540000
31
0.0
0
LINE
8
1-0_REZ
10
-6.080000
20
-3.580000
30
0.0
11
-6.080000
21
-3.040000
31
0.0
0
LINE
8
1-0_REZ
10
10.840000
20
13.980000
30
0.0
11
10.840000
21
14.940000
31
0.0
0
LINE
8
1-0_REZ
10
-13.640000
20
-10.640000
30
0.0
11
-13.640000
21
-10.180000
31
0.0
0
LINE
8
1-0_REZ
10
6.920000
20
0.520000
30
0.0
11
6.920000
21
0.980000
31
0.0
0
LINE
8
1-0_REZ
10
6.920000
20
3.820000
30
0.0
11
6.920000
21
4.300000
31
0.0
0
LINE
8
1-0_REZ
10
-14.560000
20
-8.060000
30
0.0
11
-14.560000
21
-6.920000
31
0.0
0
LINE
8
1-0_REZ
10
23.440000
20
-12.800000
30
0.0
11
23.440000
21
-11.160000
31
0.0
0
LINE
8
1-0_REZ
10
23.440000
20
-0.900000
30
0.0
11
23.440000
21
0.120000
31
0.0
0
LINE
8
1-0_REZ
10
23.440000
20
2.060000
30
0.0
11
23.440000
21
3.080000
31
0.0
0
LINE
8
1-0_REZ
10
23.380000
20
-12.820000
30
0.0
11
23.380000
21
-12.220000
31
0.0
0
LINE
8
1-0_REZ
10
23.380000
20
-9.880000
30
0.0
11
23.380000
21
-8.880000
31
0.0
0
LINE
8
1-0_REZ
10
-6.740000
20
-8.060000
30
0.0
11
-6.740000
21
-7.600000
31
0.0
0
LINE
8
1-0_REZ
10
10.900000
20
4.420000
30
0.0
11
10.900000
21
4.800000
31
0.0
0
LINE
8
1-0_REZ
10
5.120000
20
2.320000
30
0.0
11
5.120000
21
2.740000
31
0.0
0
LINE
8
1-0_REZ
10
-5.500000
20
-9.220000
30
0.0
11
-5.500000
21
-8.840000
31
0.0
0
LINE
8
1-0_REZ
10
-5.500000
20
-6.180000
30
0.0
11
-5.500000
21
-5.520000
31
0.0
0
LINE
8
1-0_REZ
10
-3.700000
20
-2.560000
30
0.0
11
-3.700000
21
-1.740000
31
0.0
0
LINE
8
1-0_REZ
10
-13.240000
20
-11.720000
30
0.0
11
-13.240000
21
-10.960000
31
0.0
0
LINE
8
1-0_REZ
10
4.200000
20
-11.900000
30
0.0
11
4.200000
21
-11.180000
31
0.0
0
LINE
8
1-0_REZ
10
4.200000
20
-4.400000
30
0.0
11
4.200000
21
-4.020000
31
0.0
0
LINE
8
1-0_REZ
10
4.200000
20
2.400000
30
0.0
11
4.200000
21
3.160000
31
0.0
0
LINE
8
1-0_REZ
10
-5.600000
20
-6.000000
30
0.0
11
-5.600000
21
-5.460000
31
0.0
0
LINE
8
1-0_REZ
10
6.160000
20
-8.720000
30
0.0
11
6.160000
21
-7.980000
31
0.0
0
LINE
8
1-0_REZ
10
6.160000
20
-5.680000
30
0.0
11
6.160000
21
-4.420000
31
0.0
0
LINE
8
1-0_REZ
10
6.160000
20
-1.340000
30
0.0
11
6.160000
21
-0.880000
31
0.0
0
LINE
8
1-0_REZ
10
1.680000
20
-11.160000
30
0.0
11
1.680000
21
-10.700000
31
0.0
0
LINE
8
1-0_REZ
10
1.680000
20
-10.220000
30
0.0
11
1.680000
21
-9.200000
31
0.0
0
LINE
8
1-0_REZ
10
6.100000
20
-9.440000
30
0.0
11
6.100000
21
-8.040000
31
0.0
0
LINE
8
1-0_REZ
10
6.100000
20
-0.760000
30
0.0
11
6.100000
21
-0.380000
31
0.0
0
LINE
8
1-0_REZ
10
-13.340000
20
-11.680000
30
0.0
11
-13.340000
21
-10.960000
31
0.0
0
LINE
8
1-0_REZ
10
15.140000
20
11.880000
30
0.0
11
15.140000
21
13.560000
31
0.0
0
LINE
8
1-0_REZ
10
10.240000
20
-2.800000
30
0.0
11
10.240000
21
-2.140000
31
0.0
0
LINE
8
1-0_REZ
10
1.580000
20
-9.500000
30
0.0
11
1.580000
21
-8.860000
31
0.0
0
LINE
8
1-0_REZ
10
-12.320000
20
-7.640000
30
0.0
11
-12.320000
21
-7.120000
31
0.0
0
LINE
8
1-0_REZ
10
9.380000
20
-3.280000
30
0.0
11
9.380000
21
-2.820000
31
0.0
0
LINE
8
1-0_REZ
10
2.460000
20
-1.280000
30
0.0
11
2.460000
21
-0.800000
31
0.0
0
LINE
8
1-0_REZ
10
4.380000
20
2.420000
30
0.0
11
4.380000
21
3.080000
31
0.0
0
LINE
8
1-0_REZ
10
-14.220000
20
-12.820000
30
0.0
11
-14.220000
21
-12.340000
31
0.0
0
LINE
8
1-0_REZ
10
-14.220000
20
-11.020000
30
0.0
11
-14.220000
21
-10.520000
31
0.0
0
LINE
8
1-0_REZ
10
12.960000
20
-6.580000
30
0.0
11
12.960000
21
-5.940000
31
0.0
0
LINE
8
1-0_REZ
10
6.240000
20
-8.740000
30
0.0
11
6.240000
21
-7.960000
31
0.0
0
LINE
8
1-0_REZ
10
6.240000
20
-0.120000
30
0.0
11
6.240000
21
0.380000
31
0.0
0
LINE
8
1-0_REZ
10
9.300000
20
-3.280000
30
0.0
11
9.300000
21
-2.780000
31
0.0
0
LINE
8
1-0_REZ
10
4.300000
20
2.280000
30
0.0
11
4.300000
21
3.160000
31
0.0
0
LINE
8
1-0_REZ
10
22.820000
20
-5.880000
30
0.0
11
22.820000
21
-4.840000
31
0.0
0
LINE
8
1-0_REZ
10
22.820000
20
-4.240000
30
0.0
11
22.820000
21
-0.240000
31
0.0
0
LINE
8
1-0_REZ
10
22.820000
20
-0.140000
30
0.0
11
22.820000
21
0.240000
31
0.0
0
LINE
8
1-0_REZ
10
4.540000
20
-4.100000
30
0.0
11
4.540000
21
-3.400000
31
0.0
0
LINE
8
1-0_REZ
10
4.540000
20
2.440000
30
0.0
11
4.540000
21
3.100000
31
0.0
0
LINE
8
1-0_REZ
10
6.480000
20
-8.800000
30
0.0
11
6.480000
21
-7.960000
31
0.0
0
LINE
8
1-0_REZ
10
6.480000
20
-7.880000
30
0.0
11
6.480000
21
-6.500000
31
0.0
0
LINE
8
1-0_REZ
10
-1.080000
20
-4.220000
30
0.0
11
-1.080000
21
-3.840000
31
0.0
0
LINE
8
1-0_REZ
10
-2.340000
20
-6.720000
30
0.0
11
-2.340000
21
-6.300000
31
0.0
0
LINE
8
1-0_REZ
10
0.720000
20
-3.320000
30
0.0
11
0.720000
21
-2.940000
31
0.0
0
LINE
8
1-0_REZ
10
1.860000
20
-11.080000
30
0.0
11
1.860000
21
-10.700000
31
0.0
0
LINE
8
1-0_REZ
10
1.860000
20
-10.200000
30
0.0
11
1.860000
21
-9.760000
31
0.0
0
LINE
8
1-0_REZ
10
1.860000
20
3.320000
30
0.0
11
1.860000
21
4.200000
31
0.0
0
LINE
8
1-0_REZ
10
-2.040000
20
-5.260000
30
0.0
11
-2.040000
21
-4.800000
31
0.0
0
LINE
8
1-0_REZ
10
13.680000
20
12.160000
30
0.0
11
13.680000
21
13.420000
31
0.0
0
LINE
8
1-0_REZ
10
-14.680000
20
-7.860000
30
0.0
11
-14.680000
21
-6.860000
31
0.0
0
LINE
8
1-0_REZ
10
3.540000
20
-11.480000
30
0.0
11
3.540000
21
-11.100000
31
0.0
0
LINE
8
1-0_REZ
10
3.540000
20
-4.640000
30
0.0
11
3.540000
21
-3.820000
31
0.0
0
LINE
8
1-0_REZ
10
-2.140000
20
-5.240000
30
0.0
11
-2.140000
21
-4.800000
31
0.0
0
LINE
8
1-0_REZ
10
0.260000
20
-3.300000
30
0.0
11
0.260000
21
-2.780000
31
0.0
0
LINE
8
1-0_REZ
10
0.260000
20
3.040000
30
0.0
11
0.260000
21
3.820000
31
0.0
0
LINE
8
1-0_REZ
10
0.980000
20
2.620000
30
0.0
11
0.980000
21
3.120000
31
0.0
0
LINE
8
1-0_REZ
10
4.720000
20
2.380000
30
0.0
11
4.720000
21
3.100000
31
0.0
0
LINE
8
1-0_REZ
10
-14.700000
20
-12.220000
30
0.0
11
-14.700000
21
-11.840000
31
0.0
0
LINE
8
1-0_REZ
10
-14.700000
20
-7.660000
30
0.0
11
-14.700000
21
-6.840000
31
0.0
0
LINE
8
1-0_REZ
10
1.200000
20
-12.420000
30
0.0
11
1.200000
21
-11.940000
31
0.0
0
LINE
8
1-0_REZ
10
1.200000
20
-6.900000
30
0.0
11
1.200000
21
-6.440000
31
0.0
0
LINE
8
1-0_REZ
10
1.200000
20
0.620000
30
0.0
11
1.200000
21
1.160000
31
0.0
0
LINE
8
1-0_REZ
10
8.800000
20
-3.240000
30
0.0
11
8.800000
21
-2.760000
31
0.0
0
LINE
8
1-0_REZ
10
-12.440000
20
-7.760000
30
0.0
11
-12.440000
21
-7.140000
31
0.0
0
LINE
8
1-0_REZ
10
3.080000
20
3.680000
30
0.0
11
3.080000
21
4.300000
31
0.0
0
LINE
8
1-0_REZ
10
11.200000
20
4.420000
30
0.0
11
11.200000
21
5.160000
31
0.0
0
LINE
8
1-0_REZ
10
5.000000
20
2.320000
30
0.0
11
5.000000
21
2.740000
31
0.0
0
LINE
8
1-0_REZ
10
0.040000
20
4.680000
30
0.0
11
0.040000
21
5.400000
31
0.0
0
LINE
8
1-0_REZ
10
3.060000
20
3.680000
30
0.0
11
3.060000
21
4.120000
31
0.0
0
LINE
8
1-0_REZ
10
23.620000
20
12.080000
30
0.0
11
23.620000
21
14.080000
31
0.0
0
LINE
8
1-0_REZ
10
1.080000
20
-11.580000
30
0.0
11
1.080000
21
-10.880000
31
0.0
0
LINE
8
1-0_REZ
10
23.500000
20
0.280000
30
0.0
11
23.500000
21
0.800000
31
0.0
0
LINE
8
1-0_REZ
10
23.500000
20
1.460000
30
0.0
11
23.500000
21
2.100000
31
0.0
0
LINE
8
1-0_REZ
10
-1.980000
20
-5.260000
30
0.0
11
-1.980000
21
-4.840000
31
0.0
0
LINE
8
1-0_REZ
10
-12.660000
20
-7.780000
30
0.0
11
-12.660000
21
-6.480000
31
0.0
0
LINE
8
1-0_REZ
10
14.000000
20
-6.600000
30
0.0
11
14.000000
21
-6.060000
31
0.0
0
LINE
8
1-0_REZ
10
14.000000
20
5.460000
30
0.0
11
14.000000
21
5.840000
31
0.0
0
LINE
8
1-0_REZ
10
14.000000
20
8.440000
30
0.0
11
14.000000
21
8.840000
31
0.0
0
LINE
8
1-0_REZ
10
6.960000
20
3.800000
30
0.0
11
6.960000
21
4.240000
31
0.0
0
LINE
8
1-0_REZ
10
0.240000
20
3.240000
30
0.0
11
0.240000
21
3.820000
31
0.0
0
LINE
8
1-0_REZ
10
3.980000
20
-12.500000
30
0.0
11
3.980000
21
-12.000000
31
0.0
0
LINE
8
1-0_REZ
10
-0.500000
20
-8.940000
30
0.0
11
-0.500000
21
-8.500000
31
0.0
0
LINE
8
1-0_REZ
10
0.220000
20
1.980000
30
0.0
11
0.220000
21
2.360000
31
0.0
0
LINE
8
1-0_REZ
10
0.220000
20
3.260000
30
0.0
11
0.220000
21
3.820000
31
0.0
0
LINE
8
1-0_REZ
10
9.280000
20
-3.160000
30
0.0
11
9.280000
21
-2.780000
31
0.0
0
LINE
8
1-0_REZ
10
4.220000
20
-11.860000
30
0.0
11
4.220000
21
-10.700000
31
0.0
0
LINE
8
1-0_REZ
10
4.220000
20
-4.400000
30
0.0
11
4.220000
21
-3.800000
31
0.0
0
LINE
8
1-0_REZ
10
4.220000
20
2.400000
30
0.0
11
4.220000
21
3.160000
31
0.0
0
LINE
8
1-0_REZ
10
6.220000
20
-8.740000
30
0.0
11
6.220000
21
-7.960000
31
0.0
0
LINE
8
1-0_REZ
10
6.220000
20
-0.480000
30
0.0
11
6.220000
21
-0.040000
31
0.0
0
LINE
8
1-0_REZ
10
10.340000
20
-2.800000
30
0.0
11
10.340000
21
-1.300000
31
0.0
0
LINE
8
1-0_REZ
10
12.980000
20
-3.520000
30
0.0
11
12.980000
21
-3.140000
31
0.0
0
LINE
8
1-0_REZ
10
12.980000
20
-0.520000
30
0.0
11
12.980000
21
-0.140000
31
0.0
0
LINE
8
1-0_REZ
10
15.320000
20
10.420000
30
0.0
11
15.320000
21
11.780000
31
0.0
0
LINE
8
1-0_REZ
10
-0.820000
20
-9.300000
30
0.0
11
-0.820000
21
-8.920000
31
0.0
0
LINE
8
1-0_REZ
10
8.300000
20
-7.900000
30
0.0
11
8.300000
21
-7.400000
31
0.0
0
LINE
8
1-0_REZ
10
4.500000
20
-5.980000
30
0.0
11
4.500000
21
-5.560000
31
0.0
0
LINE
8
1-0_REZ
10
4.500000
20
-4.780000
30
0.0
11
4.500000
21
-3.860000
31
0.0
0
LINE
8
1-0_REZ
10
4.500000
20
-3.720000
30
0.0
11
4.500000
21
-1.540000
31
0.0
0
LINE
8
1-0_REZ
10
4.500000
20
2.440000
30
0.0
11
4.500000
21
2.940000
31
0.0
0
LINE
8
1-0_REZ
10
6.200000
20
-8.740000
30
0.0
11
6.200000
21
-7.960000
31
0.0
0
LINE
8
1-0_REZ
10
6.200000
20
-0.800000
30
0.0
11
6.200000
21
-0.380000
31
0.0
0
LINE
8
1-0_REZ
10
10.620000
20
3.860000
30
0.0
11
10.620000
21
4.240000
31
0.0
0
LINE
8
1-0_REZ
10
10.620000
20
4.940000
30
0.0
11
10.620000
21
5.720000
31
0.0
0
LINE
8
1-0_REZ
10
10.620000
20
6.680000
30
0.0
11
10.620000
21
7.080000
31
0.0
0
LINE
8
1-0_REZ
10
-11.940000
20
-8.340000
30
0.0
11
-11.940000
21
-7.900000
31
0.0
0
LINE
8
1-0_REZ
10
10.520000
20
1.560000
30
0.0
11
10.520000
21
2.160000
31
0.0
0
LINE
8
1-0_REZ
10
-13.860000
20
-10.640000
30
0.0
11
-13.860000
21
-10.160000
31
0.0
0
LINE
8
1-0_REZ
10
8.420000
20
-6.180000
30
0.0
11
8.420000
21
-5.100000
31
0.0
0
LINE
8
1-0_REZ
10
-4.160000
20
-1.380000
30
0.0
11
-4.160000
21
-0.900000
31
0.0
0
LINE
8
1-0_REZ
10
3.800000
20
-6.260000
30
0.0
11
3.800000
21
-5.700000
31
0.0
0
LINE
8
1-0_REZ
10
8.720000
20
-3.240000
30
0.0
11
8.720000
21
-2.760000
31
0.0
0
LINE
8
1-0_REZ
10
4.800000
20
2.340000
30
0.0
11
4.800000
21
2.920000
31
0.0
0
LINE
8
1-0_REZ
10
-11.620000
20
-8.300000
30
0.0
11
-11.620000
21
-7.920000
31
0.0
0
LINE
8
1-0_REZ
10
8.880000
20
-3.260000
30
0.0
11
8.880000
21
-2.760000
31
0.0
0
LINE
8
1-0_REZ
10
0.960000
20
2.080000
30
0.0
11
0.960000
21
2.680000
31
0.0
0
LINE
8
1-0_REZ
10
-3.580000
20
-3.940000
30
0.0
11
-3.580000
21
-3.080000
31
0.0
0
LINE
8
1-0_REZ
10
9.980000
20
0.400000
30
0.0
11
9.980000
21
0.800000
31
0.0
0
LINE
8
1-0_REZ
10
9.980000
20
12.620000
30
0.0
11
9.980000
21
14.080000
31
0.0
0
LINE
8
1-0_REZ
10
3.380000
20
-0.480000
30
0.0
11
3.380000
21
-0.100000
31
0.0
0
LINE
8
1-0_REZ
10
4.040000
20
2.380000
30
0.0
11
4.040000
21
3.160000
31
0.0
0
LINE
8
1-0_REZ
10
4.040000
20
4.180000
30
0.0
11
4.040000
21
4.620000
31
0.0
0
LINE
8
1-0_REZ
10
6.440000
20
-8.740000
30
0.0
11
6.440000
21
-7.980000
31
0.0
0
LINE
8
1-0_REZ
10
6.440000
20
-7.640000
30
0.0
11
6.440000
21
-7.100000
31
0.0
0
LINE
8
1-0_REZ
10
4.280000
20
-9.860000
30
0.0
11
4.280000
21
-8.480000
31
0.0
0
LINE
8
1-0_REZ
10
4.280000
20
2.700000
30
0.0
11
4.280000
21
3.160000
31
0.0
0
LINE
8
1-0_REZ
10
-3.540000
20
-3.120000
30
0.0
11
-3.540000
21
-2.580000
31
0.0
0
LINE
8
1-0_REZ
10
-3.600000
20
-4.440000
30
0.0
11
-3.600000
21
-3.760000
31
0.0
0
LINE
8
1-0_REZ
10
6.140000
20
-8.740000
30
0.0
11
6.140000
21
-8.000000
31
0.0
0
LINE
8
1-0_REZ
10
6.140000
20
-6.500000
30
0.0
11
6.140000
21
-5.300000
31
0.0
0
LINE
8
1-0_REZ
10
6.140000
20
-1.600000
30
0.0
11
6.140000
21
-1.220000
31
0.0
0
LINE
8
1-0_REZ
10
5.380000
20
2.300000
30
0.0
11
5.380000
21
2.760000
31
0.0
0
LINE
8
1-0_REZ
10
9.080000
20
-3.220000
30
0.0
11
9.080000
21
-2.780000
31
0.0
0
LINE
8
1-0_REZ
10
11.100000
20
4.360000
30
0.0
11
11.100000
21
4.820000
31
0.0
0
LINE
8
1-0_REZ
10
-14.060000
20
-11.960000
30
0.0
11
-14.060000
21
-11.380000
31
0.0
0
LINE
8
1-0_REZ
10
4.580000
20
-4.000000
30
0.0
11
4.580000
21
-3.480000
31
0.0
0
LINE
8
1-0_REZ
10
4.580000
20
2.420000
30
0.0
11
4.580000
21
3.080000
31
0.0
0
LINE
8
1-0_REZ
10
-16.000000
20
-10.640000
30
0.0
11
-16.000000
21
-10.260000
31
0.0
0
LINE
8
1-0_REZ
10
-0.380000
20
0.680000
30
0.0
11
-0.380000
21
1.080000
31
0.0
0
LINE
8
1-0_REZ
10
1.440000
20
-11.240000
30
0.0
11
1.440000
21
-10.760000
31
0.0
0
LINE
8
1-0_REZ
10
1.440000
20
-10.280000
30
0.0
11
1.440000
21
-9.880000
31
0.0
0
LINE
8
1-0_REZ
10
1.440000
20
-6.880000
30
0.0
11
1.440000
21
-6.440000
31
0.0
0
LINE
8
1-0_REZ
10
15.180000
20
-9.080000
30
0.0
11
15.180000
21
-8.340000
31
0.0
0
LINE
8
1-0_REZ
10
8.980000
20
-3.240000
30
0.0
11
8.980000
21
-2.780000
31
0.0
0
LINE
8
1-0_REZ
10
-6.140000
20
-5.100000
30
0.0
11
-6.140000
21
-4.060000
31
0.0
0
LINE
8
1-0_REZ
10
7.600000
20
3.840000
30
0.0
11
7.600000
21
4.280000
31
0.0
0
LINE
8
1-0_REZ
10
-1.160000
20
-7.100000
30
0.0
11
-1.160000
21
-6.660000
31
0.0
0
LINE
8
1-0_REZ
10
-1.160000
20
-4.240000
30
0.0
11
-1.160000
21
-3.840000
31
0.0
0
LINE
8
1-0_REZ
10
10.500000
20
1.560000
30
0.0
11
10.500000
21
2.100000
31
0.0
0
LINE
8
1-0_REZ
10
10.400000
20
-2.780000
30
0.0
11
10.400000
21
-0.920000
31
0.0
0
LINE
8
1-0_REZ
10
-2.120000
20
-6.740000
30
0.0
11
-2.120000
21
-6.320000
31
0.0
0
LINE
8
1-0_REZ
10
-2.120000
20
-5.260000
30
0.0
11
-2.120000
21
-4.800000
31
0.0
0
LINE
8
1-0_REZ
10
-1.100000
20
-6.720000
30
0.0
11
-1.100000
21
-6.340000
31
0.0
0
LINE
8
1-0_REZ
10
-1.100000
20
-4.240000
30
0.0
11
-1.100000
21
-3.820000
31
0.0
0
LINE
8
1-0_REZ
10
24.320000
20
3.080000
30
0.0
11
24.320000
21
4.260000
31
0.0
0
LINE
8
1-0_REZ
10
11.800000
20
11.860000
30
0.0
11
11.800000
21
13.440000
31
0.0
0
LINE
8
1-0_REZ
10
-11.680000
20
-8.320000
30
0.0
11
-11.680000
21
-7.900000
31
0.0
0
LINE
8
1-0_REZ
10
8.780000
20
-3.240000
30
0.0
11
8.780000
21
-2.760000
31
0.0
0
LINE
8
1-0_REZ
10
4.140000
20
2.680000
30
0.0
11
4.140000
21
3.160000
31
0.0
0
LINE
8
1-0_REZ
10
23.560000
20
0.140000
30
0.0
11
23.560000
21
2.080000
31
0.0
0
LINE
8
1-0_REZ
10
-14.580000
20
-8.040000
30
0.0
11
-14.580000
21
-6.880000
31
0.0
0
LINE
8
1-0_REZ
10
0.940000
20
-3.360000
30
0.0
11
0.940000
21
-2.780000
31
0.0
0
LINE
8
1-0_REZ
10
0.940000
20
1.600000
30
0.0
11
0.940000
21
2.180000
31
0.0
0
LINE
8
1-0_REZ
10
9.000000
20
-3.240000
30
0.0
11
9.000000
21
-2.780000
31
0.0
0
LINE
8
1-0_REZ
10
-13.520000
20
-10.640000
30
0.0
11
-13.520000
21
-10.180000
31
0.0
0
LINE
8
1-0_REZ
10
-4.480000
20
-2.540000
30
0.0
11
-4.480000
21
-2.160000
31
0.0
0
LINE
8
1-0_REZ
10
-5.520000
20
-9.100000
30
0.0
11
-5.520000
21
-8.260000
31
0.0
0
LINE
8
1-0_REZ
10
-5.520000
20
-6.080000
30
0.0
11
-5.520000
21
-5.500000
31
0.0
0
LINE
8
1-0_REZ
10
-12.460000
20
-7.760000
30
0.0
11
-12.460000
21
-7.140000
31
0.0
0
LINE
8
1-0_REZ
10
6.180000
20
-8.720000
30
0.0
11
6.180000
21
-7.960000
31
0.0
0
LINE
8
1-0_REZ
10
6.180000
20
-3.780000
30
0.0
11
6.180000
21
-2.340000
31
0.0
0
LINE
8
1-0_REZ
10
-5.700000
20
-6.000000
30
0.0
11
-5.700000
21
-5.440000
31
0.0
0
LINE
8
1-0_REZ
10
4.860000
20
-5.580000
30
0.0
11
4.860000
21
-4.660000
31
0.0
0
LINE
8
1-0_REZ
10
4.860000
20
2.340000
30
0.0
11
4.860000
21
2.900000
31
0.0
0
LINE
8
1-0_REZ
10
5.340000
20
2.300000
30
0.0
11
5.340000
21
2.760000
31
0.0
0
LINE
8
1-0_REZ
10
1.100000
20
-11.080000
30
0.0
11
1.100000
21
-10.440000
31
0.0
0
LINE
8
1-0_REZ
10
1.040000
20
-12.400000
30
0.0
11
1.040000
21
-12.000000
31
0.0
0
LINE
8
1-0_REZ
10
-13.380000
20
-11.680000
30
0.0
11
-13.380000
21
-10.960000
31
0.0
0
LINE
8
1-0_REZ
10
-13.380000
20
-8.000000
30
0.0
11
-13.380000
21
-7.600000
31
0.0
0
LINE
8
1-0_REZ
10
5.240000
20
2.300000
30
0.0
11
5.240000
21
2.880000
31
0.0
0
LINE
8
1-0_REZ
10
-7.380000
20
-10.040000
30
0.0
11
-7.380000
21
-9.340000
31
0.0
0
LINE
8
1-0_REZ
10
-7.380000
20
-8.500000
30
0.0
11
-7.380000
21
-8.120000
31
0.0
0
LINE
8
1-0_REZ
10
-7.340000
20
-9.040000
30
0.0
11
-7.340000
21
-8.120000
31
0.0
0
LINE
8
1-0_REZ
10
9.520000
20
-3.280000
30
0.0
11
9.520000
21
-2.740000
31
0.0
0
LINE
8
1-0_REZ
10
9.520000
20
-0.280000
30
0.0
11
9.520000
21
0.100000
31
0.0
0
LINE
8
1-0_REZ
10
-9.980000
20
-12.620000
30
0.0
11
-9.980000
21
-11.780000
31
0.0
0
LINE
8
1-0_REZ
10
-1.180000
20
-7.120000
30
0.0
11
-1.180000
21
-6.660000
31
0.0
0
LINE
8
1-0_REZ
10
-1.180000
20
-4.240000
30
0.0
11
-1.180000
21
-3.820000
31
0.0
0
LINE
8
1-0_REZ
10
0.000000
20
4.680000
30
0.0
11
0.000000
21
5.380000
31
0.0
0
LINE
8
1-0_REZ
10
-1.240000
20
-4.240000
30
0.0
11
-1.240000
21
-3.800000
31
0.0
0
LINE
8
1-0_REZ
10
4.940000
20
2.320000
30
0.0
11
4.940000
21
2.900000
31
0.0
0
LINE
8
1-0_REZ
10
1.840000
20
-11.080000
30
0.0
11
1.840000
21
-10.700000
31
0.0
0
LINE
8
1-0_REZ
10
1.840000
20
-10.200000
30
0.0
11
1.840000
21
-9.780000
31
0.0
0
LINE
8
1-0_REZ
10
1.840000
20
3.420000
30
0.0
11
1.840000
21
3.820000
31
0.0
0
LINE
8
1-0_REZ
10
3.660000
20
2.720000
30
0.0
11
3.660000
21
3.160000
31
0.0
0
LINE
8
1-0_REZ
10
8.480000
20
-6.180000
30
0.0
11
8.480000
21
-5.080000
31
0.0
0
LINE
8
1-0_REZ
10
5.080000
20
2.320000
30
0.0
11
5.080000
21
2.740000
31
0.0
0
LINE
8
1-0_REZ
10
8.820000
20
-3.240000
30
0.0
11
8.820000
21
-2.740000
31
0.0
0
LINE
8
1-0_REZ
10
-11.700000
20
-8.340000
30
0.0
11
-11.700000
21
-7.900000
31
0.0
0
LINE
8
1-0_REZ
10
-14.600000
20
-8.020000
30
0.0
11
-14.600000
21
-6.820000
31
0.0
0
LINE
8
1-0_REZ
10
-5.780000
20
-9.920000
30
0.0
11
-5.780000
21
-9.400000
31
0.0
0
LINE
8
1-0_REZ
10
-5.780000
20
-5.940000
30
0.0
11
-5.780000
21
-5.460000
31
0.0
0
LINE
8
1-0_REZ
10
10.880000
20
4.420000
30
0.0
11
10.880000
21
4.800000
31
0.0
0
LINE
8
1-0_REZ
10
-12.600000
20
-7.780000
30
0.0
11
-12.600000
21
-7.140000
31
0.0
0
LINE
8
1-0_REZ
10
-5.640000
20
-6.000000
30
0.0
11
-5.640000
21
-5.480000
31
0.0
0
LINE
8
1-0_REZ
10
13.000000
20
-0.540000
30
0.0
11
13.000000
21
-0.120000
31
0.0
0
LINE
8
1-0_REZ
10
13.000000
20
2.460000
30
0.0
11
13.000000
21
2.860000
31
0.0
0
LINE
8
1-0_REZ
10
-2.640000
20
-6.780000
30
0.0
11
-2.640000
21
-6.300000
31
0.0
0
LINE
8
1-0_REZ
10
11.000000
20
-10.620000
30
0.0
11
11.000000
21
-9.780000
31
0.0
0
LINE
8
1-0_REZ
10
-7.400000
20
-10.240000
30
0.0
11
-7.400000
21
-9.420000
31
0.0
0
LINE
8
1-0_REZ
10
8.360000
20
-6.180000
30
0.0
11
8.360000
21
-5.100000
31
0.0
0
LINE
8
1-0_REZ
10
-2.420000
20
-6.700000
30
0.0
11
-2.420000
21
-6.300000
31
0.0
0
LINE
8
1-0_REZ
10
6.420000
20
-8.740000
30
0.0
11
6.420000
21
-8.240000
31
0.0
0
LINE
8
1-0_REZ
10
6.420000
20
-7.580000
30
0.0
11
6.420000
21
-7.100000
31
0.0
0
LINE
8
1-0_REZ
10
6.420000
20
1.140000
30
0.0
11
6.420000
21
1.540000
31
0.0
0
LINE
8
1-0_REZ
10
10.360000
20
-2.800000
30
0.0
11
10.360000
21
-0.920000
31
0.0
0
LINE
8
1-0_REZ
10
4.680000
20
2.380000
30
0.0
11
4.680000
21
2.920000
31
0.0
0
LINE
8
1-0_REZ
10
0.920000
20
-3.360000
30
0.0
11
0.920000
21
-2.780000
31
0.0
0
LINE
8
1-0_REZ
10
0.920000
20
1.200000
30
0.0
11
0.920000
21
1.640000
31
0.0
0
LINE
8
1-0_REZ
10
12.480000
20
-9.460000
30
0.0
11
12.480000
21
-8.640000
31
0.0
0
LINE
8
1-0_REZ
10
13.640000
20
12.860000
30
0.0
11
13.640000
21
13.420000
31
0.0
0
LINE
8
1-0_REZ
10
-1.220000
20
-4.240000
30
0.0
11
-1.220000
21
-3.840000
31
0.0
0
LINE
8
1-0_REZ
10
4.820000
20
-1.540000
30
0.0
11
4.820000
21
-0.880000
31
0.0
0
LINE
8
1-0_REZ
10
4.820000
20
2.720000
30
0.0
11
4.820000
21
3.140000
31
0.0
0
LINE
8
1-0_REZ
10
-13.900000
20
-10.640000
30
0.0
11
-13.900000
21
-10.220000
31
0.0
0
LINE
8
1-0_REZ
10
8.940000
20
-3.260000
30
0.0
11
8.940000
21
-2.780000
31
0.0
0
LINE
8
1-0_REZ
10
-9.840000
20
-8.880000
30
0.0
11
-9.840000
21
-8.160000
31
0.0
0
LINE
8
1-0_REZ
10
4.960000
20
2.320000
30
0.0
11
4.960000
21
3.140000
31
0.0
0
LINE
8
1-0_REZ
10
6.980000
20
3.780000
30
0.0
11
6.980000
21
4.240000
31
0.0
0
LINE
8
1-0_REZ
10
8.700000
20
-3.240000
30
0.0
11
8.700000
21
-2.760000
31
0.0
0
LINE
8
1-0_REZ
10
8.860000
20
-3.240000
30
0.0
11
8.860000
21
-2.760000
31
0.0
0
LINE
8
1-0_REZ
10
-5.680000
20
-6.000000
30
0.0
11
-5.680000
21
-5.460000
31
0.0
0
LINE
8
1-0_REZ
10
-2.660000
20
-6.780000
30
0.0
11
-2.660000
21
-6.300000
31
0.0
0
LINE
8
1-0_REZ
10
9.100000
20
-3.220000
30
0.0
11
9.100000
21
-2.780000
31
0.0
0
LINE
8
1-0_REZ
10
1.180000
20
-6.880000
30
0.0
11
1.180000
21
-6.440000
31
0.0
0
LINE
8
1-0_REZ
10
1.180000
20
0.360000
30
0.0
11
1.180000
21
0.740000
31
0.0
0
LINE
8
1-0_REZ
10
4.180000
20
-12.480000
30
0.0
11
4.180000
21
-11.700000
31
0.0
0
LINE
8
1-0_REZ
10
4.180000
20
2.400000
30
0.0
11
4.180000
21
3.160000
31
0.0
0
LINE
8
1-0_REZ
10
-13.500000
20
-10.640000
30
0.0
11
-13.500000
21
-10.220000
31
0.0
0
LINE
8
1-0_REZ
10
10.080000
20
1.660000
30
0.0
11
10.080000
21
2.160000
31
0.0
0
LINE
8
1-0_REZ
10
-6.200000
20
-5.820000
30
0.0
11
-6.200000
21
-5.420000
31
0.0
0
LINE
8
1-0_REZ
10
5.480000
20
2.300000
30
0.0
11
5.480000
21
2.840000
31
0.0
0
LINE
8
1-0_REZ
10
8.380000
20
-6.180000
30
0.0
11
8.380000
21
-5.100000
31
0.0
0
LINE
8
1-0_REZ
10
-14.080000
20
-11.520000
30
0.0
11
-14.080000
21
-10.980000
31
0.0
0
LINE
8
1-0_REZ
10
0.780000
20
-3.360000
30
0.0
11
0.780000
21
-2.780000
31
0.0
0
LINE
8
1-0_REZ
10
-6.040000
20
-5.140000
30
0.0
11
-6.040000
21
-4.540000
31
0.0
0
LINE
8
1-0_REZ
10
1.780000
20
-11.240000
30
0.0
11
1.780000
21
-10.660000
31
0.0
0
LINE
8
1-0_REZ
10
1.780000
20
-10.200000
30
0.0
11
1.780000
21
-9.780000
31
0.0
0
LINE
8
1-0_REZ
10
-5.760000
20
-9.900000
30
0.0
11
-5.760000
21
-9.420000
31
0.0
0
LINE
8
1-0_REZ
10
-5.760000
20
-5.940000
30
0.0
11
-5.760000
21
-5.460000
31
0.0
0
LINE
8
1-0_REZ
10
-6.680000
20
-8.060000
30
0.0
11
-6.680000
21
-7.640000
31
0.0
0
LINE
8
1-0_REZ
10
5.180000
20
2.320000
30
0.0
11
5.180000
21
2.880000
31
0.0
0
LINE
8
1-0_REZ
10
10.020000
20
0.180000
30
0.0
11
10.020000
21
0.580000
31
0.0
0
LINE
8
1-0_REZ
10
10.020000
20
1.680000
30
0.0
11
10.020000
21
2.060000
31
0.0
0
LINE
8
1-0_REZ
10
-8.600000
20
-10.220000
30
0.0
11
-8.600000
21
-9.820000
31
0.0
0
LINE
8
1-0_REZ
10
-5.800000
20
-9.940000
30
0.0
11
-5.800000
21
-9.400000
31
0.0
0
LINE
8
1-0_REZ
10
-5.800000
20
-5.940000
30
0.0
11
-5.800000
21
-5.480000
31
0.0
0
LINE
8
1-0_REZ
10
-0.860000
20
-9.320000
30
0.0
11
-0.860000
21
-8.940000
31
0.0
0
LINE
8
1-0_REZ
10
-14.460000
20
-7.860000
30
0.0
11
-14.460000
21
-7.400000
31
0.0
0
LINE
8
1-0_REZ
10
10.260000
20
-2.800000
30
0.0
11
10.260000
21
-2.140000
31
0.0
0
LINE
8
1-0_REZ
10
10.260000
20
15.200000
30
0.0
11
10.260000
21
16.220000
31
0.0
0
LINE
8
1-0_REZ
10
2.240000
20
3.800000
30
0.0
11
2.240000
21
4.200000
31
0.0
0
LINE
8
1-0_REZ
10
4.160000
20
-12.620000
30
0.0
11
4.160000
21
-12.180000
31
0.0
0
LINE
8
1-0_REZ
10
4.160000
20
2.400000
30
0.0
11
4.160000
21
3.160000
31
0.0
0
LINE
8
1-0_REZ
10
13.940000
20
-9.540000
30
0.0
11
13.940000
21
-9.060000
31
0.0
0
LINE
8
1-0_REZ
10
8.240000
20
-7.760000
30
0.0
11
8.240000
21
-7.200000
31
0.0
0
LINE
8
1-0_REZ
10
5.460000
20
2.720000
30
0.0
11
5.460000
21
3.180000
31
0.0
0
LINE
8
1-0_REZ
10
-2.400000
20
-6.700000
30
0.0
11
-2.400000
21
-6.300000
31
0.0
0
LINE
8
1-0_REZ
10
6.300000
20
-8.740000
30
0.0
11
6.300000
21
-7.960000
31
0.0
0
LINE
8
1-0_REZ
10
6.300000
20
-7.640000
30
0.0
11
6.300000
21
-7.120000
31
0.0
0
LINE
8
1-0_REZ
10
1.620000
20
-11.120000
30
0.0
11
1.620000
21
-10.720000
31
0.0
0
LINE
8
1-0_REZ
10
1.620000
20
-9.920000
30
0.0
11
1.620000
21
-9.200000
31
0.0
0
LINE
8
1-0_REZ
10
-2.080000
20
-5.260000
30
0.0
11
-2.080000
21
-4.800000
31
0.0
0
LINE
8
1-0_REZ
10
3.860000
20
2.760000
30
0.0
11
3.860000
21
3.160000
31
0.0
0
LINE
8
1-0_REZ
10
-6.020000
20
-4.980000
30
0.0
11
-6.020000
21
-4.540000
31
0.0
0
LINE
8
1-0_REZ
10
10.640000
20
3.880000
30
0.0
11
10.640000
21
4.300000
31
0.0
0
LINE
8
1-0_REZ
10
10.640000
20
4.660000
30
0.0
11
10.640000
21
5.640000
31
0.0
0
LINE
8
1-0_REZ
10
24.380000
20
9.080000
30
0.0
11
24.380000
21
10.460000
31
0.0
0
LINE
8
1-0_REZ
10
7.860000
20
-12.020000
30
0.0
11
7.860000
21
-11.500000
31
0.0
0
LINE
8
1-0_REZ
10
5.160000
20
2.320000
30
0.0
11
5.160000
21
2.720000
31
0.0
0
LINE
8
1-0_REZ
10
-3.680000
20
-2.460000
30
0.0
11
-3.680000
21
-1.740000
31
0.0
0
LINE
8
1-0_REZ
10
5.060000
20
2.320000
30
0.0
11
5.060000
21
2.880000
31
0.0
0
LINE
8
1-0_REZ
10
-2.500000
20
-6.740000
30
0.0
11
-2.500000
21
-6.300000
31
0.0
0
LINE
8
1-0_REZ
10
-2.740000
20
-6.740000
30
0.0
11
-2.740000
21
-6.280000
31
0.0
0
LINE
8
1-0_REZ
10
9.740000
20
3.700000
30
0.0
11
9.740000
21
4.400000
31
0.0
0
LINE
8
1-0_REZ
10
-13.400000
20
-11.660000
30
0.0
11
-13.400000
21
-10.960000
31
0.0
0
LINE
8
1-0_REZ
10
-13.400000
20
-7.980000
30
0.0
11
-13.400000
21
-7.580000
31
0.0
0
LINE
8
1-0_REZ
10
6.260000
20
-8.740000
30
0.0
11
6.260000
21
-7.960000
31
0.0
0
LINE
8
1-0_REZ
10
6.260000
20
0.240000
30
0.0
11
6.260000
21
0.820000
31
0.0
0
LINE
8
1-0_REZ
10
-5.100000
20
-3.080000
30
0.0
11
-5.100000
21
-2.620000
31
0.0
0
LINE
8
1-0_REZ
10
-7.040000
20
-1.660000
30
0.0
11
-7.040000
21
-1.140000
31
0.0
0
LINE
8
1-0_REZ
10
-2.520000
20
-6.760000
30
0.0
11
-2.520000
21
-6.300000
31
0.0
0
LINE
8
1-0_REZ
10
9.240000
20
-0.320000
30
0.0
11
9.240000
21
0.100000
31
0.0
0
LINE
8
1-0_REZ
10
-1.460000
20
-6.720000
30
0.0
11
-1.460000
21
-6.320000
31
0.0
0
LINE
8
1-0_REZ
10
9.480000
20
-0.360000
30
0.0
11
9.480000
21
0.100000
31
0.0
0
LINE
8
1-0_REZ
10
4.440000
20
2.420000
30
0.0
11
4.440000
21
3.080000
31
0.0
0
LINE
8
1-0_REZ
10
10.680000
20
-5.800000
30
0.0
11
10.680000
21
-5.280000
31
0.0
0
LINE
8
1-0_REZ
10
10.680000
20
3.960000
30
0.0
11
10.680000
21
4.400000
31
0.0
0
LINE
8
1-0_REZ
10
10.680000
20
4.520000
30
0.0
11
10.680000
21
5.420000
31
0.0
0
LINE
8
1-0_REZ
10
-5.060000
20
-3.100000
30
0.0
11
-5.060000
21
-2.620000
31
0.0
0
LINE
8
1-0_REZ
10
-2.200000
20
-5.260000
30
0.0
11
-2.200000
21
-4.780000
31
0.0
0
LINE
8
1-0_REZ
10
8.840000
20
-3.240000
30
0.0
11
8.840000
21
-2.760000
31
0.0
0
LINE
8
1-0_REZ
10
-12.540000
20
-7.460000
30
0.0
11
-12.540000
21
-7.060000
31
0.0
0
LINE
8
1-0_REZ
10
8.620000
20
-6.180000
30
0.0
11
8.620000
21
-5.740000
31
0.0
0
LINE
8
1-0_REZ
10
8.620000
20
-3.240000
30
0.0
11
8.620000
21
-2.760000
31
0.0
0
LINE
8
1-0_REZ
10
-12.620000
20
-7.780000
30
0.0
11
-12.620000
21
-7.140000
31
0.0
0
LINE
8
1-0_REZ
10
-12.620000
20
-7.060000
30
0.0
11
-12.620000
21
-6.680000
31
0.0
0
LINE
8
1-0_REZ
10
-5.820000
20
-5.940000
30
0.0
11
-5.820000
21
-5.500000
31
0.0
0
LINE
8
1-0_REZ
10
-2.780000
20
-6.700000
30
0.0
11
-2.780000
21
-6.280000
31
0.0
0
LINE
8
1-0_REZ
10
-13.280000
20
-11.720000
30
0.0
11
-13.280000
21
-10.960000
31
0.0
0
LINE
8
1-0_REZ
10
-6.440000
20
-1.580000
30
0.0
11
-6.440000
21
-1.000000
31
0.0
0
LINE
8
1-0_REZ
10
-13.980000
20
-7.660000
30
0.0
11
-13.980000
21
-7.260000
31
0.0
0
LINE
8
1-0_REZ
10
10.320000
20
-2.760000
30
0.0
11
10.320000
21
-2.120000
31
0.0
0
LINE
8
1-0_REZ
10
10.320000
20
-1.720000
30
0.0
11
10.320000
21
-1.020000
31
0.0
0
LINE
8
1-0_REZ
10
-0.320000
20
0.600000
30
0.0
11
-0.320000
21
1.120000
31
0.0
0
LINE
8
1-0_REZ
10
6.540000
20
2.680000
30
0.0
11
6.540000
21
3.140000
31
0.0
0
LINE
8
1-0_REZ
10
8.760000
20
-3.240000
30
0.0
11
8.760000
21
-2.760000
31
0.0
0
LINE
8
1-0_REZ
10
8.740000
20
-3.240000
30
0.0
11
8.740000
21
-2.760000
31
0.0
0
LINE
8
1-0_REZ
10
-10.720000
20
-6.260000
30
0.0
11
-10.720000
21
-5.800000
31
0.0
0
LINE
8
1-0_REZ
10
-6.700000
20
-8.060000
30
0.0
11
-6.700000
21
-7.620000
31
0.0
0
LINE
8
1-0_REZ
10
3.480000
20
-0.480000
30
0.0
11
3.480000
21
-0.100000
31
0.0
0
LINE
8
1-0_REZ
10
3.420000
20
-0.480000
30
0.0
11
3.420000
21
-0.100000
31
0.0
0
LINE
8
1-0_REZ
10
5.540000
20
2.320000
30
0.0
11
5.540000
21
2.700000
31
0.0
0
LINE
8
1-0_REZ
10
10.580000
20
6.680000
30
0.0
11
10.580000
21
7.060000
31
0.0
0
LINE
8
1-0_REZ
10
-3.220000
20
-11.560000
30
0.0
11
-3.220000
21
-11.180000
31
0.0
0
LINE
8
1-0_REZ
10
-9.220000
20
-8.720000
30
0.0
11
-9.220000
21
-8.220000
31
0.0
0
LINE
8
1-0_REZ
10
3.640000
20
2.700000
30
0.0
11
3.640000
21
3.160000
31
0.0
0
LINE
8
1-0_REZ
10
-6.660000
20
-8.060000
30
0.0
11
-6.660000
21
-7.680000
31
0.0
0
LINE
8
1-0_REZ
10
2.960000
20
3.760000
30
0.0
11
2.960000
21
4.140000
31
0.0
0
LINE
8
1-0_REZ
10
-14.660000
20
-7.960000
30
0.0
11
-14.660000
21
-6.880000
31
0.0
0
LINE
8
1-0_REZ
10
5.040000
20
2.320000
30
0.0
11
5.040000
21
2.860000
31
0.0
0
LINE
8
1-0_REZ
10
-2.580000
20
-6.780000
30
0.0
11
-2.580000
21
-6.300000
31
0.0
0
LINE
8
1-0_REZ
10
2.260000
20
3.800000
30
0.0
11
2.260000
21
4.180000
31
0.0
0
LINE
8
1-0_REZ
10
4.120000
20
2.400000
30
0.0
11
4.120000
21
3.160000
31
0.0
0
LINE
8
1-0_REZ
10
10.180000
20
-2.380000
30
0.0
11
10.180000
21
-1.860000
31
0.0
0
LINE
8
1-0_REZ
10
3.200000
20
-10.300000
30
0.0
11
3.200000
21
-9.900000
31
0.0
0
LINE
8
1-0_REZ
10
5.220000
20
2.320000
30
0.0
11
5.220000
21
2.740000
31
0.0
0
LINE
8
1-0_REZ
10
-12.380000
20
-7.680000
30
0.0
11
-12.380000
21
-7.140000
31
0.0
0
LINE
8
1-0_REZ
10
-2.160000
20
-5.240000
30
0.0
11
-2.160000
21
-4.840000
31
0.0
0
LINE
8
1-0_REZ
10
-1.520000
20
-7.660000
30
0.0
11
-1.520000
21
-7.200000
31
0.0
0
LINE
8
1-0_REZ
10
3.360000
20
-0.480000
30
0.0
11
3.360000
21
-0.100000
31
0.0
0
LINE
8
1-0_REZ
10
-7.020000
20
-1.660000
30
0.0
11
-7.020000
21
-1.140000
31
0.0
0
LINE
8
1-0_REZ
10
-6.060000
20
-5.140000
30
0.0
11
-6.060000
21
-4.540000
31
0.0
0
LINE
8
1-0_REZ
10
-6.060000
20
-3.600000
30
0.0
11
-6.060000
21
-3.100000
31
0.0
0
LINE
8
1-0_REZ
10
-0.940000
20
0.300000
30
0.0
11
-0.940000
21
0.720000
31
0.0
0
LINE
8
1-0_REZ
10
9.560000
20
-3.280000
30
0.0
11
9.560000
21
-2.740000
31
0.0
0
LINE
8
1-0_REZ
10
-11.640000
20
-8.320000
30
0.0
11
-11.640000
21
-7.900000
31
0.0
0
LINE
8
1-0_REZ
10
10.000000
20
0.320000
30
0.0
11
10.000000
21
0.780000
31
0.0
0
LINE
8
1-0_REZ
10
4.060000
20
-9.920000
30
0.0
11
4.060000
21
-9.440000
31
0.0
0
LINE
8
1-0_REZ
10
4.060000
20
2.380000
30
0.0
11
4.060000
21
2.920000
31
0.0
0
LINE
8
1-0_REZ
10
8.180000
20
-9.320000
30
0.0
11
8.180000
21
-8.880000
31
0.0
0
LINE
8
1-0_REZ
10
-2.560000
20
-6.760000
30
0.0
11
-2.560000
21
-6.300000
31
0.0
0
LINE
8
1-0_REZ
10
9.120000
20
-3.240000
30
0.0
11
9.120000
21
-2.780000
31
0.0
0
LINE
8
1-0_REZ
10
-11.920000
20
-8.380000
30
0.0
11
-11.920000
21
-7.900000
31
0.0
0
LINE
8
1-0_REZ
10
-1.280000
20
-4.240000
30
0.0
11
-1.280000
21
-3.840000
31
0.0
0
LINE
8
1-0_REZ
10
-5.960000
20
-4.980000
30
0.0
11
-5.960000
21
-4.560000
31
0.0
0
LINE
8
1-0_REZ
10
1.800000
20
-11.380000
30
0.0
11
1.800000
21
-10.680000
31
0.0
0
LINE
8
1-0_REZ
10
1.800000
20
-10.200000
30
0.0
11
1.800000
21
-9.780000
31
0.0
0
LINE
8
1-0_REZ
10
5.260000
20
2.300000
30
0.0
11
5.260000
21
2.760000
31
0.0
0
LINE
8
1-0_REZ
10
-11.760000
20
-8.320000
30
0.0
11
-11.760000
21
-7.940000
31
0.0
0
LINE
8
1-0_REZ
10
-1.200000
20
-4.240000
30
0.0
11
-1.200000
21
-3.820000
31
0.0
0
LINE
8
1-0_REZ
10
-1.300000
20
-4.240000
30
0.0
11
-1.300000
21
-3.840000
31
0.0
0
LINE
8
1-0_REZ
10
-1.880000
20
-6.740000
30
0.0
11
-1.880000
21
-6.320000
31
0.0
0
LINE
8
1-0_REZ
10
-1.880000
20
-5.260000
30
0.0
11
-1.880000
21
-4.840000
31
0.0
0
LINE
8
1-0_REZ
10
3.040000
20
3.700000
30
0.0
11
3.040000
21
4.120000
31
0.0
0
LINE
8
1-0_REZ
10
-4.460000
20
-2.540000
30
0.0
11
-4.460000
21
-1.600000
31
0.0
0
LINE
8
1-0_REZ
10
5.360000
20
2.300000
30
0.0
11
5.360000
21
2.760000
31
0.0
0
LINE
8
1-0_REZ
10
9.140000
20
-3.260000
30
0.0
11
9.140000
21
-2.780000
31
0.0
0
LINE
8
1-0_REZ
10
-3.460000
20
-1.540000
30
0.0
11
-3.460000
21
-0.980000
31
0.0
0
LINE
8
1-0_REZ
10
-2.360000
20
-6.680000
30
0.0
11
-2.360000
21
-6.300000
31
0.0
0
LINE
8
1-0_REZ
10
0.800000
20
-3.380000
30
0.0
11
0.800000
21
-2.780000
31
0.0
0
LINE
8
1-0_REZ
10
1.560000
20
-9.500000
30
0.0
11
1.560000
21
-9.040000
31
0.0
0
LINE
8
1-0_REZ
10
1.160000
20
-9.600000
30
0.0
11
1.160000
21
-9.140000
31
0.0
0
LINE
8
1-0_REZ
10
1.160000
20
-6.880000
30
0.0
11
1.160000
21
-6.440000
31
0.0
0
LINE
8
1-0_REZ
10
1.160000
20
-3.480000
30
0.0
11
1.160000
21
-3.080000
31
0.0
0
LINE
8
1-0_REZ
10
1.160000
20
0.040000
30
0.0
11
1.160000
21
0.440000
31
0.0
0
LINE
8
1-0_REZ
10
5.100000
20
2.320000
30
0.0
11
5.100000
21
2.880000
31
0.0
0
LINE
8
1-0_REZ
10
0.860000
20
-3.380000
30
0.0
11
0.860000
21
-2.760000
31
0.0
0
LINE
8
1-0_REZ
10
3.020000
20
3.720000
30
0.0
11
3.020000
21
4.260000
31
0.0
0
LINE
8
1-0_REZ
10
-12.560000
20
-7.540000
30
0.0
11
-12.560000
21
-7.140000
31
0.0
0
LINE
8
1-0_REZ
10
-12.340000
20
-7.660000
30
0.0
11
-12.340000
21
-7.120000
31
0.0
0
LINE
8
1-0_REZ
10
-7.280000
20
-12.060000
30
0.0
11
-7.280000
21
-11.660000
31
0.0
0
LINE
8
1-0_REZ
10
-11.800000
20
-8.340000
30
0.0
11
-11.800000
21
-7.960000
31
0.0
0
LINE
8
1-0_REZ
10
14.040000
20
14.440000
30
0.0
11
14.040000
21
14.820000
31
0.0
0
LINE
8
1-0_REZ
10
1.740000
20
-11.200000
30
0.0
11
1.740000
21
-10.680000
31
0.0
0
LINE
8
1-0_REZ
10
1.740000
20
-10.220000
30
0.0
11
1.740000
21
-9.780000
31
0.0
0
LINE
8
1-0_REZ
10
-9.820000
20
-8.240000
30
0.0
11
-9.820000
21
-7.860000
31
0.0
0
LINE
8
1-0_REZ
10
5.500000
20
2.720000
30
0.0
11
5.500000
21
3.180000
31
0.0
0
LINE
8
1-0_REZ
10
9.220000
20
-0.320000
30
0.0
11
9.220000
21
0.100000
31
0.0
0
LINE
8
1-0_REZ
10
-6.000000
20
-4.980000
30
0.0
11
-6.000000
21
-4.540000
31
0.0
0
LINE
8
1-0_REZ
10
4.980000
20
2.320000
30
0.0
11
4.980000
21
3.140000
31
0.0
0
LINE
8
1-0_REZ
10
11.140000
20
4.400000
30
0.0
11
11.140000
21
4.780000
31
0.0
0
LINE
8
1-0_REZ
10
-3.520000
20
-2.620000
30
0.0
11
-3.520000
21
-2.140000
31
0.0
0
LINE
8
1-0_REZ
10
-13.260000
20
-11.720000
30
0.0
11
-13.260000
21
-10.960000
31
0.0
0
LINE
8
1-0_REZ
10
-2.060000
20
-6.720000
30
0.0
11
-2.060000
21
-6.320000
31
0.0
0
LINE
8
1-0_REZ
10
-2.060000
20
-5.260000
30
0.0
11
-2.060000
21
-4.800000
31
0.0
0
LINE
8
1-0_REZ
10
-7.880000
20
-13.040000
30
0.0
11
-7.880000
21
-12.660000
31
0.0
0
LINE
8
1-0_REZ
10
-7.880000
20
-1.780000
30
0.0
11
-7.880000
21
-1.340000
31
0.0
0
LINE
8
1-0_REZ
10
3.400000
20
-0.480000
30
0.0
11
3.400000
21
-0.100000
31
0.0
0
LINE
8
1-0_REZ
10
-7.320000
20
-8.480000
30
0.0
11
-7.320000
21
-7.940000
31
0.0
0
LINE
8
1-0_REZ
10
-1.340000
20
-4.240000
30
0.0
11
-1.340000
21
-3.860000
31
0.0
0
LINE
8
1-0_REZ
10
4.920000
20
2.320000
30
0.0
11
4.920000
21
2.880000
31
0.0
0
LINE
8
1-0_REZ
10
-11.860000
20
-8.340000
30
0.0
11
-11.860000
21
-7.920000
31
0.0
0
LINE
8
1-0_REZ
10
-3.720000
20
-2.580000
30
0.0
11
-3.720000
21
-1.740000
31
0.0
0
LINE
8
1-0_REZ
10
-12.140000
20
-8.340000
30
0.0
11
-12.140000
21
-7.820000
31
0.0
0
LINE
8
1-0_REZ
10
0.900000
20
-6.880000
30
0.0
11
0.900000
21
-6.420000
31
0.0
0
LINE
8
1-0_REZ
10
0.900000
20
-3.380000
30
0.0
11
0.900000
21
-2.760000
31
0.0
0
LINE
8
1-0_REZ
10
-1.940000
20
-5.260000
30
0.0
11
-1.940000
21
-4.820000
31
0.0
0
LINE
8
1-0_REZ
10
7.000000
20
3.760000
30
0.0
11
7.000000
21
4.240000
31
0.0
0
LINE
8
1-0_REZ
10
5.200000
20
2.320000
30
0.0
11
5.200000
21
2.740000
31
0.0
0
LINE
8
1-0_REZ
10
-2.440000
20
-6.720000
30
0.0
11
-2.440000
21
-6.300000
31
0.0
0
LINE
8
1-0_REZ
10
-4.320000
20
-5.380000
30
0.0
11
-4.320000
21
-4.960000
31
0.0
0
LINE
8
1-0_REZ
10
-4.320000
20
-4.660000
30
0.0
11
-4.320000
21
-4.100000
31
0.0
0
LINE
8
1-0_REZ
10
-4.320000
20
-3.240000
30
0.0
11
-4.320000
21
-2.860000
31
0.0
0
LINE
8
1-0_REZ
10
-2.680000
20
-6.780000
30
0.0
11
-2.680000
21
-6.300000
31
0.0
0
LINE
8
1-0_REZ
10
10.060000
20
1.660000
30
0.0
11
10.060000
21
2.160000
31
0.0
0
LINE
8
1-0_REZ
10
-15.180000
20
-9.060000
30
0.0
11
-15.180000
21
-8.620000
31
0.0
0
LINE
8
1-0_REZ
10
-0.780000
20
-9.300000
30
0.0
11
-0.780000
21
-8.900000
31
0.0
0
LINE
8
1-0_REZ
10
-4.420000
20
-2.200000
30
0.0
11
-4.420000
21
-1.740000
31
0.0
0
LINE
8
1-0_REZ
10
2.440000
20
-1.260000
30
0.0
11
2.440000
21
-0.800000
31
0.0
0
LINE
8
1-0_REZ
10
12.940000
20
-9.540000
30
0.0
11
12.940000
21
-9.060000
31
0.0
0
LINE
8
1-0_REZ
10
-14.500000
20
-7.840000
30
0.0
11
-14.500000
21
-7.240000
31
0.0
0
LINE
8
1-0_REZ
10
-14.200000
20
-12.820000
30
0.0
11
-14.200000
21
-12.340000
31
0.0
0
LINE
8
1-0_REZ
10
5.020000
20
2.320000
30
0.0
11
5.020000
21
2.740000
31
0.0
0
LINE
8
1-0_REZ
10
-5.560000
20
-6.080000
30
0.0
11
-5.560000
21
-5.500000
31
0.0
0
LINE
8
1-0_REZ
10
-12.580000
20
-7.780000
30
0.0
11
-12.580000
21
-7.140000
31
0.0
0
LINE
8
1-0_REZ
10
9.020000
20
-3.180000
30
0.0
11
9.020000
21
-2.780000
31
0.0
0
LINE
8
1-0_REZ
10
-11.720000
20
-8.340000
30
0.0
11
-11.720000
21
-7.920000
31
0.0
0
LINE
8
1-0_REZ
10
-6.760000
20
-8.060000
30
0.0
11
-6.760000
21
-7.640000
31
0.0
0
LINE
8
1-0_REZ
10
-3.500000
20
-2.300000
30
0.0
11
-3.500000
21
-1.800000
31
0.0
0
LINE
8
1-0_REZ
10
-5.620000
20
-6.000000
30
0.0
11
-5.620000
21
-5.440000
31
0.0
0
LINE
8
1-0_REZ
10
-13.220000
20
-11.720000
30
0.0
11
-13.220000
21
-10.960000
31
0.0
0
LINE
8
1-0_REZ
10
-11.660000
20
-8.320000
30
0.0
11
-11.660000
21
-7.900000
31
0.0
0
LINE
8
1-0_REZ
10
-11.780000
20
-8.300000
30
0.0
11
-11.780000
21
-7.920000
31
0.0
0
LINE
8
1-0_REZ
10
-2.480000
20
-6.740000
30
0.0
11
-2.480000
21
-6.300000
31
0.0
0
LINE
8
1-0_REZ
10
-2.180000
20
-5.260000
30
0.0
11
-2.180000
21
-4.740000
31
0.0
0
LINE
8
1-0_REZ
10
-2.620000
20
-6.780000
30
0.0
11
-2.620000
21
-6.300000
31
0.0
0
LINE
8
1-0_REZ
10
12.460000
20
-9.480000
30
0.0
11
12.460000
21
-8.640000
31
0.0
0
LINE
8
1-0_REZ
10
4.700000
20
2.460000
30
0.0
11
4.700000
21
3.100000
31
0.0
0
LINE
8
1-0_REZ
10
-3.200000
20
-11.560000
30
0.0
11
-3.200000
21
-10.980000
31
0.0
0
LINE
8
1-0_REZ
10
-12.360000
20
-7.680000
30
0.0
11
-12.360000
21
-7.140000
31
0.0
0
LINE
8
1-0_REZ
10
-2.540000
20
-6.760000
30
0.0
11
-2.540000
21
-6.300000
31
0.0
0
LINE
8
1-0_REZ
10
2.980000
20
3.740000
30
0.0
11
2.980000
21
4.240000
31
0.0
0
LINE
8
1-0_REZ
10
-5.660000
20
-6.000000
30
0.0
11
-5.660000
21
-5.460000
31
0.0
0
LINE
8
1-0_REZ
10
-14.480000
20
-7.840000
30
0.0
11
-14.480000
21
-7.320000
31
0.0
0
LINE
8
1-0_REZ
10
-9.200000
20
-8.300000
30
0.0
11
-9.200000
21
-7.900000
31
0.0
0
ENDSEC
0
EOF
